ISO-10303-21;
HEADER;
/* Generated by software containing ST-Developer
 * from STEP Tools, Inc. (www.steptools.com) 
 */

FILE_DESCRIPTION(
/* description */ (''),
/* implementation_level */ '2;1');

FILE_NAME(
/* name */ 'Bottom.step',
/* time_stamp */ '2026-03-31T00:19:22+09:00',
/* author */ (''),
/* organization */ (''),
/* preprocessor_version */ 'ST-DEVELOPER v20.1',
/* originating_system */ 'Autodesk Translation Framework v14.24.0.0',
/* authorisation */ '');

FILE_SCHEMA (('AUTOMOTIVE_DESIGN { 1 0 10303 214 3 1 1 }'));
ENDSEC;

DATA;
#10=MECHANICAL_DESIGN_GEOMETRIC_PRESENTATION_REPRESENTATION('',(#13),#771);
#11=SHAPE_REPRESENTATION_RELATIONSHIP('SRR','None',#778,#12);
#12=ADVANCED_BREP_SHAPE_REPRESENTATION('',(#14),#770);
#13=STYLED_ITEM('',(#787),#14);
#14=MANIFOLD_SOLID_BREP('Body1',#455);
#15=FACE_BOUND('',#67,.T.);
#16=FACE_BOUND('',#69,.T.);
#17=FACE_BOUND('',#92,.T.);
#18=FACE_BOUND('',#93,.T.);
#19=FACE_BOUND('',#94,.T.);
#20=FACE_BOUND('',#95,.T.);
#21=PLANE('',#472);
#22=PLANE('',#473);
#23=PLANE('',#479);
#24=PLANE('',#482);
#25=PLANE('',#485);
#26=PLANE('',#486);
#27=PLANE('',#487);
#28=PLANE('',#488);
#29=PLANE('',#492);
#30=PLANE('',#496);
#31=PLANE('',#500);
#32=PLANE('',#504);
#33=PLANE('',#505);
#34=PLANE('',#506);
#35=PLANE('',#507);
#36=PLANE('',#508);
#37=PLANE('',#509);
#38=PLANE('',#510);
#39=FACE_OUTER_BOUND('',#65,.T.);
#40=FACE_OUTER_BOUND('',#66,.T.);
#41=FACE_OUTER_BOUND('',#68,.T.);
#42=FACE_OUTER_BOUND('',#70,.T.);
#43=FACE_OUTER_BOUND('',#71,.T.);
#44=FACE_OUTER_BOUND('',#72,.T.);
#45=FACE_OUTER_BOUND('',#73,.T.);
#46=FACE_OUTER_BOUND('',#74,.T.);
#47=FACE_OUTER_BOUND('',#75,.T.);
#48=FACE_OUTER_BOUND('',#76,.T.);
#49=FACE_OUTER_BOUND('',#77,.T.);
#50=FACE_OUTER_BOUND('',#78,.T.);
#51=FACE_OUTER_BOUND('',#79,.T.);
#52=FACE_OUTER_BOUND('',#80,.T.);
#53=FACE_OUTER_BOUND('',#81,.T.);
#54=FACE_OUTER_BOUND('',#82,.T.);
#55=FACE_OUTER_BOUND('',#83,.T.);
#56=FACE_OUTER_BOUND('',#84,.T.);
#57=FACE_OUTER_BOUND('',#85,.T.);
#58=FACE_OUTER_BOUND('',#86,.T.);
#59=FACE_OUTER_BOUND('',#87,.T.);
#60=FACE_OUTER_BOUND('',#88,.T.);
#61=FACE_OUTER_BOUND('',#89,.T.);
#62=FACE_OUTER_BOUND('',#90,.T.);
#63=FACE_OUTER_BOUND('',#91,.T.);
#64=FACE_OUTER_BOUND('',#96,.T.);
#65=EDGE_LOOP('',(#301,#302,#303,#304));
#66=EDGE_LOOP('',(#305,#306,#307,#308));
#67=EDGE_LOOP('',(#309,#310,#311,#312));
#68=EDGE_LOOP('',(#313,#314,#315,#316,#317,#318,#319,#320));
#69=EDGE_LOOP('',(#321,#322,#323,#324));
#70=EDGE_LOOP('',(#325,#326,#327,#328));
#71=EDGE_LOOP('',(#329,#330,#331,#332));
#72=EDGE_LOOP('',(#333,#334,#335,#336));
#73=EDGE_LOOP('',(#337,#338,#339,#340));
#74=EDGE_LOOP('',(#341,#342,#343,#344));
#75=EDGE_LOOP('',(#345,#346,#347,#348));
#76=EDGE_LOOP('',(#349,#350,#351,#352));
#77=EDGE_LOOP('',(#353,#354,#355,#356));
#78=EDGE_LOOP('',(#357,#358,#359,#360,#361,#362,#363,#364));
#79=EDGE_LOOP('',(#365,#366,#367,#368));
#80=EDGE_LOOP('',(#369));
#81=EDGE_LOOP('',(#370,#371,#372,#373));
#82=EDGE_LOOP('',(#374));
#83=EDGE_LOOP('',(#375,#376,#377,#378));
#84=EDGE_LOOP('',(#379));
#85=EDGE_LOOP('',(#380,#381,#382,#383));
#86=EDGE_LOOP('',(#384));
#87=EDGE_LOOP('',(#385,#386,#387,#388));
#88=EDGE_LOOP('',(#389,#390,#391,#392));
#89=EDGE_LOOP('',(#393,#394,#395,#396));
#90=EDGE_LOOP('',(#397,#398,#399,#400));
#91=EDGE_LOOP('',(#401,#402,#403,#404,#405,#406,#407,#408));
#92=EDGE_LOOP('',(#409));
#93=EDGE_LOOP('',(#410));
#94=EDGE_LOOP('',(#411));
#95=EDGE_LOOP('',(#412));
#96=EDGE_LOOP('',(#413,#414,#415,#416,#417,#418,#419,#420));
#97=LINE('',#647,#141);
#98=LINE('',#650,#142);
#99=LINE('',#653,#143);
#100=LINE('',#655,#144);
#101=LINE('',#656,#145);
#102=LINE('',#659,#146);
#103=LINE('',#661,#147);
#104=LINE('',#663,#148);
#105=LINE('',#664,#149);
#106=LINE('',#667,#150);
#107=LINE('',#671,#151);
#108=LINE('',#675,#152);
#109=LINE('',#679,#153);
#110=LINE('',#681,#154);
#111=LINE('',#683,#155);
#112=LINE('',#684,#156);
#113=LINE('',#687,#157);
#114=LINE('',#691,#158);
#115=LINE('',#692,#159);
#116=LINE('',#695,#160);
#117=LINE('',#698,#161);
#118=LINE('',#701,#162);
#119=LINE('',#702,#163);
#120=LINE('',#707,#164);
#121=LINE('',#709,#165);
#122=LINE('',#710,#166);
#123=LINE('',#713,#167);
#124=LINE('',#715,#168);
#125=LINE('',#716,#169);
#126=LINE('',#718,#170);
#127=LINE('',#721,#171);
#128=LINE('',#722,#172);
#129=LINE('',#724,#173);
#130=LINE('',#725,#174);
#131=LINE('',#730,#175);
#132=LINE('',#737,#176);
#133=LINE('',#744,#177);
#134=LINE('',#751,#178);
#135=LINE('',#756,#179);
#136=LINE('',#757,#180);
#137=LINE('',#760,#181);
#138=LINE('',#761,#182);
#139=LINE('',#763,#183);
#140=LINE('',#765,#184);
#141=VECTOR('',#517,10.);
#142=VECTOR('',#520,10.);
#143=VECTOR('',#523,10.);
#144=VECTOR('',#524,10.);
#145=VECTOR('',#525,10.);
#146=VECTOR('',#526,10.);
#147=VECTOR('',#527,10.);
#148=VECTOR('',#528,10.);
#149=VECTOR('',#529,10.);
#150=VECTOR('',#532,10.);
#151=VECTOR('',#535,10.);
#152=VECTOR('',#538,10.);
#153=VECTOR('',#541,10.);
#154=VECTOR('',#542,10.);
#155=VECTOR('',#543,10.);
#156=VECTOR('',#544,10.);
#157=VECTOR('',#547,10.);
#158=VECTOR('',#552,10.);
#159=VECTOR('',#553,10.);
#160=VECTOR('',#556,10.);
#161=VECTOR('',#559,10.);
#162=VECTOR('',#562,10.);
#163=VECTOR('',#563,10.);
#164=VECTOR('',#570,10.);
#165=VECTOR('',#571,10.);
#166=VECTOR('',#572,10.);
#167=VECTOR('',#575,10.);
#168=VECTOR('',#576,10.);
#169=VECTOR('',#577,10.);
#170=VECTOR('',#580,10.);
#171=VECTOR('',#583,10.);
#172=VECTOR('',#584,10.);
#173=VECTOR('',#585,10.);
#174=VECTOR('',#586,10.);
#175=VECTOR('',#591,2.34999999999999);
#176=VECTOR('',#600,2.34999999999999);
#177=VECTOR('',#609,2.34999999999999);
#178=VECTOR('',#618,2.34999999999999);
#179=VECTOR('',#625,10.);
#180=VECTOR('',#626,10.);
#181=VECTOR('',#629,10.);
#182=VECTOR('',#630,10.);
#183=VECTOR('',#633,10.);
#184=VECTOR('',#636,10.);
#185=CIRCLE('',#470,5.);
#186=CIRCLE('',#471,5.);
#187=CIRCLE('',#474,5.);
#188=CIRCLE('',#475,5.);
#189=CIRCLE('',#476,5.);
#190=CIRCLE('',#478,5.);
#191=CIRCLE('',#481,5.);
#192=CIRCLE('',#484,5.);
#193=CIRCLE('',#490,2.34999999999999);
#194=CIRCLE('',#491,2.34999999999999);
#195=CIRCLE('',#494,2.34999999999999);
#196=CIRCLE('',#495,2.34999999999999);
#197=CIRCLE('',#498,2.34999999999999);
#198=CIRCLE('',#499,2.34999999999999);
#199=CIRCLE('',#502,2.34999999999999);
#200=CIRCLE('',#503,2.34999999999999);
#201=VERTEX_POINT('',#643);
#202=VERTEX_POINT('',#644);
#203=VERTEX_POINT('',#646);
#204=VERTEX_POINT('',#648);
#205=VERTEX_POINT('',#652);
#206=VERTEX_POINT('',#654);
#207=VERTEX_POINT('',#657);
#208=VERTEX_POINT('',#658);
#209=VERTEX_POINT('',#660);
#210=VERTEX_POINT('',#662);
#211=VERTEX_POINT('',#666);
#212=VERTEX_POINT('',#668);
#213=VERTEX_POINT('',#670);
#214=VERTEX_POINT('',#672);
#215=VERTEX_POINT('',#674);
#216=VERTEX_POINT('',#677);
#217=VERTEX_POINT('',#678);
#218=VERTEX_POINT('',#680);
#219=VERTEX_POINT('',#682);
#220=VERTEX_POINT('',#686);
#221=VERTEX_POINT('',#690);
#222=VERTEX_POINT('',#694);
#223=VERTEX_POINT('',#696);
#224=VERTEX_POINT('',#700);
#225=VERTEX_POINT('',#706);
#226=VERTEX_POINT('',#708);
#227=VERTEX_POINT('',#712);
#228=VERTEX_POINT('',#714);
#229=VERTEX_POINT('',#720);
#230=VERTEX_POINT('',#723);
#231=VERTEX_POINT('',#727);
#232=VERTEX_POINT('',#729);
#233=VERTEX_POINT('',#734);
#234=VERTEX_POINT('',#736);
#235=VERTEX_POINT('',#741);
#236=VERTEX_POINT('',#743);
#237=VERTEX_POINT('',#748);
#238=VERTEX_POINT('',#750);
#239=VERTEX_POINT('',#755);
#240=VERTEX_POINT('',#759);
#241=EDGE_CURVE('',#201,#202,#185,.T.);
#242=EDGE_CURVE('',#202,#203,#97,.T.);
#243=EDGE_CURVE('',#203,#204,#186,.T.);
#244=EDGE_CURVE('',#204,#201,#98,.T.);
#245=EDGE_CURVE('',#205,#202,#99,.T.);
#246=EDGE_CURVE('',#206,#205,#100,.T.);
#247=EDGE_CURVE('',#206,#203,#101,.T.);
#248=EDGE_CURVE('',#207,#208,#102,.T.);
#249=EDGE_CURVE('',#208,#209,#103,.T.);
#250=EDGE_CURVE('',#209,#210,#104,.T.);
#251=EDGE_CURVE('',#210,#207,#105,.T.);
#252=EDGE_CURVE('',#201,#211,#106,.T.);
#253=EDGE_CURVE('',#212,#211,#187,.T.);
#254=EDGE_CURVE('',#212,#213,#107,.T.);
#255=EDGE_CURVE('',#214,#213,#188,.T.);
#256=EDGE_CURVE('',#214,#215,#108,.T.);
#257=EDGE_CURVE('',#205,#215,#189,.T.);
#258=EDGE_CURVE('',#216,#217,#109,.T.);
#259=EDGE_CURVE('',#217,#218,#110,.T.);
#260=EDGE_CURVE('',#218,#219,#111,.T.);
#261=EDGE_CURVE('',#219,#216,#112,.T.);
#262=EDGE_CURVE('',#215,#220,#113,.T.);
#263=EDGE_CURVE('',#220,#206,#190,.T.);
#264=EDGE_CURVE('',#221,#214,#114,.T.);
#265=EDGE_CURVE('',#221,#220,#115,.T.);
#266=EDGE_CURVE('',#211,#222,#116,.T.);
#267=EDGE_CURVE('',#222,#223,#191,.T.);
#268=EDGE_CURVE('',#223,#212,#117,.T.);
#269=EDGE_CURVE('',#223,#224,#118,.T.);
#270=EDGE_CURVE('',#213,#224,#119,.T.);
#271=EDGE_CURVE('',#224,#221,#192,.T.);
#272=EDGE_CURVE('',#225,#209,#120,.T.);
#273=EDGE_CURVE('',#226,#225,#121,.T.);
#274=EDGE_CURVE('',#226,#210,#122,.T.);
#275=EDGE_CURVE('',#227,#207,#123,.T.);
#276=EDGE_CURVE('',#228,#227,#124,.T.);
#277=EDGE_CURVE('',#228,#208,#125,.T.);
#278=EDGE_CURVE('',#225,#228,#126,.T.);
#279=EDGE_CURVE('',#229,#227,#127,.T.);
#280=EDGE_CURVE('',#229,#219,#128,.T.);
#281=EDGE_CURVE('',#230,#218,#129,.T.);
#282=EDGE_CURVE('',#226,#230,#130,.T.);
#283=EDGE_CURVE('',#231,#231,#193,.T.);
#284=EDGE_CURVE('',#231,#232,#131,.T.);
#285=EDGE_CURVE('',#232,#232,#194,.T.);
#286=EDGE_CURVE('',#233,#233,#195,.T.);
#287=EDGE_CURVE('',#233,#234,#132,.T.);
#288=EDGE_CURVE('',#234,#234,#196,.T.);
#289=EDGE_CURVE('',#235,#235,#197,.T.);
#290=EDGE_CURVE('',#235,#236,#133,.T.);
#291=EDGE_CURVE('',#236,#236,#198,.T.);
#292=EDGE_CURVE('',#237,#237,#199,.T.);
#293=EDGE_CURVE('',#237,#238,#134,.T.);
#294=EDGE_CURVE('',#238,#238,#200,.T.);
#295=EDGE_CURVE('',#239,#229,#135,.T.);
#296=EDGE_CURVE('',#239,#216,#136,.T.);
#297=EDGE_CURVE('',#230,#240,#137,.T.);
#298=EDGE_CURVE('',#240,#217,#138,.T.);
#299=EDGE_CURVE('',#240,#239,#139,.T.);
#300=EDGE_CURVE('',#204,#222,#140,.T.);
#301=ORIENTED_EDGE('',*,*,#241,.T.);
#302=ORIENTED_EDGE('',*,*,#242,.T.);
#303=ORIENTED_EDGE('',*,*,#243,.T.);
#304=ORIENTED_EDGE('',*,*,#244,.T.);
#305=ORIENTED_EDGE('',*,*,#242,.F.);
#306=ORIENTED_EDGE('',*,*,#245,.F.);
#307=ORIENTED_EDGE('',*,*,#246,.F.);
#308=ORIENTED_EDGE('',*,*,#247,.T.);
#309=ORIENTED_EDGE('',*,*,#248,.T.);
#310=ORIENTED_EDGE('',*,*,#249,.T.);
#311=ORIENTED_EDGE('',*,*,#250,.T.);
#312=ORIENTED_EDGE('',*,*,#251,.T.);
#313=ORIENTED_EDGE('',*,*,#241,.F.);
#314=ORIENTED_EDGE('',*,*,#252,.T.);
#315=ORIENTED_EDGE('',*,*,#253,.F.);
#316=ORIENTED_EDGE('',*,*,#254,.T.);
#317=ORIENTED_EDGE('',*,*,#255,.F.);
#318=ORIENTED_EDGE('',*,*,#256,.T.);
#319=ORIENTED_EDGE('',*,*,#257,.F.);
#320=ORIENTED_EDGE('',*,*,#245,.T.);
#321=ORIENTED_EDGE('',*,*,#258,.T.);
#322=ORIENTED_EDGE('',*,*,#259,.T.);
#323=ORIENTED_EDGE('',*,*,#260,.T.);
#324=ORIENTED_EDGE('',*,*,#261,.T.);
#325=ORIENTED_EDGE('',*,*,#257,.T.);
#326=ORIENTED_EDGE('',*,*,#262,.T.);
#327=ORIENTED_EDGE('',*,*,#263,.T.);
#328=ORIENTED_EDGE('',*,*,#246,.T.);
#329=ORIENTED_EDGE('',*,*,#262,.F.);
#330=ORIENTED_EDGE('',*,*,#256,.F.);
#331=ORIENTED_EDGE('',*,*,#264,.F.);
#332=ORIENTED_EDGE('',*,*,#265,.T.);
#333=ORIENTED_EDGE('',*,*,#253,.T.);
#334=ORIENTED_EDGE('',*,*,#266,.T.);
#335=ORIENTED_EDGE('',*,*,#267,.T.);
#336=ORIENTED_EDGE('',*,*,#268,.T.);
#337=ORIENTED_EDGE('',*,*,#268,.F.);
#338=ORIENTED_EDGE('',*,*,#269,.T.);
#339=ORIENTED_EDGE('',*,*,#270,.F.);
#340=ORIENTED_EDGE('',*,*,#254,.F.);
#341=ORIENTED_EDGE('',*,*,#255,.T.);
#342=ORIENTED_EDGE('',*,*,#270,.T.);
#343=ORIENTED_EDGE('',*,*,#271,.T.);
#344=ORIENTED_EDGE('',*,*,#264,.T.);
#345=ORIENTED_EDGE('',*,*,#250,.F.);
#346=ORIENTED_EDGE('',*,*,#272,.F.);
#347=ORIENTED_EDGE('',*,*,#273,.F.);
#348=ORIENTED_EDGE('',*,*,#274,.T.);
#349=ORIENTED_EDGE('',*,*,#248,.F.);
#350=ORIENTED_EDGE('',*,*,#275,.F.);
#351=ORIENTED_EDGE('',*,*,#276,.F.);
#352=ORIENTED_EDGE('',*,*,#277,.T.);
#353=ORIENTED_EDGE('',*,*,#249,.F.);
#354=ORIENTED_EDGE('',*,*,#277,.F.);
#355=ORIENTED_EDGE('',*,*,#278,.F.);
#356=ORIENTED_EDGE('',*,*,#272,.T.);
#357=ORIENTED_EDGE('',*,*,#273,.T.);
#358=ORIENTED_EDGE('',*,*,#278,.T.);
#359=ORIENTED_EDGE('',*,*,#276,.T.);
#360=ORIENTED_EDGE('',*,*,#279,.F.);
#361=ORIENTED_EDGE('',*,*,#280,.T.);
#362=ORIENTED_EDGE('',*,*,#260,.F.);
#363=ORIENTED_EDGE('',*,*,#281,.F.);
#364=ORIENTED_EDGE('',*,*,#282,.F.);
#365=ORIENTED_EDGE('',*,*,#283,.F.);
#366=ORIENTED_EDGE('',*,*,#284,.T.);
#367=ORIENTED_EDGE('',*,*,#285,.T.);
#368=ORIENTED_EDGE('',*,*,#284,.F.);
#369=ORIENTED_EDGE('',*,*,#285,.F.);
#370=ORIENTED_EDGE('',*,*,#286,.F.);
#371=ORIENTED_EDGE('',*,*,#287,.T.);
#372=ORIENTED_EDGE('',*,*,#288,.T.);
#373=ORIENTED_EDGE('',*,*,#287,.F.);
#374=ORIENTED_EDGE('',*,*,#288,.F.);
#375=ORIENTED_EDGE('',*,*,#289,.F.);
#376=ORIENTED_EDGE('',*,*,#290,.T.);
#377=ORIENTED_EDGE('',*,*,#291,.T.);
#378=ORIENTED_EDGE('',*,*,#290,.F.);
#379=ORIENTED_EDGE('',*,*,#291,.F.);
#380=ORIENTED_EDGE('',*,*,#292,.F.);
#381=ORIENTED_EDGE('',*,*,#293,.T.);
#382=ORIENTED_EDGE('',*,*,#294,.T.);
#383=ORIENTED_EDGE('',*,*,#293,.F.);
#384=ORIENTED_EDGE('',*,*,#294,.F.);
#385=ORIENTED_EDGE('',*,*,#295,.F.);
#386=ORIENTED_EDGE('',*,*,#296,.T.);
#387=ORIENTED_EDGE('',*,*,#261,.F.);
#388=ORIENTED_EDGE('',*,*,#280,.F.);
#389=ORIENTED_EDGE('',*,*,#297,.F.);
#390=ORIENTED_EDGE('',*,*,#281,.T.);
#391=ORIENTED_EDGE('',*,*,#259,.F.);
#392=ORIENTED_EDGE('',*,*,#298,.F.);
#393=ORIENTED_EDGE('',*,*,#299,.F.);
#394=ORIENTED_EDGE('',*,*,#298,.T.);
#395=ORIENTED_EDGE('',*,*,#258,.F.);
#396=ORIENTED_EDGE('',*,*,#296,.F.);
#397=ORIENTED_EDGE('',*,*,#244,.F.);
#398=ORIENTED_EDGE('',*,*,#300,.T.);
#399=ORIENTED_EDGE('',*,*,#266,.F.);
#400=ORIENTED_EDGE('',*,*,#252,.F.);
#401=ORIENTED_EDGE('',*,*,#295,.T.);
#402=ORIENTED_EDGE('',*,*,#279,.T.);
#403=ORIENTED_EDGE('',*,*,#275,.T.);
#404=ORIENTED_EDGE('',*,*,#251,.F.);
#405=ORIENTED_EDGE('',*,*,#274,.F.);
#406=ORIENTED_EDGE('',*,*,#282,.T.);
#407=ORIENTED_EDGE('',*,*,#297,.T.);
#408=ORIENTED_EDGE('',*,*,#299,.T.);
#409=ORIENTED_EDGE('',*,*,#283,.T.);
#410=ORIENTED_EDGE('',*,*,#286,.T.);
#411=ORIENTED_EDGE('',*,*,#289,.T.);
#412=ORIENTED_EDGE('',*,*,#292,.T.);
#413=ORIENTED_EDGE('',*,*,#243,.F.);
#414=ORIENTED_EDGE('',*,*,#247,.F.);
#415=ORIENTED_EDGE('',*,*,#263,.F.);
#416=ORIENTED_EDGE('',*,*,#265,.F.);
#417=ORIENTED_EDGE('',*,*,#271,.F.);
#418=ORIENTED_EDGE('',*,*,#269,.F.);
#419=ORIENTED_EDGE('',*,*,#267,.F.);
#420=ORIENTED_EDGE('',*,*,#300,.F.);
#421=CYLINDRICAL_SURFACE('',#469,5.);
#422=CYLINDRICAL_SURFACE('',#477,5.);
#423=CYLINDRICAL_SURFACE('',#480,5.);
#424=CYLINDRICAL_SURFACE('',#483,5.);
#425=CYLINDRICAL_SURFACE('',#489,2.34999999999999);
#426=CYLINDRICAL_SURFACE('',#493,2.34999999999999);
#427=CYLINDRICAL_SURFACE('',#497,2.34999999999999);
#428=CYLINDRICAL_SURFACE('',#501,2.34999999999999);
#429=ADVANCED_FACE('',(#39),#421,.T.);
#430=ADVANCED_FACE('',(#40,#15),#21,.T.);
#431=ADVANCED_FACE('',(#41,#16),#22,.T.);
#432=ADVANCED_FACE('',(#42),#422,.T.);
#433=ADVANCED_FACE('',(#43),#23,.T.);
#434=ADVANCED_FACE('',(#44),#423,.T.);
#435=ADVANCED_FACE('',(#45),#24,.T.);
#436=ADVANCED_FACE('',(#46),#424,.T.);
#437=ADVANCED_FACE('',(#47),#25,.F.);
#438=ADVANCED_FACE('',(#48),#26,.F.);
#439=ADVANCED_FACE('',(#49),#27,.F.);
#440=ADVANCED_FACE('',(#50),#28,.T.);
#441=ADVANCED_FACE('',(#51),#425,.F.);
#442=ADVANCED_FACE('',(#52),#29,.T.);
#443=ADVANCED_FACE('',(#53),#426,.F.);
#444=ADVANCED_FACE('',(#54),#30,.T.);
#445=ADVANCED_FACE('',(#55),#427,.F.);
#446=ADVANCED_FACE('',(#56),#31,.T.);
#447=ADVANCED_FACE('',(#57),#428,.F.);
#448=ADVANCED_FACE('',(#58),#32,.T.);
#449=ADVANCED_FACE('',(#59),#33,.T.);
#450=ADVANCED_FACE('',(#60),#34,.T.);
#451=ADVANCED_FACE('',(#61),#35,.T.);
#452=ADVANCED_FACE('',(#62),#36,.T.);
#453=ADVANCED_FACE('',(#63,#17,#18,#19,#20),#37,.T.);
#454=ADVANCED_FACE('',(#64),#38,.F.);
#455=CLOSED_SHELL('',(#429,#430,#431,#432,#433,#434,#435,#436,#437,#438,
#439,#440,#441,#442,#443,#444,#445,#446,#447,#448,#449,#450,#451,#452,#453,
#454));
#456=DERIVED_UNIT_ELEMENT(#458,1.);
#457=DERIVED_UNIT_ELEMENT(#773,-3.);
#458=(
MASS_UNIT()
NAMED_UNIT(*)
SI_UNIT(.KILO.,.GRAM.)
);
#459=DERIVED_UNIT((#456,#457));
#460=MEASURE_REPRESENTATION_ITEM('density measure',
POSITIVE_RATIO_MEASURE(7850.),#459);
#461=PROPERTY_DEFINITION_REPRESENTATION(#466,#463);
#462=PROPERTY_DEFINITION_REPRESENTATION(#467,#464);
#463=REPRESENTATION('material name',(#465),#770);
#464=REPRESENTATION('density',(#460),#770);
#465=DESCRIPTIVE_REPRESENTATION_ITEM('Steel','Steel');
#466=PROPERTY_DEFINITION('material property','material name',#780);
#467=PROPERTY_DEFINITION('material property','density of part',#780);
#468=AXIS2_PLACEMENT_3D('',#641,#511,#512);
#469=AXIS2_PLACEMENT_3D('',#642,#513,#514);
#470=AXIS2_PLACEMENT_3D('',#645,#515,#516);
#471=AXIS2_PLACEMENT_3D('',#649,#518,#519);
#472=AXIS2_PLACEMENT_3D('',#651,#521,#522);
#473=AXIS2_PLACEMENT_3D('',#665,#530,#531);
#474=AXIS2_PLACEMENT_3D('',#669,#533,#534);
#475=AXIS2_PLACEMENT_3D('',#673,#536,#537);
#476=AXIS2_PLACEMENT_3D('',#676,#539,#540);
#477=AXIS2_PLACEMENT_3D('',#685,#545,#546);
#478=AXIS2_PLACEMENT_3D('',#688,#548,#549);
#479=AXIS2_PLACEMENT_3D('',#689,#550,#551);
#480=AXIS2_PLACEMENT_3D('',#693,#554,#555);
#481=AXIS2_PLACEMENT_3D('',#697,#557,#558);
#482=AXIS2_PLACEMENT_3D('',#699,#560,#561);
#483=AXIS2_PLACEMENT_3D('',#703,#564,#565);
#484=AXIS2_PLACEMENT_3D('',#704,#566,#567);
#485=AXIS2_PLACEMENT_3D('',#705,#568,#569);
#486=AXIS2_PLACEMENT_3D('',#711,#573,#574);
#487=AXIS2_PLACEMENT_3D('',#717,#578,#579);
#488=AXIS2_PLACEMENT_3D('',#719,#581,#582);
#489=AXIS2_PLACEMENT_3D('',#726,#587,#588);
#490=AXIS2_PLACEMENT_3D('',#728,#589,#590);
#491=AXIS2_PLACEMENT_3D('',#731,#592,#593);
#492=AXIS2_PLACEMENT_3D('',#732,#594,#595);
#493=AXIS2_PLACEMENT_3D('',#733,#596,#597);
#494=AXIS2_PLACEMENT_3D('',#735,#598,#599);
#495=AXIS2_PLACEMENT_3D('',#738,#601,#602);
#496=AXIS2_PLACEMENT_3D('',#739,#603,#604);
#497=AXIS2_PLACEMENT_3D('',#740,#605,#606);
#498=AXIS2_PLACEMENT_3D('',#742,#607,#608);
#499=AXIS2_PLACEMENT_3D('',#745,#610,#611);
#500=AXIS2_PLACEMENT_3D('',#746,#612,#613);
#501=AXIS2_PLACEMENT_3D('',#747,#614,#615);
#502=AXIS2_PLACEMENT_3D('',#749,#616,#617);
#503=AXIS2_PLACEMENT_3D('',#752,#619,#620);
#504=AXIS2_PLACEMENT_3D('',#753,#621,#622);
#505=AXIS2_PLACEMENT_3D('',#754,#623,#624);
#506=AXIS2_PLACEMENT_3D('',#758,#627,#628);
#507=AXIS2_PLACEMENT_3D('',#762,#631,#632);
#508=AXIS2_PLACEMENT_3D('',#764,#634,#635);
#509=AXIS2_PLACEMENT_3D('',#766,#637,#638);
#510=AXIS2_PLACEMENT_3D('',#767,#639,#640);
#511=DIRECTION('axis',(0.,0.,1.));
#512=DIRECTION('refdir',(1.,0.,0.));
#513=DIRECTION('center_axis',(0.,0.,1.));
#514=DIRECTION('ref_axis',(-0.707106781186547,0.707106781186547,0.));
#515=DIRECTION('center_axis',(0.,0.,-1.));
#516=DIRECTION('ref_axis',(-0.707106781186547,0.707106781186547,0.));
#517=DIRECTION('',(0.,0.,-1.));
#518=DIRECTION('center_axis',(0.,0.,1.));
#519=DIRECTION('ref_axis',(-0.707106781186547,0.707106781186547,0.));
#520=DIRECTION('',(0.,0.,1.));
#521=DIRECTION('center_axis',(0.,1.,0.));
#522=DIRECTION('ref_axis',(-1.,0.,0.));
#523=DIRECTION('',(-1.,0.,0.));
#524=DIRECTION('',(0.,0.,1.));
#525=DIRECTION('',(-1.,0.,0.));
#526=DIRECTION('',(0.,0.,1.));
#527=DIRECTION('',(-1.,0.,0.));
#528=DIRECTION('',(0.,0.,-1.));
#529=DIRECTION('',(1.,0.,0.));
#530=DIRECTION('center_axis',(0.,0.,1.));
#531=DIRECTION('ref_axis',(1.,0.,0.));
#532=DIRECTION('',(0.,-1.,0.));
#533=DIRECTION('center_axis',(0.,0.,-1.));
#534=DIRECTION('ref_axis',(-0.707106781186547,-0.707106781186547,0.));
#535=DIRECTION('',(1.,0.,0.));
#536=DIRECTION('center_axis',(0.,0.,-1.));
#537=DIRECTION('ref_axis',(0.707106781186547,-0.707106781186547,0.));
#538=DIRECTION('',(0.,1.,0.));
#539=DIRECTION('center_axis',(0.,0.,-1.));
#540=DIRECTION('ref_axis',(0.707106781186547,0.707106781186547,0.));
#541=DIRECTION('',(-1.,0.,0.));
#542=DIRECTION('',(0.,1.,0.));
#543=DIRECTION('',(1.,0.,0.));
#544=DIRECTION('',(0.,-1.,0.));
#545=DIRECTION('center_axis',(0.,0.,1.));
#546=DIRECTION('ref_axis',(0.707106781186547,0.707106781186547,0.));
#547=DIRECTION('',(0.,0.,-1.));
#548=DIRECTION('center_axis',(0.,0.,1.));
#549=DIRECTION('ref_axis',(0.707106781186547,0.707106781186547,0.));
#550=DIRECTION('center_axis',(1.,0.,0.));
#551=DIRECTION('ref_axis',(0.,1.,0.));
#552=DIRECTION('',(0.,0.,1.));
#553=DIRECTION('',(0.,1.,0.));
#554=DIRECTION('center_axis',(0.,0.,1.));
#555=DIRECTION('ref_axis',(-0.707106781186547,-0.707106781186547,0.));
#556=DIRECTION('',(0.,0.,-1.));
#557=DIRECTION('center_axis',(0.,0.,1.));
#558=DIRECTION('ref_axis',(-0.707106781186547,-0.707106781186547,0.));
#559=DIRECTION('',(0.,0.,1.));
#560=DIRECTION('center_axis',(0.,-1.,0.));
#561=DIRECTION('ref_axis',(1.,0.,0.));
#562=DIRECTION('',(1.,0.,0.));
#563=DIRECTION('',(0.,0.,-1.));
#564=DIRECTION('center_axis',(0.,0.,1.));
#565=DIRECTION('ref_axis',(0.707106781186547,-0.707106781186547,0.));
#566=DIRECTION('center_axis',(0.,0.,1.));
#567=DIRECTION('ref_axis',(0.707106781186547,-0.707106781186547,0.));
#568=DIRECTION('center_axis',(-1.,0.,0.));
#569=DIRECTION('ref_axis',(0.,0.,1.));
#570=DIRECTION('',(0.,1.,0.));
#571=DIRECTION('',(0.,0.,1.));
#572=DIRECTION('',(0.,1.,0.));
#573=DIRECTION('center_axis',(1.,0.,0.));
#574=DIRECTION('ref_axis',(0.,0.,-1.));
#575=DIRECTION('',(0.,1.,0.));
#576=DIRECTION('',(0.,0.,-1.));
#577=DIRECTION('',(0.,1.,0.));
#578=DIRECTION('center_axis',(0.,0.,1.));
#579=DIRECTION('ref_axis',(1.,0.,0.));
#580=DIRECTION('',(1.,0.,0.));
#581=DIRECTION('center_axis',(0.,-1.,0.));
#582=DIRECTION('ref_axis',(1.,0.,0.));
#583=DIRECTION('',(-1.,0.,0.));
#584=DIRECTION('',(0.,0.,1.));
#585=DIRECTION('',(0.,0.,1.));
#586=DIRECTION('',(-1.,0.,0.));
#587=DIRECTION('center_axis',(0.,0.,-1.));
#588=DIRECTION('ref_axis',(-1.,0.,0.));
#589=DIRECTION('center_axis',(0.,0.,-1.));
#590=DIRECTION('ref_axis',(-1.,0.,0.));
#591=DIRECTION('',(0.,0.,-1.));
#592=DIRECTION('center_axis',(0.,0.,-1.));
#593=DIRECTION('ref_axis',(-1.,0.,0.));
#594=DIRECTION('center_axis',(0.,0.,1.));
#595=DIRECTION('ref_axis',(-1.,0.,0.));
#596=DIRECTION('center_axis',(0.,0.,-1.));
#597=DIRECTION('ref_axis',(-1.,0.,0.));
#598=DIRECTION('center_axis',(0.,0.,-1.));
#599=DIRECTION('ref_axis',(-1.,0.,0.));
#600=DIRECTION('',(0.,0.,-1.));
#601=DIRECTION('center_axis',(0.,0.,-1.));
#602=DIRECTION('ref_axis',(-1.,0.,0.));
#603=DIRECTION('center_axis',(0.,0.,1.));
#604=DIRECTION('ref_axis',(-1.,0.,0.));
#605=DIRECTION('center_axis',(0.,0.,-1.));
#606=DIRECTION('ref_axis',(-1.,0.,0.));
#607=DIRECTION('center_axis',(0.,0.,-1.));
#608=DIRECTION('ref_axis',(-1.,0.,0.));
#609=DIRECTION('',(0.,0.,-1.));
#610=DIRECTION('center_axis',(0.,0.,-1.));
#611=DIRECTION('ref_axis',(-1.,0.,0.));
#612=DIRECTION('center_axis',(0.,0.,1.));
#613=DIRECTION('ref_axis',(-1.,0.,0.));
#614=DIRECTION('center_axis',(0.,0.,-1.));
#615=DIRECTION('ref_axis',(-1.,0.,0.));
#616=DIRECTION('center_axis',(0.,0.,-1.));
#617=DIRECTION('ref_axis',(-1.,0.,0.));
#618=DIRECTION('',(0.,0.,-1.));
#619=DIRECTION('center_axis',(0.,0.,-1.));
#620=DIRECTION('ref_axis',(-1.,0.,0.));
#621=DIRECTION('center_axis',(0.,0.,1.));
#622=DIRECTION('ref_axis',(-1.,0.,0.));
#623=DIRECTION('center_axis',(-1.,0.,0.));
#624=DIRECTION('ref_axis',(0.,-1.,0.));
#625=DIRECTION('',(0.,1.,0.));
#626=DIRECTION('',(0.,0.,1.));
#627=DIRECTION('center_axis',(1.,0.,0.));
#628=DIRECTION('ref_axis',(0.,1.,0.));
#629=DIRECTION('',(0.,-1.,0.));
#630=DIRECTION('',(0.,0.,1.));
#631=DIRECTION('center_axis',(0.,1.,0.));
#632=DIRECTION('ref_axis',(-1.,0.,0.));
#633=DIRECTION('',(1.,0.,0.));
#634=DIRECTION('center_axis',(-1.,0.,0.));
#635=DIRECTION('ref_axis',(0.,-1.,0.));
#636=DIRECTION('',(0.,-1.,0.));
#637=DIRECTION('center_axis',(0.,0.,1.));
#638=DIRECTION('ref_axis',(1.,0.,0.));
#639=DIRECTION('center_axis',(0.,0.,1.));
#640=DIRECTION('ref_axis',(1.,0.,0.));
#641=CARTESIAN_POINT('',(0.,0.,0.));
#642=CARTESIAN_POINT('Origin',(-200.,50.,0.));
#643=CARTESIAN_POINT('',(-205.,50.,15.));
#644=CARTESIAN_POINT('',(-200.,55.,15.));
#645=CARTESIAN_POINT('Origin',(-200.,50.,15.));
#646=CARTESIAN_POINT('',(-200.,55.,0.));
#647=CARTESIAN_POINT('',(-200.,55.,0.));
#648=CARTESIAN_POINT('',(-205.,50.,0.));
#649=CARTESIAN_POINT('Origin',(-200.,50.,0.));
#650=CARTESIAN_POINT('',(-205.,50.,0.));
#651=CARTESIAN_POINT('Origin',(-104.6,55.,0.));
#652=CARTESIAN_POINT('',(-109.6,55.,15.));
#653=CARTESIAN_POINT('',(-104.6,55.,15.));
#654=CARTESIAN_POINT('',(-109.6,55.,0.));
#655=CARTESIAN_POINT('',(-109.6,55.,0.));
#656=CARTESIAN_POINT('',(-104.6,55.,0.));
#657=CARTESIAN_POINT('',(-113.000001683831,55.,5.00000007450581));
#658=CARTESIAN_POINT('',(-113.000001683831,55.,10.0000001490116));
#659=CARTESIAN_POINT('',(-113.000001683831,55.,5.00000007450581));
#660=CARTESIAN_POINT('',(-127.000001892447,55.,10.0000001490116));
#661=CARTESIAN_POINT('',(-115.800000946224,55.,10.0000001490116));
#662=CARTESIAN_POINT('',(-127.000001892447,55.,5.00000007450581));
#663=CARTESIAN_POINT('',(-127.000001892447,55.,2.5000000372529));
#664=CARTESIAN_POINT('',(-108.800000841916,55.,5.00000007450581));
#665=CARTESIAN_POINT('Origin',(-154.8,9.8,15.));
#666=CARTESIAN_POINT('',(-205.,-30.4,15.));
#667=CARTESIAN_POINT('',(-205.,55.,15.));
#668=CARTESIAN_POINT('',(-200.,-35.4,15.));
#669=CARTESIAN_POINT('Origin',(-200.,-30.4,15.));
#670=CARTESIAN_POINT('',(-109.6,-35.4,15.));
#671=CARTESIAN_POINT('',(-205.,-35.4,15.));
#672=CARTESIAN_POINT('',(-104.6,-30.4,15.));
#673=CARTESIAN_POINT('Origin',(-109.6,-30.4,15.));
#674=CARTESIAN_POINT('',(-104.6,50.,15.));
#675=CARTESIAN_POINT('',(-104.6,-35.4,15.));
#676=CARTESIAN_POINT('Origin',(-109.6,50.,15.));
#677=CARTESIAN_POINT('',(-109.6,-30.4,15.));
#678=CARTESIAN_POINT('',(-200.,-30.4,15.));
#679=CARTESIAN_POINT('',(-109.6,-30.4,15.));
#680=CARTESIAN_POINT('',(-200.,50.,15.));
#681=CARTESIAN_POINT('',(-200.,-30.4,15.));
#682=CARTESIAN_POINT('',(-109.6,50.,15.));
#683=CARTESIAN_POINT('',(-200.,50.,15.));
#684=CARTESIAN_POINT('',(-109.6,50.,15.));
#685=CARTESIAN_POINT('Origin',(-109.6,50.,0.));
#686=CARTESIAN_POINT('',(-104.6,50.,0.));
#687=CARTESIAN_POINT('',(-104.6,50.,0.));
#688=CARTESIAN_POINT('Origin',(-109.6,50.,0.));
#689=CARTESIAN_POINT('Origin',(-104.6,-35.4,0.));
#690=CARTESIAN_POINT('',(-104.6,-30.4,0.));
#691=CARTESIAN_POINT('',(-104.6,-30.4,0.));
#692=CARTESIAN_POINT('',(-104.6,-35.4,0.));
#693=CARTESIAN_POINT('Origin',(-200.,-30.4,0.));
#694=CARTESIAN_POINT('',(-205.,-30.4,0.));
#695=CARTESIAN_POINT('',(-205.,-30.4,0.));
#696=CARTESIAN_POINT('',(-200.,-35.4,0.));
#697=CARTESIAN_POINT('Origin',(-200.,-30.4,0.));
#698=CARTESIAN_POINT('',(-200.,-35.4,0.));
#699=CARTESIAN_POINT('Origin',(-205.,-35.4,0.));
#700=CARTESIAN_POINT('',(-109.6,-35.4,0.));
#701=CARTESIAN_POINT('',(-205.,-35.4,0.));
#702=CARTESIAN_POINT('',(-109.6,-35.4,0.));
#703=CARTESIAN_POINT('Origin',(-109.6,-30.4,0.));
#704=CARTESIAN_POINT('Origin',(-109.6,-30.4,0.));
#705=CARTESIAN_POINT('Origin',(-127.000001892447,50.,5.00000007450581));
#706=CARTESIAN_POINT('',(-127.000001892447,50.,10.0000001490116));
#707=CARTESIAN_POINT('',(-127.000001892447,50.,10.0000001490116));
#708=CARTESIAN_POINT('',(-127.000001892447,50.,5.00000007450581));
#709=CARTESIAN_POINT('',(-127.000001892447,50.,2.5000000372529));
#710=CARTESIAN_POINT('',(-127.000001892447,50.,5.00000007450581));
#711=CARTESIAN_POINT('Origin',(-113.000001683831,50.,10.0000001490116));
#712=CARTESIAN_POINT('',(-113.000001683831,50.,5.00000007450581));
#713=CARTESIAN_POINT('',(-113.000001683831,50.,5.00000007450581));
#714=CARTESIAN_POINT('',(-113.000001683831,50.,10.0000001490116));
#715=CARTESIAN_POINT('',(-113.000001683831,50.,5.00000007450581));
#716=CARTESIAN_POINT('',(-113.000001683831,50.,10.0000001490116));
#717=CARTESIAN_POINT('Origin',(-127.000001892447,50.,10.0000001490116));
#718=CARTESIAN_POINT('',(-163.500000946224,50.,10.0000001490116));
#719=CARTESIAN_POINT('Origin',(-200.,50.,0.));
#720=CARTESIAN_POINT('',(-109.6,50.,5.));
#721=CARTESIAN_POINT('',(-177.4,50.,5.));
#722=CARTESIAN_POINT('',(-109.6,50.,0.));
#723=CARTESIAN_POINT('',(-200.,50.,5.));
#724=CARTESIAN_POINT('',(-200.,50.,0.));
#725=CARTESIAN_POINT('',(-177.4,50.,5.));
#726=CARTESIAN_POINT('Origin',(-196.960002980232,43.0000006407499,5.));
#727=CARTESIAN_POINT('',(-194.610002980232,43.0000006407499,5.));
#728=CARTESIAN_POINT('Origin',(-196.960002980232,43.0000006407499,5.));
#729=CARTESIAN_POINT('',(-194.610002980232,43.0000006407499,1.));
#730=CARTESIAN_POINT('',(-194.610002980232,43.0000006407499,5.));
#731=CARTESIAN_POINT('Origin',(-196.960002980232,43.0000006407499,1.));
#732=CARTESIAN_POINT('Origin',(-196.960002980232,43.0000006407499,1.));
#733=CARTESIAN_POINT('Origin',(-196.960002980232,-22.9999994039536,5.));
#734=CARTESIAN_POINT('',(-194.610002980232,-22.9999994039536,5.));
#735=CARTESIAN_POINT('Origin',(-196.960002980232,-22.9999994039536,5.));
#736=CARTESIAN_POINT('',(-194.610002980232,-22.9999994039536,1.));
#737=CARTESIAN_POINT('',(-194.610002980232,-22.9999994039536,5.));
#738=CARTESIAN_POINT('Origin',(-196.960002980232,-22.9999994039536,1.));
#739=CARTESIAN_POINT('Origin',(-196.960002980232,-22.9999994039536,1.));
#740=CARTESIAN_POINT('Origin',(-115.000002980232,14.0000005960465,5.));
#741=CARTESIAN_POINT('',(-112.650002980232,14.0000005960465,5.));
#742=CARTESIAN_POINT('Origin',(-115.000002980232,14.0000005960465,5.));
#743=CARTESIAN_POINT('',(-112.650002980232,14.0000005960465,1.));
#744=CARTESIAN_POINT('',(-112.650002980232,14.0000005960465,5.));
#745=CARTESIAN_POINT('Origin',(-115.000002980232,14.0000005960465,1.));
#746=CARTESIAN_POINT('Origin',(-115.000002980232,14.0000005960465,1.));
#747=CARTESIAN_POINT('Origin',(-115.000002980232,-22.9999994039536,5.));
#748=CARTESIAN_POINT('',(-112.650002980232,-22.9999994039536,5.));
#749=CARTESIAN_POINT('Origin',(-115.000002980232,-22.9999994039536,5.));
#750=CARTESIAN_POINT('',(-112.650002980232,-22.9999994039536,1.));
#751=CARTESIAN_POINT('',(-112.650002980232,-22.9999994039536,5.));
#752=CARTESIAN_POINT('Origin',(-115.000002980232,-22.9999994039536,1.));
#753=CARTESIAN_POINT('Origin',(-115.000002980232,-22.9999994039536,1.));
#754=CARTESIAN_POINT('Origin',(-109.6,50.,0.));
#755=CARTESIAN_POINT('',(-109.6,-30.4,5.));
#756=CARTESIAN_POINT('',(-109.6,29.9,5.));
#757=CARTESIAN_POINT('',(-109.6,-30.4,0.));
#758=CARTESIAN_POINT('Origin',(-200.,-30.4,0.));
#759=CARTESIAN_POINT('',(-200.,-30.4,5.));
#760=CARTESIAN_POINT('',(-200.,-10.3,5.));
#761=CARTESIAN_POINT('',(-200.,-30.4,0.));
#762=CARTESIAN_POINT('Origin',(-109.6,-30.4,0.));
#763=CARTESIAN_POINT('',(-132.2,-30.4,5.));
#764=CARTESIAN_POINT('Origin',(-205.,55.,0.));
#765=CARTESIAN_POINT('',(-205.,55.,0.));
#766=CARTESIAN_POINT('Origin',(-154.8,9.8,5.));
#767=CARTESIAN_POINT('Origin',(-154.8,9.8,0.));
#768=UNCERTAINTY_MEASURE_WITH_UNIT(LENGTH_MEASURE(0.01),#772,
'DISTANCE_ACCURACY_VALUE',
'Maximum model space distance between geometric entities at asserted c
onnectivities');
#769=UNCERTAINTY_MEASURE_WITH_UNIT(LENGTH_MEASURE(0.01),#772,
'DISTANCE_ACCURACY_VALUE',
'Maximum model space distance between geometric entities at asserted c
onnectivities');
#770=(
GEOMETRIC_REPRESENTATION_CONTEXT(3)
GLOBAL_UNCERTAINTY_ASSIGNED_CONTEXT((#768))
GLOBAL_UNIT_ASSIGNED_CONTEXT((#772,#774,#775))
REPRESENTATION_CONTEXT('','3D')
);
#771=(
GEOMETRIC_REPRESENTATION_CONTEXT(3)
GLOBAL_UNCERTAINTY_ASSIGNED_CONTEXT((#769))
GLOBAL_UNIT_ASSIGNED_CONTEXT((#772,#774,#775))
REPRESENTATION_CONTEXT('','3D')
);
#772=(
LENGTH_UNIT()
NAMED_UNIT(*)
SI_UNIT(.MILLI.,.METRE.)
);
#773=(
LENGTH_UNIT()
NAMED_UNIT(*)
SI_UNIT($,.METRE.)
);
#774=(
NAMED_UNIT(*)
PLANE_ANGLE_UNIT()
SI_UNIT($,.RADIAN.)
);
#775=(
NAMED_UNIT(*)
SI_UNIT($,.STERADIAN.)
SOLID_ANGLE_UNIT()
);
#776=SHAPE_DEFINITION_REPRESENTATION(#777,#778);
#777=PRODUCT_DEFINITION_SHAPE('',$,#780);
#778=SHAPE_REPRESENTATION('',(#468),#770);
#779=PRODUCT_DEFINITION_CONTEXT('part definition',#784,'design');
#780=PRODUCT_DEFINITION('Bottom','Bottom',#781,#779);
#781=PRODUCT_DEFINITION_FORMATION('',$,#786);
#782=PRODUCT_RELATED_PRODUCT_CATEGORY('Bottom','Bottom',(#786));
#783=APPLICATION_PROTOCOL_DEFINITION('international standard',
'automotive_design',2009,#784);
#784=APPLICATION_CONTEXT(
'Core Data for Automotive Mechanical Design Process');
#785=PRODUCT_CONTEXT('part definition',#784,'mechanical');
#786=PRODUCT('Bottom','Bottom',$,(#785));
#787=PRESENTATION_STYLE_ASSIGNMENT((#788));
#788=SURFACE_STYLE_USAGE(.BOTH.,#789);
#789=SURFACE_SIDE_STYLE('',(#790));
#790=SURFACE_STYLE_FILL_AREA(#791);
#791=FILL_AREA_STYLE('Steel - Satin',(#792));
#792=FILL_AREA_STYLE_COLOUR('Steel - Satin',#793);
#793=COLOUR_RGB('Steel - Satin',0.627450980392157,0.627450980392157,0.627450980392157);
ENDSEC;
END-ISO-10303-21;
