G04 #@! TF.GenerationSoftware,KiCad,Pcbnew,10.0.0*
G04 #@! TF.CreationDate,2026-07-01T03:19:32+09:00*
G04 #@! TF.ProjectId,macropad,6d616372-6f70-4616-942e-6b696361645f,rev?*
G04 #@! TF.SameCoordinates,Original*
G04 #@! TF.FileFunction,OtherDrawing,Comment*
%FSLAX46Y46*%
G04 Gerber Fmt 4.6, Leading zero omitted, Abs format (unit mm)*
G04 Created by KiCad (PCBNEW 10.0.0) date 2026-07-01 03:19:32*
%MOMM*%
%LPD*%
G01*
G04 APERTURE LIST*
%ADD10C,0.150000*%
G04 #@! TA.AperFunction,Profile*
%ADD11C,0.050000*%
G04 #@! TD*
G04 APERTURE END LIST*
D10*
X66925000Y-51855000D02*
X85975000Y-51855000D01*
X66925000Y-70905000D02*
X66925000Y-51855000D01*
X85975000Y-51855000D02*
X85975000Y-70905000D01*
X85975000Y-70905000D02*
X66925000Y-70905000D01*
X66925000Y-71035000D02*
X85975000Y-71035000D01*
X66925000Y-90085000D02*
X66925000Y-71035000D01*
X85975000Y-71035000D02*
X85975000Y-90085000D01*
X85975000Y-90085000D02*
X66925000Y-90085000D01*
X28905000Y-90135000D02*
X47955000Y-90135000D01*
X28905000Y-109185000D02*
X28905000Y-90135000D01*
X47955000Y-90135000D02*
X47955000Y-109185000D01*
X47955000Y-109185000D02*
X28905000Y-109185000D01*
X47940000Y-70995000D02*
X66990000Y-70995000D01*
X47940000Y-90045000D02*
X47940000Y-70995000D01*
X66990000Y-70995000D02*
X66990000Y-90045000D01*
X66990000Y-90045000D02*
X47940000Y-90045000D01*
X28905000Y-51920000D02*
X47955000Y-51920000D01*
X28905000Y-70970000D02*
X28905000Y-51920000D01*
X47955000Y-51920000D02*
X47955000Y-70970000D01*
X47955000Y-70970000D02*
X28905000Y-70970000D01*
X47940000Y-51935000D02*
X66990000Y-51935000D01*
X47940000Y-70985000D02*
X47940000Y-51935000D01*
X66990000Y-51935000D02*
X66990000Y-70985000D01*
X66990000Y-70985000D02*
X47940000Y-70985000D01*
X47940000Y-90135000D02*
X66990000Y-90135000D01*
X47940000Y-109185000D02*
X47940000Y-90135000D01*
X66990000Y-90135000D02*
X66990000Y-109185000D01*
X66990000Y-109185000D02*
X47940000Y-109185000D01*
X66925000Y-90135000D02*
X85975000Y-90135000D01*
X66925000Y-109185000D02*
X66925000Y-90135000D01*
X85975000Y-90135000D02*
X85975000Y-109185000D01*
X85975000Y-109185000D02*
X66925000Y-109185000D01*
X28905000Y-71035000D02*
X47955000Y-71035000D01*
X28905000Y-90085000D02*
X28905000Y-71035000D01*
X47955000Y-71035000D02*
X47955000Y-90085000D01*
X47955000Y-90085000D02*
X28905000Y-90085000D01*
D11*
X22905000Y-36905000D02*
X22905000Y-108905000D01*
X22905000Y-36905000D02*
G75*
G02*
X26905000Y-32905000I4000000J0D01*
G01*
X26905000Y-32905000D02*
X108405000Y-32905000D01*
X26905000Y-112905000D02*
G75*
G02*
X22905000Y-108905000I0J4000000D01*
G01*
X26905000Y-112905000D02*
X108405000Y-112905000D01*
X108405000Y-32905000D02*
G75*
G02*
X112405000Y-36905000I0J-4000000D01*
G01*
X112405000Y-36905000D02*
X112405000Y-108905000D01*
X112405000Y-108905000D02*
G75*
G02*
X108405000Y-112905000I-4000000J0D01*
G01*
M02*
