G04 #@! TF.GenerationSoftware,KiCad,Pcbnew,10.0.0*
G04 #@! TF.CreationDate,2026-07-01T03:19:32+09:00*
G04 #@! TF.ProjectId,macropad,6d616372-6f70-4616-942e-6b696361645f,rev?*
G04 #@! TF.SameCoordinates,Original*
G04 #@! TF.FileFunction,Copper,L2,Bot*
G04 #@! TF.FilePolarity,Positive*
%FSLAX46Y46*%
G04 Gerber Fmt 4.6, Leading zero omitted, Abs format (unit mm)*
G04 Created by KiCad (PCBNEW 10.0.0) date 2026-07-01 03:19:32*
%MOMM*%
%LPD*%
G01*
G04 APERTURE LIST*
G04 Aperture macros list*
%AMRoundRect*
0 Rectangle with rounded corners*
0 $1 Rounding radius*
0 $2 $3 $4 $5 $6 $7 $8 $9 X,Y pos of 4 corners*
0 Add a 4 corners polygon primitive as box body*
4,1,4,$2,$3,$4,$5,$6,$7,$8,$9,$2,$3,0*
0 Add four circle primitives for the rounded corners*
1,1,$1+$1,$2,$3*
1,1,$1+$1,$4,$5*
1,1,$1+$1,$6,$7*
1,1,$1+$1,$8,$9*
0 Add four rect primitives between the rounded corners*
20,1,$1+$1,$2,$3,$4,$5,0*
20,1,$1+$1,$4,$5,$6,$7,0*
20,1,$1+$1,$6,$7,$8,$9,0*
20,1,$1+$1,$8,$9,$2,$3,0*%
G04 Aperture macros list end*
G04 #@! TA.AperFunction,ComponentPad*
%ADD10C,2.200000*%
G04 #@! TD*
G04 #@! TA.AperFunction,ComponentPad*
%ADD11RoundRect,0.250000X0.550000X-0.550000X0.550000X0.550000X-0.550000X0.550000X-0.550000X-0.550000X0*%
G04 #@! TD*
G04 #@! TA.AperFunction,ComponentPad*
%ADD12C,1.600000*%
G04 #@! TD*
G04 #@! TA.AperFunction,ComponentPad*
%ADD13R,3.500000X1.700000*%
G04 #@! TD*
G04 #@! TA.AperFunction,ComponentPad*
%ADD14O,3.600000X1.700000*%
G04 #@! TD*
G04 #@! TA.AperFunction,ComponentPad*
%ADD15O,3.700000X1.700000*%
G04 #@! TD*
G04 #@! TA.AperFunction,ComponentPad*
%ADD16C,2.000000*%
G04 #@! TD*
G04 #@! TA.AperFunction,ComponentPad*
%ADD17R,3.200000X2.000000*%
G04 #@! TD*
G04 #@! TA.AperFunction,ComponentPad*
%ADD18R,2.000000X2.000000*%
G04 #@! TD*
G04 #@! TA.AperFunction,ComponentPad*
%ADD19R,1.700000X1.700000*%
G04 #@! TD*
G04 #@! TA.AperFunction,ComponentPad*
%ADD20O,1.700000X1.700000*%
G04 #@! TD*
G04 #@! TA.AperFunction,ViaPad*
%ADD21C,0.600000*%
G04 #@! TD*
G04 #@! TA.AperFunction,Conductor*
%ADD22C,0.200000*%
G04 #@! TD*
G04 #@! TA.AperFunction,Profile*
%ADD23C,0.050000*%
G04 #@! TD*
G04 APERTURE END LIST*
D10*
X78990000Y-56300000D03*
X72640000Y-58840000D03*
X78990000Y-75480000D03*
X72640000Y-78020000D03*
X40970000Y-94580000D03*
X34620000Y-97120000D03*
X60005000Y-75440000D03*
X53655000Y-77980000D03*
X40970000Y-56365000D03*
X34620000Y-58905000D03*
X60005000Y-56380000D03*
X53655000Y-58920000D03*
D11*
X66205000Y-103820000D03*
D12*
X66205000Y-96200000D03*
D11*
X46805000Y-65820000D03*
D12*
X46805000Y-58200000D03*
D13*
X91055000Y-36500000D03*
D14*
X91055000Y-39040000D03*
X91055000Y-41580000D03*
X91055000Y-44120000D03*
X91055000Y-46660000D03*
X91055000Y-49200000D03*
X91055000Y-51740000D03*
X108305000Y-51740000D03*
X108305000Y-49200000D03*
X108305000Y-46660000D03*
D15*
X108305000Y-44120000D03*
X108305000Y-41580000D03*
X108305000Y-39040000D03*
X108305000Y-36500000D03*
D11*
X85105000Y-103820000D03*
D12*
X85105000Y-96200000D03*
D10*
X60005000Y-94580000D03*
X53655000Y-97120000D03*
D11*
X65705000Y-65820000D03*
D12*
X65705000Y-58200000D03*
D11*
X46805000Y-84920000D03*
D12*
X46805000Y-77300000D03*
D16*
X45405000Y-44458000D03*
X45405000Y-39458000D03*
D17*
X38405000Y-47558000D03*
X38405000Y-36358000D03*
D16*
X30905000Y-44458000D03*
X30905000Y-41958000D03*
D18*
X30905000Y-39458000D03*
D11*
X84905000Y-84920000D03*
D12*
X84905000Y-77300000D03*
D11*
X65805000Y-84920000D03*
D12*
X65805000Y-77300000D03*
D11*
X46905000Y-103820000D03*
D12*
X46905000Y-96200000D03*
D19*
X52455000Y-37088000D03*
D20*
X52455000Y-39628000D03*
X52455000Y-42168000D03*
X52455000Y-44708000D03*
D10*
X78990000Y-94580000D03*
X72640000Y-97120000D03*
D11*
X84805000Y-65820000D03*
D12*
X84805000Y-58200000D03*
D10*
X40970000Y-75480000D03*
X34620000Y-78020000D03*
D21*
X50005000Y-42220000D03*
D22*
X84165000Y-58840000D02*
X84805000Y-58200000D01*
X72640000Y-58840000D02*
X84165000Y-58840000D01*
X72640000Y-78020000D02*
X84185000Y-78020000D01*
X84185000Y-78020000D02*
X84905000Y-77300000D01*
X45985000Y-97120000D02*
X46905000Y-96200000D01*
X34620000Y-97120000D02*
X45985000Y-97120000D01*
X53655000Y-77980000D02*
X65125000Y-77980000D01*
X65125000Y-77980000D02*
X65805000Y-77300000D01*
X45900000Y-58905000D02*
X46605000Y-58200000D01*
X34620000Y-58905000D02*
X45900000Y-58905000D01*
X64985000Y-58920000D02*
X65705000Y-58200000D01*
X53655000Y-58920000D02*
X64985000Y-58920000D01*
X92055000Y-51740000D02*
X92055000Y-96870000D01*
X85105000Y-103820000D02*
X46905000Y-103820000D01*
X92055000Y-96870000D02*
X85105000Y-103820000D01*
X53655000Y-97120000D02*
X65285000Y-97120000D01*
X65285000Y-97120000D02*
X66205000Y-96200000D01*
X84805000Y-65820000D02*
X46605000Y-65820000D01*
X85905000Y-51420000D02*
X85905000Y-64720000D01*
X92055000Y-46660000D02*
X90665000Y-46660000D01*
X90665000Y-46660000D02*
X85905000Y-51420000D01*
X85905000Y-64720000D02*
X84805000Y-65820000D01*
X91018654Y-49200000D02*
X86305000Y-53913654D01*
X84905000Y-84920000D02*
X46805000Y-84920000D01*
X86305000Y-83520000D02*
X84905000Y-84920000D01*
X86305000Y-53913654D02*
X86305000Y-83520000D01*
X92055000Y-49200000D02*
X91018654Y-49200000D01*
X89868654Y-45270000D02*
X101075000Y-45270000D01*
X35130654Y-46183654D02*
X88955000Y-46183654D01*
X88955000Y-46183654D02*
X89868654Y-45270000D01*
X101075000Y-45270000D02*
X107305000Y-39040000D01*
X42905000Y-41958000D02*
X30905000Y-41958000D01*
X50005000Y-42220000D02*
X48167000Y-42220000D01*
X45405000Y-39458000D02*
X42905000Y-41958000D01*
X30905000Y-41958000D02*
X35130654Y-46183654D01*
X48167000Y-42220000D02*
X45405000Y-39458000D01*
X84185000Y-97120000D02*
X85105000Y-96200000D01*
X72640000Y-97120000D02*
X84185000Y-97120000D01*
X46085000Y-78020000D02*
X46805000Y-77300000D01*
X34620000Y-78020000D02*
X46085000Y-78020000D01*
D23*
X22905000Y-36905000D02*
X22905000Y-108905000D01*
X22905000Y-36905000D02*
G75*
G02*
X26905000Y-32905000I4000000J0D01*
G01*
X26905000Y-32905000D02*
X108405000Y-32905000D01*
X26905000Y-112905000D02*
G75*
G02*
X22905000Y-108905000I0J4000000D01*
G01*
X26905000Y-112905000D02*
X108405000Y-112905000D01*
X108405000Y-32905000D02*
G75*
G02*
X112405000Y-36905000I0J-4000000D01*
G01*
X112405000Y-36905000D02*
X112405000Y-108905000D01*
X112405000Y-108905000D02*
G75*
G02*
X108405000Y-112905000I-4000000J0D01*
G01*
M02*
