M48
; DRILL file KiCad 10.0.0 date 2026-07-01T03:20:24
; FORMAT={-:-/ absolute / metric / decimal}
; #@! TF.CreationDate,2026-07-01T03:20:24+09:00
; #@! TF.GenerationSoftware,Kicad,Pcbnew,10.0.0
; #@! TF.FileFunction,NonPlated,1,2,NPTH
FMAT,2
METRIC
; #@! TA.AperFunction,NonPlated,NPTH,ComponentDrill
T1C1.700
; #@! TA.AperFunction,NonPlated,NPTH,ComponentDrill
T2C3.200
; #@! TA.AperFunction,NonPlated,NPTH,ComponentDrill
T3C4.000
%
G90
G05
T1
X33.35Y-61.445
X33.35Y-80.56
X33.35Y-99.66
X43.51Y-61.445
X43.51Y-80.56
X43.51Y-99.66
X52.385Y-61.46
X52.385Y-80.52
X52.385Y-99.66
X62.545Y-61.46
X62.545Y-80.52
X62.545Y-99.66
X71.37Y-61.38
X71.37Y-80.56
X71.37Y-99.66
X81.53Y-61.38
X81.53Y-80.56
X81.53Y-99.66
T2
X25.905Y-39.905
X25.905Y-105.905
X107.905Y-68.905
X107.905Y-105.905
T3
X38.43Y-61.445
X38.43Y-80.56
X38.43Y-99.66
X57.465Y-61.46
X57.465Y-80.52
X57.465Y-99.66
X76.45Y-61.38
X76.45Y-80.56
X76.45Y-99.66
M30
