M48
; DRILL file KiCad 10.0.0 date 2026-07-01T03:20:24
; FORMAT={-:-/ absolute / metric / decimal}
; #@! TF.CreationDate,2026-07-01T03:20:24+09:00
; #@! TF.GenerationSoftware,Kicad,Pcbnew,10.0.0
; #@! TF.FileFunction,Plated,1,2,PTH
FMAT,2
METRIC
; #@! TA.AperFunction,Plated,PTH,ViaDrill
T1C0.300
; #@! TA.AperFunction,Plated,PTH,ComponentDrill
T2C0.800
; #@! TA.AperFunction,Plated,PTH,ComponentDrill
T3C1.000
; #@! TA.AperFunction,Plated,PTH,ComponentDrill
T4C1.500
%
G90
G05
T1
X50.005Y-42.22
T2
X46.805Y-58.2
X46.805Y-65.82
X46.805Y-77.3
X46.805Y-84.92
X46.905Y-96.2
X46.905Y-103.82
X65.705Y-58.2
X65.705Y-65.82
X65.805Y-77.3
X65.805Y-84.92
X66.205Y-96.2
X66.205Y-103.82
X84.805Y-58.2
X84.805Y-65.82
X84.905Y-77.3
X84.905Y-84.92
X85.105Y-96.2
X85.105Y-103.82
T3
X30.905Y-39.458
X30.905Y-41.958
X30.905Y-44.458
X45.405Y-39.458
X45.405Y-44.458
X52.455Y-37.088
X52.455Y-39.628
X52.455Y-42.168
X52.455Y-44.708
X92.055Y-36.5
X92.055Y-39.04
X92.055Y-41.58
X92.055Y-44.12
X92.055Y-46.66
X92.055Y-49.2
X92.055Y-51.74
X107.305Y-36.5
X107.305Y-39.04
X107.305Y-41.58
X107.305Y-44.12
X107.305Y-46.66
X107.305Y-49.2
X107.305Y-51.74
T4
X34.62Y-58.905
X34.62Y-78.02
X34.62Y-97.12
X40.97Y-56.365
X40.97Y-75.48
X40.97Y-94.58
X53.655Y-58.92
X53.655Y-77.98
X53.655Y-97.12
X60.005Y-56.38
X60.005Y-75.44
X60.005Y-94.58
X72.64Y-58.84
X72.64Y-78.02
X72.64Y-97.12
X78.99Y-56.3
X78.99Y-75.48
X78.99Y-94.58
T4
G00X37.755Y-36.358
M15
G01X39.055Y-36.358
M16
G05
G00X37.755Y-47.558
M15
G01X39.055Y-47.558
M16
G05
M30
