ISO-10303-21;
HEADER;
/* Generated by software containing ST-Developer
 * from STEP Tools, Inc. (www.steptools.com) 
 */

FILE_DESCRIPTION(
/* description */ (''),
/* implementation_level */ '2;1');

FILE_NAME(
/* name */ 'Bottom.step',
/* time_stamp */ '2026-07-10T23:46:13+09:00',
/* author */ (''),
/* organization */ (''),
/* preprocessor_version */ 'ST-DEVELOPER v20.1',
/* originating_system */ 'Autodesk Translation Framework v15.8.0.0',
/* authorisation */ '');

FILE_SCHEMA (('AUTOMOTIVE_DESIGN { 1 0 10303 214 3 1 1 }'));
ENDSEC;

DATA;
#10=MECHANICAL_DESIGN_GEOMETRIC_PRESENTATION_REPRESENTATION('',(#13),#1031);
#11=SHAPE_REPRESENTATION_RELATIONSHIP('SRR','None',#1038,#12);
#12=ADVANCED_BREP_SHAPE_REPRESENTATION('',(#14),#1030);
#13=STYLED_ITEM('',(#1047),#14);
#14=MANIFOLD_SOLID_BREP('Body1',#619);
#15=CYLINDRICAL_SURFACE('',#663,5.);
#16=CYLINDRICAL_SURFACE('',#664,5.);
#17=CYLINDRICAL_SURFACE('',#666,5.);
#18=CYLINDRICAL_SURFACE('',#668,5.);
#19=CYLINDRICAL_SURFACE('',#669,2.34999999999999);
#20=CYLINDRICAL_SURFACE('',#672,2.34999999999999);
#21=CYLINDRICAL_SURFACE('',#675,2.34999999999999);
#22=CYLINDRICAL_SURFACE('',#678,2.34999999999999);
#23=FACE_BOUND('',#85,.T.);
#24=FACE_BOUND('',#86,.T.);
#25=FACE_BOUND('',#87,.T.);
#26=FACE_BOUND('',#88,.T.);
#27=CIRCLE('',#641,2.34999999999999);
#28=CIRCLE('',#642,2.34999999999999);
#29=CIRCLE('',#643,2.34999999999999);
#30=CIRCLE('',#644,2.34999999999999);
#31=CIRCLE('',#646,5.);
#32=CIRCLE('',#647,5.);
#33=CIRCLE('',#648,5.);
#34=CIRCLE('',#649,5.);
#35=CIRCLE('',#657,5.);
#36=CIRCLE('',#658,5.);
#37=CIRCLE('',#659,5.);
#38=CIRCLE('',#660,5.);
#39=CIRCLE('',#670,2.34999999999999);
#40=CIRCLE('',#673,2.34999999999999);
#41=CIRCLE('',#676,2.34999999999999);
#42=CIRCLE('',#679,2.34999999999999);
#43=FACE_OUTER_BOUND('',#77,.T.);
#44=FACE_OUTER_BOUND('',#78,.T.);
#45=FACE_OUTER_BOUND('',#79,.T.);
#46=FACE_OUTER_BOUND('',#80,.T.);
#47=FACE_OUTER_BOUND('',#81,.T.);
#48=FACE_OUTER_BOUND('',#82,.T.);
#49=FACE_OUTER_BOUND('',#83,.T.);
#50=FACE_OUTER_BOUND('',#84,.T.);
#51=FACE_OUTER_BOUND('',#89,.T.);
#52=FACE_OUTER_BOUND('',#90,.T.);
#53=FACE_OUTER_BOUND('',#91,.T.);
#54=FACE_OUTER_BOUND('',#92,.T.);
#55=FACE_OUTER_BOUND('',#93,.T.);
#56=FACE_OUTER_BOUND('',#94,.T.);
#57=FACE_OUTER_BOUND('',#95,.T.);
#58=FACE_OUTER_BOUND('',#96,.T.);
#59=FACE_OUTER_BOUND('',#97,.T.);
#60=FACE_OUTER_BOUND('',#98,.T.);
#61=FACE_OUTER_BOUND('',#99,.T.);
#62=FACE_OUTER_BOUND('',#100,.T.);
#63=FACE_OUTER_BOUND('',#101,.T.);
#64=FACE_OUTER_BOUND('',#102,.T.);
#65=FACE_OUTER_BOUND('',#103,.T.);
#66=FACE_OUTER_BOUND('',#104,.T.);
#67=FACE_OUTER_BOUND('',#105,.T.);
#68=FACE_OUTER_BOUND('',#106,.T.);
#69=FACE_OUTER_BOUND('',#107,.T.);
#70=FACE_OUTER_BOUND('',#108,.T.);
#71=FACE_OUTER_BOUND('',#109,.T.);
#72=FACE_OUTER_BOUND('',#110,.T.);
#73=FACE_OUTER_BOUND('',#111,.T.);
#74=FACE_OUTER_BOUND('',#112,.T.);
#75=FACE_OUTER_BOUND('',#113,.T.);
#76=FACE_OUTER_BOUND('',#114,.T.);
#77=EDGE_LOOP('',(#391,#392,#393,#394));
#78=EDGE_LOOP('',(#395,#396,#397,#398));
#79=EDGE_LOOP('',(#399,#400,#401,#402,#403,#404,#405,#406));
#80=EDGE_LOOP('',(#407,#408,#409,#410));
#81=EDGE_LOOP('',(#411,#412,#413,#414));
#82=EDGE_LOOP('',(#415,#416,#417,#418));
#83=EDGE_LOOP('',(#419,#420,#421,#422));
#84=EDGE_LOOP('',(#423,#424,#425,#426,#427,#428,#429,#430,#431,#432,#433,
#434));
#85=EDGE_LOOP('',(#435));
#86=EDGE_LOOP('',(#436));
#87=EDGE_LOOP('',(#437));
#88=EDGE_LOOP('',(#438));
#89=EDGE_LOOP('',(#439,#440,#441,#442,#443,#444,#445,#446));
#90=EDGE_LOOP('',(#447,#448,#449,#450,#451,#452,#453,#454,#455,#456,#457,
#458));
#91=EDGE_LOOP('',(#459,#460,#461,#462));
#92=EDGE_LOOP('',(#463,#464,#465,#466));
#93=EDGE_LOOP('',(#467,#468,#469,#470));
#94=EDGE_LOOP('',(#471,#472,#473,#474));
#95=EDGE_LOOP('',(#475,#476,#477,#478));
#96=EDGE_LOOP('',(#479,#480,#481,#482,#483,#484,#485,#486,#487,#488,#489,
#490,#491,#492,#493,#494,#495,#496,#497,#498));
#97=EDGE_LOOP('',(#499,#500,#501,#502));
#98=EDGE_LOOP('',(#503,#504,#505,#506));
#99=EDGE_LOOP('',(#507,#508,#509,#510));
#100=EDGE_LOOP('',(#511,#512,#513,#514));
#101=EDGE_LOOP('',(#515,#516,#517,#518));
#102=EDGE_LOOP('',(#519,#520,#521,#522));
#103=EDGE_LOOP('',(#523,#524,#525,#526));
#104=EDGE_LOOP('',(#527,#528,#529,#530));
#105=EDGE_LOOP('',(#531,#532,#533,#534));
#106=EDGE_LOOP('',(#535));
#107=EDGE_LOOP('',(#536,#537,#538,#539));
#108=EDGE_LOOP('',(#540));
#109=EDGE_LOOP('',(#541,#542,#543,#544));
#110=EDGE_LOOP('',(#545));
#111=EDGE_LOOP('',(#546,#547,#548,#549));
#112=EDGE_LOOP('',(#550));
#113=EDGE_LOOP('',(#551,#552,#553,#554));
#114=EDGE_LOOP('',(#555,#556,#557,#558));
#115=LINE('',#857,#183);
#116=LINE('',#859,#184);
#117=LINE('',#861,#185);
#118=LINE('',#862,#186);
#119=LINE('',#865,#187);
#120=LINE('',#867,#188);
#121=LINE('',#868,#189);
#122=LINE('',#871,#190);
#123=LINE('',#873,#191);
#124=LINE('',#875,#192);
#125=LINE('',#877,#193);
#126=LINE('',#879,#194);
#127=LINE('',#880,#195);
#128=LINE('',#884,#196);
#129=LINE('',#886,#197);
#130=LINE('',#888,#198);
#131=LINE('',#889,#199);
#132=LINE('',#893,#200);
#133=LINE('',#894,#201);
#134=LINE('',#895,#202);
#135=LINE('',#899,#203);
#136=LINE('',#900,#204);
#137=LINE('',#901,#205);
#138=LINE('',#903,#206);
#139=LINE('',#906,#207);
#140=LINE('',#908,#208);
#141=LINE('',#910,#209);
#142=LINE('',#912,#210);
#143=LINE('',#914,#211);
#144=LINE('',#916,#212);
#145=LINE('',#918,#213);
#146=LINE('',#920,#214);
#147=LINE('',#921,#215);
#148=LINE('',#936,#216);
#149=LINE('',#940,#217);
#150=LINE('',#943,#218);
#151=LINE('',#946,#219);
#152=LINE('',#947,#220);
#153=LINE('',#949,#221);
#154=LINE('',#951,#222);
#155=LINE('',#952,#223);
#156=LINE('',#954,#224);
#157=LINE('',#957,#225);
#158=LINE('',#958,#226);
#159=LINE('',#961,#227);
#160=LINE('',#962,#228);
#161=LINE('',#965,#229);
#162=LINE('',#966,#230);
#163=LINE('',#969,#231);
#164=LINE('',#970,#232);
#165=LINE('',#975,#233);
#166=LINE('',#979,#234);
#167=LINE('',#983,#235);
#168=LINE('',#986,#236);
#169=LINE('',#988,#237);
#170=LINE('',#989,#238);
#171=LINE('',#991,#239);
#172=LINE('',#993,#240);
#173=LINE('',#995,#241);
#174=LINE('',#997,#242);
#175=LINE('',#999,#243);
#176=LINE('',#1001,#244);
#177=LINE('',#1002,#245);
#178=LINE('',#1004,#246);
#179=LINE('',#1008,#247);
#180=LINE('',#1013,#248);
#181=LINE('',#1018,#249);
#182=LINE('',#1023,#250);
#183=VECTOR('',#687,10.);
#184=VECTOR('',#688,10.);
#185=VECTOR('',#689,10.);
#186=VECTOR('',#690,10.);
#187=VECTOR('',#693,10.);
#188=VECTOR('',#694,10.);
#189=VECTOR('',#695,10.);
#190=VECTOR('',#698,10.);
#191=VECTOR('',#699,10.);
#192=VECTOR('',#700,10.);
#193=VECTOR('',#701,10.);
#194=VECTOR('',#702,10.);
#195=VECTOR('',#703,10.);
#196=VECTOR('',#706,10.);
#197=VECTOR('',#707,10.);
#198=VECTOR('',#708,10.);
#199=VECTOR('',#709,10.);
#200=VECTOR('',#712,10.);
#201=VECTOR('',#713,10.);
#202=VECTOR('',#714,10.);
#203=VECTOR('',#717,10.);
#204=VECTOR('',#718,10.);
#205=VECTOR('',#719,10.);
#206=VECTOR('',#722,10.);
#207=VECTOR('',#725,10.);
#208=VECTOR('',#726,10.);
#209=VECTOR('',#727,10.);
#210=VECTOR('',#728,10.);
#211=VECTOR('',#729,10.);
#212=VECTOR('',#730,10.);
#213=VECTOR('',#731,10.);
#214=VECTOR('',#732,10.);
#215=VECTOR('',#733,10.);
#216=VECTOR('',#748,10.);
#217=VECTOR('',#751,10.);
#218=VECTOR('',#754,10.);
#219=VECTOR('',#757,10.);
#220=VECTOR('',#758,10.);
#221=VECTOR('',#759,10.);
#222=VECTOR('',#760,10.);
#223=VECTOR('',#761,10.);
#224=VECTOR('',#764,10.);
#225=VECTOR('',#767,10.);
#226=VECTOR('',#768,10.);
#227=VECTOR('',#771,10.);
#228=VECTOR('',#772,10.);
#229=VECTOR('',#775,10.);
#230=VECTOR('',#776,10.);
#231=VECTOR('',#779,10.);
#232=VECTOR('',#780,10.);
#233=VECTOR('',#785,10.);
#234=VECTOR('',#788,10.);
#235=VECTOR('',#791,10.);
#236=VECTOR('',#794,10.);
#237=VECTOR('',#795,10.);
#238=VECTOR('',#796,10.);
#239=VECTOR('',#799,10.);
#240=VECTOR('',#802,10.);
#241=VECTOR('',#805,10.);
#242=VECTOR('',#808,10.);
#243=VECTOR('',#811,10.);
#244=VECTOR('',#814,10.);
#245=VECTOR('',#815,10.);
#246=VECTOR('',#818,10.);
#247=VECTOR('',#823,2.34999999999999);
#248=VECTOR('',#830,2.34999999999999);
#249=VECTOR('',#837,2.34999999999999);
#250=VECTOR('',#844,2.34999999999999);
#251=VERTEX_POINT('',#855);
#252=VERTEX_POINT('',#856);
#253=VERTEX_POINT('',#858);
#254=VERTEX_POINT('',#860);
#255=VERTEX_POINT('',#864);
#256=VERTEX_POINT('',#866);
#257=VERTEX_POINT('',#870);
#258=VERTEX_POINT('',#872);
#259=VERTEX_POINT('',#874);
#260=VERTEX_POINT('',#876);
#261=VERTEX_POINT('',#878);
#262=VERTEX_POINT('',#882);
#263=VERTEX_POINT('',#883);
#264=VERTEX_POINT('',#885);
#265=VERTEX_POINT('',#887);
#266=VERTEX_POINT('',#891);
#267=VERTEX_POINT('',#892);
#268=VERTEX_POINT('',#897);
#269=VERTEX_POINT('',#898);
#270=VERTEX_POINT('',#905);
#271=VERTEX_POINT('',#907);
#272=VERTEX_POINT('',#909);
#273=VERTEX_POINT('',#911);
#274=VERTEX_POINT('',#913);
#275=VERTEX_POINT('',#915);
#276=VERTEX_POINT('',#917);
#277=VERTEX_POINT('',#919);
#278=VERTEX_POINT('',#922);
#279=VERTEX_POINT('',#924);
#280=VERTEX_POINT('',#926);
#281=VERTEX_POINT('',#928);
#282=VERTEX_POINT('',#931);
#283=VERTEX_POINT('',#933);
#284=VERTEX_POINT('',#935);
#285=VERTEX_POINT('',#937);
#286=VERTEX_POINT('',#939);
#287=VERTEX_POINT('',#941);
#288=VERTEX_POINT('',#945);
#289=VERTEX_POINT('',#948);
#290=VERTEX_POINT('',#950);
#291=VERTEX_POINT('',#956);
#292=VERTEX_POINT('',#960);
#293=VERTEX_POINT('',#964);
#294=VERTEX_POINT('',#968);
#295=VERTEX_POINT('',#972);
#296=VERTEX_POINT('',#974);
#297=VERTEX_POINT('',#976);
#298=VERTEX_POINT('',#978);
#299=VERTEX_POINT('',#980);
#300=VERTEX_POINT('',#982);
#301=VERTEX_POINT('',#985);
#302=VERTEX_POINT('',#987);
#303=VERTEX_POINT('',#1007);
#304=VERTEX_POINT('',#1012);
#305=VERTEX_POINT('',#1017);
#306=VERTEX_POINT('',#1022);
#307=EDGE_CURVE('',#251,#252,#115,.T.);
#308=EDGE_CURVE('',#253,#252,#116,.T.);
#309=EDGE_CURVE('',#253,#254,#117,.T.);
#310=EDGE_CURVE('',#254,#251,#118,.T.);
#311=EDGE_CURVE('',#255,#252,#119,.T.);
#312=EDGE_CURVE('',#256,#255,#120,.T.);
#313=EDGE_CURVE('',#253,#256,#121,.T.);
#314=EDGE_CURVE('',#254,#257,#122,.T.);
#315=EDGE_CURVE('',#256,#258,#123,.T.);
#316=EDGE_CURVE('',#259,#258,#124,.T.);
#317=EDGE_CURVE('',#259,#260,#125,.T.);
#318=EDGE_CURVE('',#261,#260,#126,.T.);
#319=EDGE_CURVE('',#257,#261,#127,.T.);
#320=EDGE_CURVE('',#262,#263,#128,.T.);
#321=EDGE_CURVE('',#264,#262,#129,.T.);
#322=EDGE_CURVE('',#265,#264,#130,.T.);
#323=EDGE_CURVE('',#263,#265,#131,.T.);
#324=EDGE_CURVE('',#266,#267,#132,.T.);
#325=EDGE_CURVE('',#266,#264,#133,.T.);
#326=EDGE_CURVE('',#267,#262,#134,.T.);
#327=EDGE_CURVE('',#268,#269,#135,.T.);
#328=EDGE_CURVE('',#268,#263,#136,.T.);
#329=EDGE_CURVE('',#269,#265,#137,.T.);
#330=EDGE_CURVE('',#267,#268,#138,.T.);
#331=EDGE_CURVE('',#269,#270,#139,.T.);
#332=EDGE_CURVE('',#271,#270,#140,.T.);
#333=EDGE_CURVE('',#271,#272,#141,.T.);
#334=EDGE_CURVE('',#272,#273,#142,.T.);
#335=EDGE_CURVE('',#273,#274,#143,.T.);
#336=EDGE_CURVE('',#274,#275,#144,.T.);
#337=EDGE_CURVE('',#275,#276,#145,.T.);
#338=EDGE_CURVE('',#276,#277,#146,.T.);
#339=EDGE_CURVE('',#277,#266,#147,.T.);
#340=EDGE_CURVE('',#278,#278,#27,.T.);
#341=EDGE_CURVE('',#279,#279,#28,.T.);
#342=EDGE_CURVE('',#280,#280,#29,.T.);
#343=EDGE_CURVE('',#281,#281,#30,.T.);
#344=EDGE_CURVE('',#282,#261,#31,.T.);
#345=EDGE_CURVE('',#260,#283,#32,.T.);
#346=EDGE_CURVE('',#283,#284,#148,.T.);
#347=EDGE_CURVE('',#284,#285,#33,.T.);
#348=EDGE_CURVE('',#285,#286,#149,.T.);
#349=EDGE_CURVE('',#286,#287,#34,.T.);
#350=EDGE_CURVE('',#287,#282,#150,.T.);
#351=EDGE_CURVE('',#288,#251,#151,.T.);
#352=EDGE_CURVE('',#270,#288,#152,.T.);
#353=EDGE_CURVE('',#289,#277,#153,.T.);
#354=EDGE_CURVE('',#290,#289,#154,.T.);
#355=EDGE_CURVE('',#290,#255,#155,.T.);
#356=EDGE_CURVE('',#258,#290,#156,.T.);
#357=EDGE_CURVE('',#271,#291,#157,.T.);
#358=EDGE_CURVE('',#291,#288,#158,.T.);
#359=EDGE_CURVE('',#292,#276,#159,.T.);
#360=EDGE_CURVE('',#289,#292,#160,.T.);
#361=EDGE_CURVE('',#275,#293,#161,.T.);
#362=EDGE_CURVE('',#292,#293,#162,.T.);
#363=EDGE_CURVE('',#294,#291,#163,.T.);
#364=EDGE_CURVE('',#294,#272,#164,.T.);
#365=EDGE_CURVE('',#295,#257,#35,.T.);
#366=EDGE_CURVE('',#295,#296,#165,.T.);
#367=EDGE_CURVE('',#297,#296,#36,.T.);
#368=EDGE_CURVE('',#297,#298,#166,.T.);
#369=EDGE_CURVE('',#299,#298,#37,.T.);
#370=EDGE_CURVE('',#299,#300,#167,.T.);
#371=EDGE_CURVE('',#259,#300,#38,.T.);
#372=EDGE_CURVE('',#293,#301,#168,.T.);
#373=EDGE_CURVE('',#301,#302,#169,.T.);
#374=EDGE_CURVE('',#302,#294,#170,.T.);
#375=EDGE_CURVE('',#301,#274,#171,.T.);
#376=EDGE_CURVE('',#273,#302,#172,.T.);
#377=EDGE_CURVE('',#295,#282,#173,.T.);
#378=EDGE_CURVE('',#300,#283,#174,.T.);
#379=EDGE_CURVE('',#299,#284,#175,.T.);
#380=EDGE_CURVE('',#296,#287,#176,.T.);
#381=EDGE_CURVE('',#297,#286,#177,.T.);
#382=EDGE_CURVE('',#298,#285,#178,.T.);
#383=EDGE_CURVE('',#281,#303,#179,.T.);
#384=EDGE_CURVE('',#303,#303,#39,.T.);
#385=EDGE_CURVE('',#280,#304,#180,.T.);
#386=EDGE_CURVE('',#304,#304,#40,.T.);
#387=EDGE_CURVE('',#279,#305,#181,.T.);
#388=EDGE_CURVE('',#305,#305,#41,.T.);
#389=EDGE_CURVE('',#278,#306,#182,.T.);
#390=EDGE_CURVE('',#306,#306,#42,.T.);
#391=ORIENTED_EDGE('',*,*,#307,.T.);
#392=ORIENTED_EDGE('',*,*,#308,.F.);
#393=ORIENTED_EDGE('',*,*,#309,.T.);
#394=ORIENTED_EDGE('',*,*,#310,.T.);
#395=ORIENTED_EDGE('',*,*,#308,.T.);
#396=ORIENTED_EDGE('',*,*,#311,.F.);
#397=ORIENTED_EDGE('',*,*,#312,.F.);
#398=ORIENTED_EDGE('',*,*,#313,.F.);
#399=ORIENTED_EDGE('',*,*,#314,.F.);
#400=ORIENTED_EDGE('',*,*,#309,.F.);
#401=ORIENTED_EDGE('',*,*,#313,.T.);
#402=ORIENTED_EDGE('',*,*,#315,.T.);
#403=ORIENTED_EDGE('',*,*,#316,.F.);
#404=ORIENTED_EDGE('',*,*,#317,.T.);
#405=ORIENTED_EDGE('',*,*,#318,.F.);
#406=ORIENTED_EDGE('',*,*,#319,.F.);
#407=ORIENTED_EDGE('',*,*,#320,.F.);
#408=ORIENTED_EDGE('',*,*,#321,.F.);
#409=ORIENTED_EDGE('',*,*,#322,.F.);
#410=ORIENTED_EDGE('',*,*,#323,.F.);
#411=ORIENTED_EDGE('',*,*,#324,.F.);
#412=ORIENTED_EDGE('',*,*,#325,.T.);
#413=ORIENTED_EDGE('',*,*,#321,.T.);
#414=ORIENTED_EDGE('',*,*,#326,.F.);
#415=ORIENTED_EDGE('',*,*,#327,.F.);
#416=ORIENTED_EDGE('',*,*,#328,.T.);
#417=ORIENTED_EDGE('',*,*,#323,.T.);
#418=ORIENTED_EDGE('',*,*,#329,.F.);
#419=ORIENTED_EDGE('',*,*,#330,.F.);
#420=ORIENTED_EDGE('',*,*,#326,.T.);
#421=ORIENTED_EDGE('',*,*,#320,.T.);
#422=ORIENTED_EDGE('',*,*,#328,.F.);
#423=ORIENTED_EDGE('',*,*,#324,.T.);
#424=ORIENTED_EDGE('',*,*,#330,.T.);
#425=ORIENTED_EDGE('',*,*,#327,.T.);
#426=ORIENTED_EDGE('',*,*,#331,.T.);
#427=ORIENTED_EDGE('',*,*,#332,.F.);
#428=ORIENTED_EDGE('',*,*,#333,.T.);
#429=ORIENTED_EDGE('',*,*,#334,.T.);
#430=ORIENTED_EDGE('',*,*,#335,.T.);
#431=ORIENTED_EDGE('',*,*,#336,.T.);
#432=ORIENTED_EDGE('',*,*,#337,.T.);
#433=ORIENTED_EDGE('',*,*,#338,.T.);
#434=ORIENTED_EDGE('',*,*,#339,.T.);
#435=ORIENTED_EDGE('',*,*,#340,.T.);
#436=ORIENTED_EDGE('',*,*,#341,.T.);
#437=ORIENTED_EDGE('',*,*,#342,.T.);
#438=ORIENTED_EDGE('',*,*,#343,.T.);
#439=ORIENTED_EDGE('',*,*,#344,.T.);
#440=ORIENTED_EDGE('',*,*,#318,.T.);
#441=ORIENTED_EDGE('',*,*,#345,.T.);
#442=ORIENTED_EDGE('',*,*,#346,.T.);
#443=ORIENTED_EDGE('',*,*,#347,.T.);
#444=ORIENTED_EDGE('',*,*,#348,.T.);
#445=ORIENTED_EDGE('',*,*,#349,.T.);
#446=ORIENTED_EDGE('',*,*,#350,.T.);
#447=ORIENTED_EDGE('',*,*,#351,.F.);
#448=ORIENTED_EDGE('',*,*,#352,.F.);
#449=ORIENTED_EDGE('',*,*,#331,.F.);
#450=ORIENTED_EDGE('',*,*,#329,.T.);
#451=ORIENTED_EDGE('',*,*,#322,.T.);
#452=ORIENTED_EDGE('',*,*,#325,.F.);
#453=ORIENTED_EDGE('',*,*,#339,.F.);
#454=ORIENTED_EDGE('',*,*,#353,.F.);
#455=ORIENTED_EDGE('',*,*,#354,.F.);
#456=ORIENTED_EDGE('',*,*,#355,.T.);
#457=ORIENTED_EDGE('',*,*,#311,.T.);
#458=ORIENTED_EDGE('',*,*,#307,.F.);
#459=ORIENTED_EDGE('',*,*,#355,.F.);
#460=ORIENTED_EDGE('',*,*,#356,.F.);
#461=ORIENTED_EDGE('',*,*,#315,.F.);
#462=ORIENTED_EDGE('',*,*,#312,.T.);
#463=ORIENTED_EDGE('',*,*,#357,.F.);
#464=ORIENTED_EDGE('',*,*,#332,.T.);
#465=ORIENTED_EDGE('',*,*,#352,.T.);
#466=ORIENTED_EDGE('',*,*,#358,.F.);
#467=ORIENTED_EDGE('',*,*,#359,.F.);
#468=ORIENTED_EDGE('',*,*,#360,.F.);
#469=ORIENTED_EDGE('',*,*,#353,.T.);
#470=ORIENTED_EDGE('',*,*,#338,.F.);
#471=ORIENTED_EDGE('',*,*,#359,.T.);
#472=ORIENTED_EDGE('',*,*,#337,.F.);
#473=ORIENTED_EDGE('',*,*,#361,.T.);
#474=ORIENTED_EDGE('',*,*,#362,.F.);
#475=ORIENTED_EDGE('',*,*,#357,.T.);
#476=ORIENTED_EDGE('',*,*,#363,.F.);
#477=ORIENTED_EDGE('',*,*,#364,.T.);
#478=ORIENTED_EDGE('',*,*,#333,.F.);
#479=ORIENTED_EDGE('',*,*,#314,.T.);
#480=ORIENTED_EDGE('',*,*,#365,.F.);
#481=ORIENTED_EDGE('',*,*,#366,.T.);
#482=ORIENTED_EDGE('',*,*,#367,.F.);
#483=ORIENTED_EDGE('',*,*,#368,.T.);
#484=ORIENTED_EDGE('',*,*,#369,.F.);
#485=ORIENTED_EDGE('',*,*,#370,.T.);
#486=ORIENTED_EDGE('',*,*,#371,.F.);
#487=ORIENTED_EDGE('',*,*,#316,.T.);
#488=ORIENTED_EDGE('',*,*,#356,.T.);
#489=ORIENTED_EDGE('',*,*,#354,.T.);
#490=ORIENTED_EDGE('',*,*,#360,.T.);
#491=ORIENTED_EDGE('',*,*,#362,.T.);
#492=ORIENTED_EDGE('',*,*,#372,.T.);
#493=ORIENTED_EDGE('',*,*,#373,.T.);
#494=ORIENTED_EDGE('',*,*,#374,.T.);
#495=ORIENTED_EDGE('',*,*,#363,.T.);
#496=ORIENTED_EDGE('',*,*,#358,.T.);
#497=ORIENTED_EDGE('',*,*,#351,.T.);
#498=ORIENTED_EDGE('',*,*,#310,.F.);
#499=ORIENTED_EDGE('',*,*,#336,.F.);
#500=ORIENTED_EDGE('',*,*,#375,.F.);
#501=ORIENTED_EDGE('',*,*,#372,.F.);
#502=ORIENTED_EDGE('',*,*,#361,.F.);
#503=ORIENTED_EDGE('',*,*,#334,.F.);
#504=ORIENTED_EDGE('',*,*,#364,.F.);
#505=ORIENTED_EDGE('',*,*,#374,.F.);
#506=ORIENTED_EDGE('',*,*,#376,.F.);
#507=ORIENTED_EDGE('',*,*,#365,.T.);
#508=ORIENTED_EDGE('',*,*,#319,.T.);
#509=ORIENTED_EDGE('',*,*,#344,.F.);
#510=ORIENTED_EDGE('',*,*,#377,.F.);
#511=ORIENTED_EDGE('',*,*,#371,.T.);
#512=ORIENTED_EDGE('',*,*,#378,.T.);
#513=ORIENTED_EDGE('',*,*,#345,.F.);
#514=ORIENTED_EDGE('',*,*,#317,.F.);
#515=ORIENTED_EDGE('',*,*,#378,.F.);
#516=ORIENTED_EDGE('',*,*,#370,.F.);
#517=ORIENTED_EDGE('',*,*,#379,.T.);
#518=ORIENTED_EDGE('',*,*,#346,.F.);
#519=ORIENTED_EDGE('',*,*,#367,.T.);
#520=ORIENTED_EDGE('',*,*,#380,.T.);
#521=ORIENTED_EDGE('',*,*,#349,.F.);
#522=ORIENTED_EDGE('',*,*,#381,.F.);
#523=ORIENTED_EDGE('',*,*,#381,.T.);
#524=ORIENTED_EDGE('',*,*,#348,.F.);
#525=ORIENTED_EDGE('',*,*,#382,.F.);
#526=ORIENTED_EDGE('',*,*,#368,.F.);
#527=ORIENTED_EDGE('',*,*,#369,.T.);
#528=ORIENTED_EDGE('',*,*,#382,.T.);
#529=ORIENTED_EDGE('',*,*,#347,.F.);
#530=ORIENTED_EDGE('',*,*,#379,.F.);
#531=ORIENTED_EDGE('',*,*,#343,.F.);
#532=ORIENTED_EDGE('',*,*,#383,.T.);
#533=ORIENTED_EDGE('',*,*,#384,.T.);
#534=ORIENTED_EDGE('',*,*,#383,.F.);
#535=ORIENTED_EDGE('',*,*,#384,.F.);
#536=ORIENTED_EDGE('',*,*,#342,.F.);
#537=ORIENTED_EDGE('',*,*,#385,.T.);
#538=ORIENTED_EDGE('',*,*,#386,.T.);
#539=ORIENTED_EDGE('',*,*,#385,.F.);
#540=ORIENTED_EDGE('',*,*,#386,.F.);
#541=ORIENTED_EDGE('',*,*,#341,.F.);
#542=ORIENTED_EDGE('',*,*,#387,.T.);
#543=ORIENTED_EDGE('',*,*,#388,.T.);
#544=ORIENTED_EDGE('',*,*,#387,.F.);
#545=ORIENTED_EDGE('',*,*,#388,.F.);
#546=ORIENTED_EDGE('',*,*,#340,.F.);
#547=ORIENTED_EDGE('',*,*,#389,.T.);
#548=ORIENTED_EDGE('',*,*,#390,.T.);
#549=ORIENTED_EDGE('',*,*,#389,.F.);
#550=ORIENTED_EDGE('',*,*,#390,.F.);
#551=ORIENTED_EDGE('',*,*,#335,.F.);
#552=ORIENTED_EDGE('',*,*,#376,.T.);
#553=ORIENTED_EDGE('',*,*,#373,.F.);
#554=ORIENTED_EDGE('',*,*,#375,.T.);
#555=ORIENTED_EDGE('',*,*,#377,.T.);
#556=ORIENTED_EDGE('',*,*,#350,.F.);
#557=ORIENTED_EDGE('',*,*,#380,.F.);
#558=ORIENTED_EDGE('',*,*,#366,.F.);
#559=PLANE('',#633);
#560=PLANE('',#634);
#561=PLANE('',#635);
#562=PLANE('',#636);
#563=PLANE('',#637);
#564=PLANE('',#638);
#565=PLANE('',#639);
#566=PLANE('',#640);
#567=PLANE('',#645);
#568=PLANE('',#650);
#569=PLANE('',#651);
#570=PLANE('',#652);
#571=PLANE('',#653);
#572=PLANE('',#654);
#573=PLANE('',#655);
#574=PLANE('',#656);
#575=PLANE('',#661);
#576=PLANE('',#662);
#577=PLANE('',#665);
#578=PLANE('',#667);
#579=PLANE('',#671);
#580=PLANE('',#674);
#581=PLANE('',#677);
#582=PLANE('',#680);
#583=PLANE('',#681);
#584=PLANE('',#682);
#585=ADVANCED_FACE('',(#43),#559,.T.);
#586=ADVANCED_FACE('',(#44),#560,.F.);
#587=ADVANCED_FACE('',(#45),#561,.T.);
#588=ADVANCED_FACE('',(#46),#562,.F.);
#589=ADVANCED_FACE('',(#47),#563,.F.);
#590=ADVANCED_FACE('',(#48),#564,.F.);
#591=ADVANCED_FACE('',(#49),#565,.F.);
#592=ADVANCED_FACE('',(#50,#23,#24,#25,#26),#566,.T.);
#593=ADVANCED_FACE('',(#51),#567,.F.);
#594=ADVANCED_FACE('',(#52),#568,.F.);
#595=ADVANCED_FACE('',(#53),#569,.T.);
#596=ADVANCED_FACE('',(#54),#570,.F.);
#597=ADVANCED_FACE('',(#55),#571,.F.);
#598=ADVANCED_FACE('',(#56),#572,.T.);
#599=ADVANCED_FACE('',(#57),#573,.T.);
#600=ADVANCED_FACE('',(#58),#574,.T.);
#601=ADVANCED_FACE('',(#59),#575,.F.);
#602=ADVANCED_FACE('',(#60),#576,.F.);
#603=ADVANCED_FACE('',(#61),#15,.T.);
#604=ADVANCED_FACE('',(#62),#16,.T.);
#605=ADVANCED_FACE('',(#63),#577,.T.);
#606=ADVANCED_FACE('',(#64),#17,.T.);
#607=ADVANCED_FACE('',(#65),#578,.T.);
#608=ADVANCED_FACE('',(#66),#18,.T.);
#609=ADVANCED_FACE('',(#67),#19,.F.);
#610=ADVANCED_FACE('',(#68),#579,.T.);
#611=ADVANCED_FACE('',(#69),#20,.F.);
#612=ADVANCED_FACE('',(#70),#580,.T.);
#613=ADVANCED_FACE('',(#71),#21,.F.);
#614=ADVANCED_FACE('',(#72),#581,.T.);
#615=ADVANCED_FACE('',(#73),#22,.F.);
#616=ADVANCED_FACE('',(#74),#582,.T.);
#617=ADVANCED_FACE('',(#75),#583,.T.);
#618=ADVANCED_FACE('',(#76),#584,.T.);
#619=CLOSED_SHELL('',(#585,#586,#587,#588,#589,#590,#591,#592,#593,#594,
#595,#596,#597,#598,#599,#600,#601,#602,#603,#604,#605,#606,#607,#608,#609,
#610,#611,#612,#613,#614,#615,#616,#617,#618));
#620=DERIVED_UNIT_ELEMENT(#622,1.);
#621=DERIVED_UNIT_ELEMENT(#1033,-3.);
#622=(
MASS_UNIT()
NAMED_UNIT(*)
SI_UNIT(.KILO.,.GRAM.)
);
#623=DERIVED_UNIT((#620,#621));
#624=MEASURE_REPRESENTATION_ITEM('density measure',
POSITIVE_RATIO_MEASURE(7850.),#623);
#625=PROPERTY_DEFINITION_REPRESENTATION(#630,#627);
#626=PROPERTY_DEFINITION_REPRESENTATION(#631,#628);
#627=REPRESENTATION('material name',(#629),#1030);
#628=REPRESENTATION('density',(#624),#1030);
#629=DESCRIPTIVE_REPRESENTATION_ITEM('Steel','Steel');
#630=PROPERTY_DEFINITION('material property','material name',#1040);
#631=PROPERTY_DEFINITION('material property','density of part',#1040);
#632=AXIS2_PLACEMENT_3D('',#853,#683,#684);
#633=AXIS2_PLACEMENT_3D('',#854,#685,#686);
#634=AXIS2_PLACEMENT_3D('',#863,#691,#692);
#635=AXIS2_PLACEMENT_3D('',#869,#696,#697);
#636=AXIS2_PLACEMENT_3D('',#881,#704,#705);
#637=AXIS2_PLACEMENT_3D('',#890,#710,#711);
#638=AXIS2_PLACEMENT_3D('',#896,#715,#716);
#639=AXIS2_PLACEMENT_3D('',#902,#720,#721);
#640=AXIS2_PLACEMENT_3D('',#904,#723,#724);
#641=AXIS2_PLACEMENT_3D('',#923,#734,#735);
#642=AXIS2_PLACEMENT_3D('',#925,#736,#737);
#643=AXIS2_PLACEMENT_3D('',#927,#738,#739);
#644=AXIS2_PLACEMENT_3D('',#929,#740,#741);
#645=AXIS2_PLACEMENT_3D('',#930,#742,#743);
#646=AXIS2_PLACEMENT_3D('',#932,#744,#745);
#647=AXIS2_PLACEMENT_3D('',#934,#746,#747);
#648=AXIS2_PLACEMENT_3D('',#938,#749,#750);
#649=AXIS2_PLACEMENT_3D('',#942,#752,#753);
#650=AXIS2_PLACEMENT_3D('',#944,#755,#756);
#651=AXIS2_PLACEMENT_3D('',#953,#762,#763);
#652=AXIS2_PLACEMENT_3D('',#955,#765,#766);
#653=AXIS2_PLACEMENT_3D('',#959,#769,#770);
#654=AXIS2_PLACEMENT_3D('',#963,#773,#774);
#655=AXIS2_PLACEMENT_3D('',#967,#777,#778);
#656=AXIS2_PLACEMENT_3D('',#971,#781,#782);
#657=AXIS2_PLACEMENT_3D('',#973,#783,#784);
#658=AXIS2_PLACEMENT_3D('',#977,#786,#787);
#659=AXIS2_PLACEMENT_3D('',#981,#789,#790);
#660=AXIS2_PLACEMENT_3D('',#984,#792,#793);
#661=AXIS2_PLACEMENT_3D('',#990,#797,#798);
#662=AXIS2_PLACEMENT_3D('',#992,#800,#801);
#663=AXIS2_PLACEMENT_3D('',#994,#803,#804);
#664=AXIS2_PLACEMENT_3D('',#996,#806,#807);
#665=AXIS2_PLACEMENT_3D('',#998,#809,#810);
#666=AXIS2_PLACEMENT_3D('',#1000,#812,#813);
#667=AXIS2_PLACEMENT_3D('',#1003,#816,#817);
#668=AXIS2_PLACEMENT_3D('',#1005,#819,#820);
#669=AXIS2_PLACEMENT_3D('',#1006,#821,#822);
#670=AXIS2_PLACEMENT_3D('',#1009,#824,#825);
#671=AXIS2_PLACEMENT_3D('',#1010,#826,#827);
#672=AXIS2_PLACEMENT_3D('',#1011,#828,#829);
#673=AXIS2_PLACEMENT_3D('',#1014,#831,#832);
#674=AXIS2_PLACEMENT_3D('',#1015,#833,#834);
#675=AXIS2_PLACEMENT_3D('',#1016,#835,#836);
#676=AXIS2_PLACEMENT_3D('',#1019,#838,#839);
#677=AXIS2_PLACEMENT_3D('',#1020,#840,#841);
#678=AXIS2_PLACEMENT_3D('',#1021,#842,#843);
#679=AXIS2_PLACEMENT_3D('',#1024,#845,#846);
#680=AXIS2_PLACEMENT_3D('',#1025,#847,#848);
#681=AXIS2_PLACEMENT_3D('',#1026,#849,#850);
#682=AXIS2_PLACEMENT_3D('',#1027,#851,#852);
#683=DIRECTION('axis',(0.,0.,1.));
#684=DIRECTION('refdir',(1.,0.,0.));
#685=DIRECTION('center_axis',(1.,0.,0.));
#686=DIRECTION('ref_axis',(0.,0.,-1.));
#687=DIRECTION('',(0.,0.,-1.));
#688=DIRECTION('',(0.,-1.,0.));
#689=DIRECTION('',(0.,0.,1.));
#690=DIRECTION('',(0.,-1.,0.));
#691=DIRECTION('center_axis',(0.,0.,-1.));
#692=DIRECTION('ref_axis',(-1.,0.,0.));
#693=DIRECTION('',(-1.,0.,0.));
#694=DIRECTION('',(0.,-1.,0.));
#695=DIRECTION('',(1.,0.,0.));
#696=DIRECTION('center_axis',(0.,1.,0.));
#697=DIRECTION('ref_axis',(-1.,0.,0.));
#698=DIRECTION('',(-1.,0.,0.));
#699=DIRECTION('',(0.,0.,1.));
#700=DIRECTION('',(-1.,0.,0.));
#701=DIRECTION('',(0.,0.,-1.));
#702=DIRECTION('',(1.,0.,0.));
#703=DIRECTION('',(0.,0.,-1.));
#704=DIRECTION('center_axis',(0.,0.,-1.));
#705=DIRECTION('ref_axis',(-1.,0.,0.));
#706=DIRECTION('',(-1.,0.,0.));
#707=DIRECTION('',(0.,-1.,0.));
#708=DIRECTION('',(1.,0.,0.));
#709=DIRECTION('',(0.,1.,0.));
#710=DIRECTION('center_axis',(1.,0.,0.));
#711=DIRECTION('ref_axis',(0.,-1.,0.));
#712=DIRECTION('',(0.,-1.,0.));
#713=DIRECTION('',(0.,0.,-1.));
#714=DIRECTION('',(0.,0.,-1.));
#715=DIRECTION('center_axis',(-1.,0.,0.));
#716=DIRECTION('ref_axis',(0.,1.,0.));
#717=DIRECTION('',(0.,1.,0.));
#718=DIRECTION('',(0.,0.,-1.));
#719=DIRECTION('',(0.,0.,-1.));
#720=DIRECTION('center_axis',(0.,-1.,0.));
#721=DIRECTION('ref_axis',(-1.,0.,0.));
#722=DIRECTION('',(-1.,0.,0.));
#723=DIRECTION('center_axis',(0.,0.,1.));
#724=DIRECTION('ref_axis',(1.,0.,0.));
#725=DIRECTION('',(-1.,0.,0.));
#726=DIRECTION('',(0.,1.,0.));
#727=DIRECTION('',(-1.,0.,0.));
#728=DIRECTION('',(0.,-1.,0.));
#729=DIRECTION('',(1.,0.,0.));
#730=DIRECTION('',(0.,1.,0.));
#731=DIRECTION('',(-1.,0.,0.));
#732=DIRECTION('',(0.,1.,0.));
#733=DIRECTION('',(-1.,0.,0.));
#734=DIRECTION('center_axis',(0.,0.,-1.));
#735=DIRECTION('ref_axis',(-1.,0.,0.));
#736=DIRECTION('center_axis',(0.,0.,-1.));
#737=DIRECTION('ref_axis',(-1.,0.,0.));
#738=DIRECTION('center_axis',(0.,0.,-1.));
#739=DIRECTION('ref_axis',(-1.,0.,0.));
#740=DIRECTION('center_axis',(0.,0.,-1.));
#741=DIRECTION('ref_axis',(-1.,0.,0.));
#742=DIRECTION('center_axis',(0.,0.,1.));
#743=DIRECTION('ref_axis',(1.,0.,0.));
#744=DIRECTION('center_axis',(0.,0.,-1.));
#745=DIRECTION('ref_axis',(-0.707106781186547,0.707106781186547,0.));
#746=DIRECTION('center_axis',(0.,0.,-1.));
#747=DIRECTION('ref_axis',(0.707106781186547,0.707106781186547,0.));
#748=DIRECTION('',(0.,-1.,0.));
#749=DIRECTION('center_axis',(0.,0.,-1.));
#750=DIRECTION('ref_axis',(0.707106781186547,-0.707106781186547,0.));
#751=DIRECTION('',(-1.,0.,0.));
#752=DIRECTION('center_axis',(0.,0.,-1.));
#753=DIRECTION('ref_axis',(-0.707106781186547,-0.707106781186547,0.));
#754=DIRECTION('',(0.,1.,0.));
#755=DIRECTION('center_axis',(0.,1.,0.));
#756=DIRECTION('ref_axis',(0.,0.,1.));
#757=DIRECTION('',(1.,0.,0.));
#758=DIRECTION('',(0.,0.,1.));
#759=DIRECTION('',(0.,0.,-1.));
#760=DIRECTION('',(1.,0.,0.));
#761=DIRECTION('',(0.,0.,-1.));
#762=DIRECTION('center_axis',(-1.,0.,0.));
#763=DIRECTION('ref_axis',(0.,0.,1.));
#764=DIRECTION('',(0.,-1.,0.));
#765=DIRECTION('center_axis',(-1.,0.,0.));
#766=DIRECTION('ref_axis',(0.,0.,1.));
#767=DIRECTION('',(0.,0.,1.));
#768=DIRECTION('',(0.,1.,0.));
#769=DIRECTION('center_axis',(1.,0.,0.));
#770=DIRECTION('ref_axis',(0.,0.,-1.));
#771=DIRECTION('',(0.,0.,-1.));
#772=DIRECTION('',(0.,-1.,0.));
#773=DIRECTION('center_axis',(0.,-1.,0.));
#774=DIRECTION('ref_axis',(1.,0.,0.));
#775=DIRECTION('',(0.,0.,1.));
#776=DIRECTION('',(1.,0.,0.));
#777=DIRECTION('center_axis',(0.,-1.,0.));
#778=DIRECTION('ref_axis',(1.,0.,0.));
#779=DIRECTION('',(1.,0.,0.));
#780=DIRECTION('',(0.,0.,-1.));
#781=DIRECTION('center_axis',(0.,0.,1.));
#782=DIRECTION('ref_axis',(1.,0.,0.));
#783=DIRECTION('center_axis',(0.,0.,-1.));
#784=DIRECTION('ref_axis',(-0.707106781186547,0.707106781186547,0.));
#785=DIRECTION('',(0.,-1.,0.));
#786=DIRECTION('center_axis',(0.,0.,-1.));
#787=DIRECTION('ref_axis',(-0.707106781186547,-0.707106781186547,0.));
#788=DIRECTION('',(1.,0.,0.));
#789=DIRECTION('center_axis',(0.,0.,-1.));
#790=DIRECTION('ref_axis',(0.707106781186547,-0.707106781186547,0.));
#791=DIRECTION('',(0.,1.,0.));
#792=DIRECTION('center_axis',(0.,0.,-1.));
#793=DIRECTION('ref_axis',(0.707106781186547,0.707106781186547,0.));
#794=DIRECTION('',(0.,-1.,0.));
#795=DIRECTION('',(-1.,0.,0.));
#796=DIRECTION('',(0.,1.,0.));
#797=DIRECTION('center_axis',(1.,0.,0.));
#798=DIRECTION('ref_axis',(0.,0.,-1.));
#799=DIRECTION('',(0.,0.,-1.));
#800=DIRECTION('center_axis',(-1.,0.,0.));
#801=DIRECTION('ref_axis',(0.,0.,1.));
#802=DIRECTION('',(0.,0.,1.));
#803=DIRECTION('center_axis',(0.,0.,1.));
#804=DIRECTION('ref_axis',(-0.707106781186547,0.707106781186547,0.));
#805=DIRECTION('',(0.,0.,-1.));
#806=DIRECTION('center_axis',(0.,0.,1.));
#807=DIRECTION('ref_axis',(0.707106781186547,0.707106781186547,0.));
#808=DIRECTION('',(0.,0.,-1.));
#809=DIRECTION('center_axis',(1.,0.,0.));
#810=DIRECTION('ref_axis',(0.,1.,0.));
#811=DIRECTION('',(0.,0.,-1.));
#812=DIRECTION('center_axis',(0.,0.,1.));
#813=DIRECTION('ref_axis',(-0.707106781186547,-0.707106781186547,0.));
#814=DIRECTION('',(0.,0.,-1.));
#815=DIRECTION('',(0.,0.,-1.));
#816=DIRECTION('center_axis',(0.,-1.,0.));
#817=DIRECTION('ref_axis',(1.,0.,0.));
#818=DIRECTION('',(0.,0.,-1.));
#819=DIRECTION('center_axis',(0.,0.,1.));
#820=DIRECTION('ref_axis',(0.707106781186547,-0.707106781186547,0.));
#821=DIRECTION('center_axis',(0.,0.,-1.));
#822=DIRECTION('ref_axis',(-1.,0.,0.));
#823=DIRECTION('',(0.,0.,-1.));
#824=DIRECTION('center_axis',(0.,0.,-1.));
#825=DIRECTION('ref_axis',(-1.,0.,0.));
#826=DIRECTION('center_axis',(0.,0.,1.));
#827=DIRECTION('ref_axis',(-1.,0.,0.));
#828=DIRECTION('center_axis',(0.,0.,-1.));
#829=DIRECTION('ref_axis',(-1.,0.,0.));
#830=DIRECTION('',(0.,0.,-1.));
#831=DIRECTION('center_axis',(0.,0.,-1.));
#832=DIRECTION('ref_axis',(-1.,0.,0.));
#833=DIRECTION('center_axis',(0.,0.,1.));
#834=DIRECTION('ref_axis',(-1.,0.,0.));
#835=DIRECTION('center_axis',(0.,0.,-1.));
#836=DIRECTION('ref_axis',(-1.,0.,0.));
#837=DIRECTION('',(0.,0.,-1.));
#838=DIRECTION('center_axis',(0.,0.,-1.));
#839=DIRECTION('ref_axis',(-1.,0.,0.));
#840=DIRECTION('center_axis',(0.,0.,1.));
#841=DIRECTION('ref_axis',(-1.,0.,0.));
#842=DIRECTION('center_axis',(0.,0.,-1.));
#843=DIRECTION('ref_axis',(-1.,0.,0.));
#844=DIRECTION('',(0.,0.,-1.));
#845=DIRECTION('center_axis',(0.,0.,-1.));
#846=DIRECTION('ref_axis',(-1.,0.,0.));
#847=DIRECTION('center_axis',(0.,0.,1.));
#848=DIRECTION('ref_axis',(-1.,0.,0.));
#849=DIRECTION('center_axis',(0.,1.,0.));
#850=DIRECTION('ref_axis',(-1.,0.,0.));
#851=DIRECTION('center_axis',(-1.,0.,0.));
#852=DIRECTION('ref_axis',(0.,-1.,0.));
#853=CARTESIAN_POINT('',(0.,0.,0.));
#854=CARTESIAN_POINT('Origin',(-130.000001892447,50.,5.00000007450581));
#855=CARTESIAN_POINT('',(-130.000001892447,51.,15.));
#856=CARTESIAN_POINT('',(-130.000001892447,51.,4.00000007450581));
#857=CARTESIAN_POINT('',(-130.000001892448,51.,10.0000000745058));
#858=CARTESIAN_POINT('',(-130.000001892447,55.,4.00000007450581));
#859=CARTESIAN_POINT('',(-130.000001892447,29.9,4.00000007450581));
#860=CARTESIAN_POINT('',(-130.000001892447,55.,15.));
#861=CARTESIAN_POINT('',(-130.000001892447,55.,2.5000000372529));
#862=CARTESIAN_POINT('',(-130.000001892448,32.4,15.));
#863=CARTESIAN_POINT('Origin',(-154.8,9.8,4.00000007450581));
#864=CARTESIAN_POINT('',(-117.000001683831,51.,4.00000007450581));
#865=CARTESIAN_POINT('',(-154.8,51.,4.00000007450581));
#866=CARTESIAN_POINT('',(-117.000001683831,55.,4.00000007450581));
#867=CARTESIAN_POINT('',(-117.000001683831,29.9,4.));
#868=CARTESIAN_POINT('',(-129.7,55.,4.00000007450581));
#869=CARTESIAN_POINT('Origin',(-104.6,55.,0.));
#870=CARTESIAN_POINT('',(-200.,55.,15.));
#871=CARTESIAN_POINT('',(-104.6,55.,15.));
#872=CARTESIAN_POINT('',(-117.000001683831,55.,15.));
#873=CARTESIAN_POINT('',(-117.000001683831,55.,5.00000007450581));
#874=CARTESIAN_POINT('',(-109.6,55.,15.));
#875=CARTESIAN_POINT('',(-104.6,55.,15.));
#876=CARTESIAN_POINT('',(-109.6,55.,-5.));
#877=CARTESIAN_POINT('',(-109.6,55.,0.));
#878=CARTESIAN_POINT('',(-200.,55.,-5.));
#879=CARTESIAN_POINT('',(-104.6,55.,-5.));
#880=CARTESIAN_POINT('',(-200.,55.,0.));
#881=CARTESIAN_POINT('Origin',(-123.000002011657,38.0000007599592,-1.));
#882=CARTESIAN_POINT('',(-111.000002011657,25.0000007599592,-1.));
#883=CARTESIAN_POINT('',(-135.000002011657,25.0000007599592,-1.));
#884=CARTESIAN_POINT('',(-111.000002011657,25.0000007599592,-1.));
#885=CARTESIAN_POINT('',(-111.000002011657,51.0000007599592,-1.));
#886=CARTESIAN_POINT('',(-111.000002011657,51.0000007599592,-1.));
#887=CARTESIAN_POINT('',(-135.000002011657,51.0000007599592,-1.));
#888=CARTESIAN_POINT('',(-135.000002011657,51.0000007599592,-1.));
#889=CARTESIAN_POINT('',(-135.000002011657,25.0000007599592,-1.));
#890=CARTESIAN_POINT('Origin',(-111.000002011657,51.0000007599592,5.));
#891=CARTESIAN_POINT('',(-111.000002011657,51.0000007599592,5.));
#892=CARTESIAN_POINT('',(-111.000002011657,25.0000007599592,5.));
#893=CARTESIAN_POINT('',(-111.000002011657,30.4000003799796,5.));
#894=CARTESIAN_POINT('',(-111.000002011657,51.0000007599592,5.));
#895=CARTESIAN_POINT('',(-111.000002011657,25.0000007599592,5.));
#896=CARTESIAN_POINT('Origin',(-135.000002011657,25.0000007599592,5.));
#897=CARTESIAN_POINT('',(-135.000002011657,25.0000007599592,5.));
#898=CARTESIAN_POINT('',(-135.000002011657,51.0000007599592,5.));
#899=CARTESIAN_POINT('',(-135.000002011657,17.4000003799796,5.));
#900=CARTESIAN_POINT('',(-135.000002011657,25.0000007599592,5.));
#901=CARTESIAN_POINT('',(-135.000002011657,51.0000007599592,5.));
#902=CARTESIAN_POINT('Origin',(-111.000002011657,25.0000007599592,5.));
#903=CARTESIAN_POINT('',(-132.900001005828,25.0000007599592,5.));
#904=CARTESIAN_POINT('Origin',(-154.8,9.8,5.));
#905=CARTESIAN_POINT('',(-200.,51.,5.));
#906=CARTESIAN_POINT('',(-200.,51.,5.));
#907=CARTESIAN_POINT('',(-200.,50.,5.));
#908=CARTESIAN_POINT('',(-200.,50.,5.));
#909=CARTESIAN_POINT('',(-201.,50.,5.));
#910=CARTESIAN_POINT('',(-177.4,50.,5.));
#911=CARTESIAN_POINT('',(-201.,-30.4,5.));
#912=CARTESIAN_POINT('',(-201.,-10.3,5.));
#913=CARTESIAN_POINT('',(-108.6,-30.4,5.));
#914=CARTESIAN_POINT('',(-109.6,-30.4,5.));
#915=CARTESIAN_POINT('',(-108.6,50.,5.));
#916=CARTESIAN_POINT('',(-108.6,29.9,5.));
#917=CARTESIAN_POINT('',(-109.6,50.,5.));
#918=CARTESIAN_POINT('',(-177.4,50.,5.));
#919=CARTESIAN_POINT('',(-109.6,51.,5.));
#920=CARTESIAN_POINT('',(-109.6,50.,5.));
#921=CARTESIAN_POINT('',(-133.900000841916,51.,5.));
#922=CARTESIAN_POINT('',(-112.650002980232,-22.9999994039536,5.));
#923=CARTESIAN_POINT('Origin',(-115.000002980232,-22.9999994039536,5.));
#924=CARTESIAN_POINT('',(-112.650002980232,14.0000005960465,5.));
#925=CARTESIAN_POINT('Origin',(-115.000002980232,14.0000005960465,5.));
#926=CARTESIAN_POINT('',(-194.610002980232,-22.9999994039536,5.));
#927=CARTESIAN_POINT('Origin',(-196.960002980232,-22.9999994039536,5.));
#928=CARTESIAN_POINT('',(-194.610002980232,43.0000006407499,5.));
#929=CARTESIAN_POINT('Origin',(-196.960002980232,43.0000006407499,5.));
#930=CARTESIAN_POINT('Origin',(-154.8,9.8,-5.));
#931=CARTESIAN_POINT('',(-205.,50.,-5.));
#932=CARTESIAN_POINT('Origin',(-200.,50.,-5.));
#933=CARTESIAN_POINT('',(-104.6,50.,-5.));
#934=CARTESIAN_POINT('Origin',(-109.6,50.,-5.));
#935=CARTESIAN_POINT('',(-104.6,-30.4,-5.));
#936=CARTESIAN_POINT('',(-104.6,-35.4,-5.));
#937=CARTESIAN_POINT('',(-109.6,-35.4,-5.));
#938=CARTESIAN_POINT('Origin',(-109.6,-30.4,-5.));
#939=CARTESIAN_POINT('',(-200.,-35.4,-5.));
#940=CARTESIAN_POINT('',(-205.,-35.4,-5.));
#941=CARTESIAN_POINT('',(-205.,-30.4,-5.));
#942=CARTESIAN_POINT('Origin',(-200.,-30.4,-5.));
#943=CARTESIAN_POINT('',(-205.,55.,-5.));
#944=CARTESIAN_POINT('Origin',(-154.8,51.,10.));
#945=CARTESIAN_POINT('',(-200.,51.,15.));
#946=CARTESIAN_POINT('',(-154.8,51.,15.));
#947=CARTESIAN_POINT('',(-200.,51.,15.));
#948=CARTESIAN_POINT('',(-109.6,51.,15.));
#949=CARTESIAN_POINT('',(-109.6,51.,5.));
#950=CARTESIAN_POINT('',(-117.000001683831,51.,15.));
#951=CARTESIAN_POINT('',(-154.8,51.,15.));
#952=CARTESIAN_POINT('',(-117.000001683831,51.,7.5));
#953=CARTESIAN_POINT('Origin',(-117.000001683831,50.,10.0000001490116));
#954=CARTESIAN_POINT('',(-117.000001683831,30.4,15.));
#955=CARTESIAN_POINT('Origin',(-200.,50.,5.));
#956=CARTESIAN_POINT('',(-200.,50.,15.));
#957=CARTESIAN_POINT('',(-200.,50.,2.5));
#958=CARTESIAN_POINT('',(-200.,29.9,15.));
#959=CARTESIAN_POINT('Origin',(-109.6,50.,15.));
#960=CARTESIAN_POINT('',(-109.6,50.,15.));
#961=CARTESIAN_POINT('',(-109.6,50.,7.5));
#962=CARTESIAN_POINT('',(-109.6,29.9,15.));
#963=CARTESIAN_POINT('Origin',(-200.,50.,0.));
#964=CARTESIAN_POINT('',(-108.6,50.,15.));
#965=CARTESIAN_POINT('',(-108.6,50.,0.));
#966=CARTESIAN_POINT('',(-177.4,50.,15.));
#967=CARTESIAN_POINT('Origin',(-200.,50.,0.));
#968=CARTESIAN_POINT('',(-201.,50.,15.));
#969=CARTESIAN_POINT('',(-177.4,50.,15.));
#970=CARTESIAN_POINT('',(-201.,50.,0.));
#971=CARTESIAN_POINT('Origin',(-154.8,9.8,15.));
#972=CARTESIAN_POINT('',(-205.,50.,15.));
#973=CARTESIAN_POINT('Origin',(-200.,50.,15.));
#974=CARTESIAN_POINT('',(-205.,-30.4,15.));
#975=CARTESIAN_POINT('',(-205.,55.,15.));
#976=CARTESIAN_POINT('',(-200.,-35.4,15.));
#977=CARTESIAN_POINT('Origin',(-200.,-30.4,15.));
#978=CARTESIAN_POINT('',(-109.6,-35.4,15.));
#979=CARTESIAN_POINT('',(-205.,-35.4,15.));
#980=CARTESIAN_POINT('',(-104.6,-30.4,15.));
#981=CARTESIAN_POINT('Origin',(-109.6,-30.4,15.));
#982=CARTESIAN_POINT('',(-104.6,50.,15.));
#983=CARTESIAN_POINT('',(-104.6,-35.4,15.));
#984=CARTESIAN_POINT('Origin',(-109.6,50.,15.));
#985=CARTESIAN_POINT('',(-108.6,-30.4,15.));
#986=CARTESIAN_POINT('',(-108.6,29.9,15.));
#987=CARTESIAN_POINT('',(-201.,-30.4,15.));
#988=CARTESIAN_POINT('',(-132.2,-30.4,15.));
#989=CARTESIAN_POINT('',(-201.,-10.3,15.));
#990=CARTESIAN_POINT('Origin',(-108.6,50.,0.));
#991=CARTESIAN_POINT('',(-108.6,-30.4,0.));
#992=CARTESIAN_POINT('Origin',(-201.,-30.4,0.));
#993=CARTESIAN_POINT('',(-201.,-30.4,0.));
#994=CARTESIAN_POINT('Origin',(-200.,50.,0.));
#995=CARTESIAN_POINT('',(-205.,50.,0.));
#996=CARTESIAN_POINT('Origin',(-109.6,50.,0.));
#997=CARTESIAN_POINT('',(-104.6,50.,0.));
#998=CARTESIAN_POINT('Origin',(-104.6,-35.4,0.));
#999=CARTESIAN_POINT('',(-104.6,-30.4,0.));
#1000=CARTESIAN_POINT('Origin',(-200.,-30.4,0.));
#1001=CARTESIAN_POINT('',(-205.,-30.4,0.));
#1002=CARTESIAN_POINT('',(-200.,-35.4,0.));
#1003=CARTESIAN_POINT('Origin',(-205.,-35.4,0.));
#1004=CARTESIAN_POINT('',(-109.6,-35.4,0.));
#1005=CARTESIAN_POINT('Origin',(-109.6,-30.4,0.));
#1006=CARTESIAN_POINT('Origin',(-196.960002980232,43.0000006407499,5.));
#1007=CARTESIAN_POINT('',(-194.610002980232,43.0000006407499,1.));
#1008=CARTESIAN_POINT('',(-194.610002980232,43.0000006407499,5.));
#1009=CARTESIAN_POINT('Origin',(-196.960002980232,43.0000006407499,1.));
#1010=CARTESIAN_POINT('Origin',(-196.960002980232,43.0000006407499,1.));
#1011=CARTESIAN_POINT('Origin',(-196.960002980232,-22.9999994039536,5.));
#1012=CARTESIAN_POINT('',(-194.610002980232,-22.9999994039536,1.));
#1013=CARTESIAN_POINT('',(-194.610002980232,-22.9999994039536,5.));
#1014=CARTESIAN_POINT('Origin',(-196.960002980232,-22.9999994039536,1.));
#1015=CARTESIAN_POINT('Origin',(-196.960002980232,-22.9999994039536,1.));
#1016=CARTESIAN_POINT('Origin',(-115.000002980232,14.0000005960465,5.));
#1017=CARTESIAN_POINT('',(-112.650002980232,14.0000005960465,1.));
#1018=CARTESIAN_POINT('',(-112.650002980232,14.0000005960465,5.));
#1019=CARTESIAN_POINT('Origin',(-115.000002980232,14.0000005960465,1.));
#1020=CARTESIAN_POINT('Origin',(-115.000002980232,14.0000005960465,1.));
#1021=CARTESIAN_POINT('Origin',(-115.000002980232,-22.9999994039536,5.));
#1022=CARTESIAN_POINT('',(-112.650002980232,-22.9999994039536,1.));
#1023=CARTESIAN_POINT('',(-112.650002980232,-22.9999994039536,5.));
#1024=CARTESIAN_POINT('Origin',(-115.000002980232,-22.9999994039536,1.));
#1025=CARTESIAN_POINT('Origin',(-115.000002980232,-22.9999994039536,1.));
#1026=CARTESIAN_POINT('Origin',(-109.6,-30.4,0.));
#1027=CARTESIAN_POINT('Origin',(-205.,55.,0.));
#1028=UNCERTAINTY_MEASURE_WITH_UNIT(LENGTH_MEASURE(0.01),#1032,
'DISTANCE_ACCURACY_VALUE',
'Maximum model space distance between geometric entities at asserted c
onnectivities');
#1029=UNCERTAINTY_MEASURE_WITH_UNIT(LENGTH_MEASURE(0.01),#1032,
'DISTANCE_ACCURACY_VALUE',
'Maximum model space distance between geometric entities at asserted c
onnectivities');
#1030=(
GEOMETRIC_REPRESENTATION_CONTEXT(3)
GLOBAL_UNCERTAINTY_ASSIGNED_CONTEXT((#1028))
GLOBAL_UNIT_ASSIGNED_CONTEXT((#1032,#1034,#1035))
REPRESENTATION_CONTEXT('','3D')
);
#1031=(
GEOMETRIC_REPRESENTATION_CONTEXT(3)
GLOBAL_UNCERTAINTY_ASSIGNED_CONTEXT((#1029))
GLOBAL_UNIT_ASSIGNED_CONTEXT((#1032,#1034,#1035))
REPRESENTATION_CONTEXT('','3D')
);
#1032=(
LENGTH_UNIT()
NAMED_UNIT(*)
SI_UNIT(.MILLI.,.METRE.)
);
#1033=(
LENGTH_UNIT()
NAMED_UNIT(*)
SI_UNIT($,.METRE.)
);
#1034=(
NAMED_UNIT(*)
PLANE_ANGLE_UNIT()
SI_UNIT($,.RADIAN.)
);
#1035=(
NAMED_UNIT(*)
SI_UNIT($,.STERADIAN.)
SOLID_ANGLE_UNIT()
);
#1036=SHAPE_DEFINITION_REPRESENTATION(#1037,#1038);
#1037=PRODUCT_DEFINITION_SHAPE('',$,#1040);
#1038=SHAPE_REPRESENTATION('',(#632),#1030);
#1039=PRODUCT_DEFINITION_CONTEXT('part definition',#1044,'design');
#1040=PRODUCT_DEFINITION('Bottom','Bottom',#1041,#1039);
#1041=PRODUCT_DEFINITION_FORMATION('',$,#1046);
#1042=PRODUCT_RELATED_PRODUCT_CATEGORY('Bottom','Bottom',(#1046));
#1043=APPLICATION_PROTOCOL_DEFINITION('international standard',
'automotive_design',2009,#1044);
#1044=APPLICATION_CONTEXT(
'Core Data for Automotive Mechanical Design Process');
#1045=PRODUCT_CONTEXT('part definition',#1044,'mechanical');
#1046=PRODUCT('Bottom','Bottom',$,(#1045));
#1047=PRESENTATION_STYLE_ASSIGNMENT((#1048));
#1048=SURFACE_STYLE_USAGE(.BOTH.,#1049);
#1049=SURFACE_SIDE_STYLE('',(#1050));
#1050=SURFACE_STYLE_FILL_AREA(#1051);
#1051=FILL_AREA_STYLE('Steel - Satin',(#1052));
#1052=FILL_AREA_STYLE_COLOUR('Steel - Satin',#1053);
#1053=COLOUR_RGB('Steel - Satin',0.627450980392157,0.627450980392157,0.627450980392157);
ENDSEC;
END-ISO-10303-21;
