ISO-10303-21;
HEADER;
/* Generated by software containing ST-Developer
 * from STEP Tools, Inc. (www.steptools.com) 
 */

FILE_DESCRIPTION(
/* description */ (''),
/* implementation_level */ '2;1');

FILE_NAME(
/* name */ 'Knob.step',
/* time_stamp */ '2026-07-10T23:44:41+09:00',
/* author */ (''),
/* organization */ (''),
/* preprocessor_version */ 'ST-DEVELOPER v20.1',
/* originating_system */ 'Autodesk Translation Framework v15.8.0.0',
/* authorisation */ '');

FILE_SCHEMA (('AUTOMOTIVE_DESIGN { 1 0 10303 214 3 1 1 }'));
ENDSEC;

DATA;
#10=MECHANICAL_DESIGN_GEOMETRIC_PRESENTATION_REPRESENTATION('',(#13),#209);
#11=SHAPE_REPRESENTATION_RELATIONSHIP('SRR','None',#219,#12);
#12=ADVANCED_BREP_SHAPE_REPRESENTATION('',(#14),#208);
#13=STYLED_ITEM('',(#229),#14);
#14=MANIFOLD_SOLID_BREP('Knob',#113);
#15=FACE_BOUND('',#32,.T.);
#16=FACE_BOUND('',#36,.T.);
#17=PLANE('',#130);
#18=PLANE('',#132);
#19=PLANE('',#136);
#20=PLANE('',#139);
#21=PLANE('',#140);
#22=FACE_OUTER_BOUND('',#30,.T.);
#23=FACE_OUTER_BOUND('',#31,.T.);
#24=FACE_OUTER_BOUND('',#33,.T.);
#25=FACE_OUTER_BOUND('',#34,.T.);
#26=FACE_OUTER_BOUND('',#35,.T.);
#27=FACE_OUTER_BOUND('',#37,.T.);
#28=FACE_OUTER_BOUND('',#38,.T.);
#29=FACE_OUTER_BOUND('',#39,.T.);
#30=EDGE_LOOP('',(#78,#79,#80,#81));
#31=EDGE_LOOP('',(#82));
#32=EDGE_LOOP('',(#83));
#33=EDGE_LOOP('',(#84,#85));
#34=EDGE_LOOP('',(#86,#87,#88,#89));
#35=EDGE_LOOP('',(#90));
#36=EDGE_LOOP('',(#91,#92));
#37=EDGE_LOOP('',(#93,#94,#95,#96));
#38=EDGE_LOOP('',(#97));
#39=EDGE_LOOP('',(#98,#99,#100,#101));
#40=LINE('',#182,#46);
#41=LINE('',#190,#47);
#42=LINE('',#196,#48);
#43=LINE('',#197,#49);
#44=LINE('',#199,#50);
#45=LINE('',#203,#51);
#46=VECTOR('',#147,0.2);
#47=VECTOR('',#156,0.393700787401575);
#48=VECTOR('',#163,0.393700787401575);
#49=VECTOR('',#164,0.393700787401575);
#50=VECTOR('',#167,0.393700787401575);
#51=VECTOR('',#172,0.375);
#52=CIRCLE('',#128,0.2);
#53=CIRCLE('',#129,0.2);
#54=CIRCLE('',#131,0.375);
#55=CIRCLE('',#133,0.123110236220477);
#56=CIRCLE('',#135,0.123110236220473);
#57=CIRCLE('',#138,0.375);
#58=VERTEX_POINT('',#179);
#59=VERTEX_POINT('',#181);
#60=VERTEX_POINT('',#185);
#61=VERTEX_POINT('',#188);
#62=VERTEX_POINT('',#189);
#63=VERTEX_POINT('',#193);
#64=VERTEX_POINT('',#194);
#65=VERTEX_POINT('',#201);
#66=EDGE_CURVE('',#58,#58,#52,.T.);
#67=EDGE_CURVE('',#58,#59,#40,.T.);
#68=EDGE_CURVE('',#59,#59,#53,.T.);
#69=EDGE_CURVE('',#60,#60,#54,.T.);
#70=EDGE_CURVE('',#61,#62,#41,.T.);
#71=EDGE_CURVE('',#62,#61,#55,.T.);
#72=EDGE_CURVE('',#63,#64,#56,.T.);
#73=EDGE_CURVE('',#64,#62,#42,.T.);
#74=EDGE_CURVE('',#63,#61,#43,.T.);
#75=EDGE_CURVE('',#64,#63,#44,.T.);
#76=EDGE_CURVE('',#65,#65,#57,.T.);
#77=EDGE_CURVE('',#65,#60,#45,.T.);
#78=ORIENTED_EDGE('',*,*,#66,.F.);
#79=ORIENTED_EDGE('',*,*,#67,.T.);
#80=ORIENTED_EDGE('',*,*,#68,.F.);
#81=ORIENTED_EDGE('',*,*,#67,.F.);
#82=ORIENTED_EDGE('',*,*,#69,.T.);
#83=ORIENTED_EDGE('',*,*,#66,.T.);
#84=ORIENTED_EDGE('',*,*,#70,.F.);
#85=ORIENTED_EDGE('',*,*,#71,.F.);
#86=ORIENTED_EDGE('',*,*,#72,.T.);
#87=ORIENTED_EDGE('',*,*,#73,.T.);
#88=ORIENTED_EDGE('',*,*,#71,.T.);
#89=ORIENTED_EDGE('',*,*,#74,.F.);
#90=ORIENTED_EDGE('',*,*,#68,.T.);
#91=ORIENTED_EDGE('',*,*,#75,.F.);
#92=ORIENTED_EDGE('',*,*,#72,.F.);
#93=ORIENTED_EDGE('',*,*,#76,.F.);
#94=ORIENTED_EDGE('',*,*,#77,.T.);
#95=ORIENTED_EDGE('',*,*,#69,.F.);
#96=ORIENTED_EDGE('',*,*,#77,.F.);
#97=ORIENTED_EDGE('',*,*,#76,.T.);
#98=ORIENTED_EDGE('',*,*,#75,.T.);
#99=ORIENTED_EDGE('',*,*,#74,.T.);
#100=ORIENTED_EDGE('',*,*,#70,.T.);
#101=ORIENTED_EDGE('',*,*,#73,.F.);
#102=CYLINDRICAL_SURFACE('',#127,0.2);
#103=CYLINDRICAL_SURFACE('',#134,0.123110236220473);
#104=CYLINDRICAL_SURFACE('',#137,0.375);
#105=ADVANCED_FACE('',(#22),#102,.F.);
#106=ADVANCED_FACE('',(#23,#15),#17,.T.);
#107=ADVANCED_FACE('',(#24),#18,.T.);
#108=ADVANCED_FACE('',(#25),#103,.F.);
#109=ADVANCED_FACE('',(#26,#16),#19,.F.);
#110=ADVANCED_FACE('',(#27),#104,.T.);
#111=ADVANCED_FACE('',(#28),#20,.T.);
#112=ADVANCED_FACE('',(#29),#21,.T.);
#113=CLOSED_SHELL('',(#105,#106,#107,#108,#109,#110,#111,#112));
#114=DERIVED_UNIT_ELEMENT(#116,1.);
#115=DERIVED_UNIT_ELEMENT(#213,-3.);
#116=(
MASS_UNIT()
NAMED_UNIT(*)
SI_UNIT(.KILO.,.GRAM.)
);
#117=DERIVED_UNIT((#114,#115));
#118=MEASURE_REPRESENTATION_ITEM('density measure',
POSITIVE_RATIO_MEASURE(7850.),#117);
#119=PROPERTY_DEFINITION_REPRESENTATION(#124,#121);
#120=PROPERTY_DEFINITION_REPRESENTATION(#125,#122);
#121=REPRESENTATION('material name',(#123),#208);
#122=REPRESENTATION('density',(#118),#208);
#123=DESCRIPTIVE_REPRESENTATION_ITEM('Steel','Steel');
#124=PROPERTY_DEFINITION('material property','material name',#221);
#125=PROPERTY_DEFINITION('material property','density of part',#221);
#126=AXIS2_PLACEMENT_3D('',#177,#141,#142);
#127=AXIS2_PLACEMENT_3D('',#178,#143,#144);
#128=AXIS2_PLACEMENT_3D('',#180,#145,#146);
#129=AXIS2_PLACEMENT_3D('',#183,#148,#149);
#130=AXIS2_PLACEMENT_3D('',#184,#150,#151);
#131=AXIS2_PLACEMENT_3D('',#186,#152,#153);
#132=AXIS2_PLACEMENT_3D('',#187,#154,#155);
#133=AXIS2_PLACEMENT_3D('',#191,#157,#158);
#134=AXIS2_PLACEMENT_3D('',#192,#159,#160);
#135=AXIS2_PLACEMENT_3D('',#195,#161,#162);
#136=AXIS2_PLACEMENT_3D('',#198,#165,#166);
#137=AXIS2_PLACEMENT_3D('',#200,#168,#169);
#138=AXIS2_PLACEMENT_3D('',#202,#170,#171);
#139=AXIS2_PLACEMENT_3D('',#204,#173,#174);
#140=AXIS2_PLACEMENT_3D('',#205,#175,#176);
#141=DIRECTION('axis',(0.,0.,1.));
#142=DIRECTION('refdir',(1.,0.,0.));
#143=DIRECTION('center_axis',(0.,-1.,0.));
#144=DIRECTION('ref_axis',(-1.,0.,0.));
#145=DIRECTION('center_axis',(0.,1.,5.55111512311695E-17));
#146=DIRECTION('ref_axis',(-1.,0.,0.));
#147=DIRECTION('',(0.,1.,0.));
#148=DIRECTION('center_axis',(0.,-1.,0.));
#149=DIRECTION('ref_axis',(-1.,0.,0.));
#150=DIRECTION('center_axis',(0.,-1.,-5.55111512311695E-17));
#151=DIRECTION('ref_axis',(-1.,0.,0.));
#152=DIRECTION('center_axis',(0.,-1.,-5.55111512311695E-17));
#153=DIRECTION('ref_axis',(-1.,0.,0.));
#154=DIRECTION('center_axis',(-5.46538867178988E-30,-1.,-5.55111512311695E-17));
#155=DIRECTION('ref_axis',(-1.,5.46538867178988E-30,3.03390017096909E-46));
#156=DIRECTION('',(-1.,1.12914079360275E-29,-1.0495223275007E-13));
#157=DIRECTION('center_axis',(5.46538867178992E-30,1.,5.55111512311695E-17));
#158=DIRECTION('ref_axis',(0.866025403784443,2.77555756155831E-17,-0.499999999999993));
#159=DIRECTION('center_axis',(0.,-1.,0.));
#160=DIRECTION('ref_axis',(-1.25863147499077E-13,0.,1.));
#161=DIRECTION('center_axis',(0.,-1.,0.));
#162=DIRECTION('ref_axis',(-0.866025403784366,0.,-0.500000000000126));
#163=DIRECTION('',(0.,1.,0.));
#164=DIRECTION('',(0.,1.,0.));
#165=DIRECTION('center_axis',(0.,1.,0.));
#166=DIRECTION('ref_axis',(1.,0.,0.));
#167=DIRECTION('',(1.,0.,9.51129609297511E-14));
#168=DIRECTION('center_axis',(0.,1.,0.));
#169=DIRECTION('ref_axis',(1.,0.,0.));
#170=DIRECTION('center_axis',(0.,1.,0.));
#171=DIRECTION('ref_axis',(1.,0.,0.));
#172=DIRECTION('',(0.,-1.,0.));
#173=DIRECTION('center_axis',(0.,1.,0.));
#174=DIRECTION('ref_axis',(1.,0.,0.));
#175=DIRECTION('center_axis',(-9.51129609297512E-14,0.,1.));
#176=DIRECTION('ref_axis',(-1.,-1.08232986082493E-31,-9.51129609297511E-14));
#177=CARTESIAN_POINT('',(0.,0.,0.));
#178=CARTESIAN_POINT('Origin',(-7.61349644160701,22.8317387480107,3.59565828535084));
#179=CARTESIAN_POINT('',(-7.41349644160701,22.6817387480107,3.59565828535084));
#180=CARTESIAN_POINT('Origin',(-7.61349644160701,22.6817387480107,3.59565828535084));
#181=CARTESIAN_POINT('',(-7.41349644160701,22.8317387480107,3.59565828535084));
#182=CARTESIAN_POINT('',(-7.41349644160701,22.8317387480107,3.59565828535084));
#183=CARTESIAN_POINT('Origin',(-7.61349644160701,22.8317387480107,3.59565828535084));
#184=CARTESIAN_POINT('Origin',(-7.61349644160701,22.6817387480107,3.59565828535084));
#185=CARTESIAN_POINT('',(-7.98849644160701,22.6817387480107,3.59565828535088));
#186=CARTESIAN_POINT('Origin',(-7.61349644160701,22.6817387480107,3.59565828535084));
#187=CARTESIAN_POINT('Origin',(-7.61349644160701,23.2317387480107,3.62643584440595));
#188=CARTESIAN_POINT('',(-7.50687984957417,23.2317387480107,3.53410316724061));
#189=CARTESIAN_POINT('',(-7.72011303363983,23.2317387480107,3.53410316724058));
#190=CARTESIAN_POINT('',(-7.72011303363983,23.2317387480107,3.53410316724058));
#191=CARTESIAN_POINT('Origin',(-7.61349644160701,23.2317387480107,3.59565828535084));
#192=CARTESIAN_POINT('Origin',(-7.61349644160701,22.6817387480107,3.59565828535088));
#193=CARTESIAN_POINT('',(-7.50687984957418,22.8317387480107,3.53410316724064));
#194=CARTESIAN_POINT('',(-7.72011303363984,22.8317387480107,3.53410316724062));
#195=CARTESIAN_POINT('Origin',(-7.61349644160701,22.8317387480107,3.59565828535088));
#196=CARTESIAN_POINT('',(-7.72011303363983,22.8317387480107,3.53410316724058));
#197=CARTESIAN_POINT('',(-7.50687984957418,22.6817387480107,3.53410316724064));
#198=CARTESIAN_POINT('Origin',(-7.61349644160701,22.8317387480107,3.59565828535088));
#199=CARTESIAN_POINT('',(-7.56018814559059,22.8317387480107,3.53410316724064));
#200=CARTESIAN_POINT('Origin',(-7.61349644160701,22.6817387480107,3.59565828535088));
#201=CARTESIAN_POINT('',(-7.98849644160701,23.3817387480107,3.59565828535088));
#202=CARTESIAN_POINT('Origin',(-7.61349644160701,23.3817387480107,3.59565828535088));
#203=CARTESIAN_POINT('',(-7.98849644160701,22.6817387480107,3.59565828535088));
#204=CARTESIAN_POINT('Origin',(-7.61349644160701,23.3817387480107,3.59565828535088));
#205=CARTESIAN_POINT('Origin',(-7.50687984957418,22.6817387480107,3.53410316724064));
#206=UNCERTAINTY_MEASURE_WITH_UNIT(LENGTH_MEASURE(0.000393700787401575),
#211,'DISTANCE_ACCURACY_VALUE',
'Maximum model space distance between geometric entities at asserted c
onnectivities');
#207=UNCERTAINTY_MEASURE_WITH_UNIT(LENGTH_MEASURE(0.000393700787401575),
#211,'DISTANCE_ACCURACY_VALUE',
'Maximum model space distance between geometric entities at asserted c
onnectivities');
#208=(
GEOMETRIC_REPRESENTATION_CONTEXT(3)
GLOBAL_UNCERTAINTY_ASSIGNED_CONTEXT((#206))
GLOBAL_UNIT_ASSIGNED_CONTEXT((#211,#215,#216))
REPRESENTATION_CONTEXT('','3D')
);
#209=(
GEOMETRIC_REPRESENTATION_CONTEXT(3)
GLOBAL_UNCERTAINTY_ASSIGNED_CONTEXT((#207))
GLOBAL_UNIT_ASSIGNED_CONTEXT((#211,#215,#216))
REPRESENTATION_CONTEXT('','3D')
);
#210=DIMENSIONAL_EXPONENTS(1.,0.,0.,0.,0.,0.,0.);
#211=(
CONVERSION_BASED_UNIT('inch',#214)
LENGTH_UNIT()
NAMED_UNIT(#210)
);
#212=(
LENGTH_UNIT()
NAMED_UNIT(*)
SI_UNIT(.MILLI.,.METRE.)
);
#213=(
LENGTH_UNIT()
NAMED_UNIT(*)
SI_UNIT($,.METRE.)
);
#214=LENGTH_MEASURE_WITH_UNIT(LENGTH_MEASURE(25.4),#212);
#215=(
NAMED_UNIT(*)
PLANE_ANGLE_UNIT()
SI_UNIT($,.RADIAN.)
);
#216=(
NAMED_UNIT(*)
SI_UNIT($,.STERADIAN.)
SOLID_ANGLE_UNIT()
);
#217=SHAPE_DEFINITION_REPRESENTATION(#218,#219);
#218=PRODUCT_DEFINITION_SHAPE('',$,#221);
#219=SHAPE_REPRESENTATION('',(#126),#208);
#220=PRODUCT_DEFINITION_CONTEXT('part definition',#225,'design');
#221=PRODUCT_DEFINITION('Knob','Knob',#222,#220);
#222=PRODUCT_DEFINITION_FORMATION('',$,#227);
#223=PRODUCT_RELATED_PRODUCT_CATEGORY('Knob','Knob',(#227));
#224=APPLICATION_PROTOCOL_DEFINITION('international standard',
'automotive_design',2009,#225);
#225=APPLICATION_CONTEXT(
'Core Data for Automotive Mechanical Design Process');
#226=PRODUCT_CONTEXT('part definition',#225,'mechanical');
#227=PRODUCT('Knob','Knob',$,(#226));
#228=PRESENTATION_STYLE_ASSIGNMENT((#230));
#229=PRESENTATION_STYLE_ASSIGNMENT((#231));
#230=SURFACE_STYLE_USAGE(.BOTH.,#232);
#231=SURFACE_STYLE_USAGE(.BOTH.,#233);
#232=SURFACE_SIDE_STYLE('',(#234));
#233=SURFACE_SIDE_STYLE('',(#235));
#234=SURFACE_STYLE_FILL_AREA(#236);
#235=SURFACE_STYLE_FILL_AREA(#237);
#236=FILL_AREA_STYLE('Steel - Satin',(#238));
#237=FILL_AREA_STYLE('Aluminum - Anodized Glossy (Blue)',(#239));
#238=FILL_AREA_STYLE_COLOUR('Steel - Satin',#240);
#239=FILL_AREA_STYLE_COLOUR('Aluminum - Anodized Glossy (Blue)',#241);
#240=COLOUR_RGB('Steel - Satin',0.627450980392157,0.627450980392157,0.627450980392157);
#241=COLOUR_RGB('Aluminum - Anodized Glossy (Blue)',0.349019607843137,0.584313725490196,
0.854901960784314);
ENDSEC;
END-ISO-10303-21;
