G04 #@! TF.GenerationSoftware,KiCad,Pcbnew,10.0.0*
G04 #@! TF.CreationDate,2026-07-01T03:19:09+09:00*
G04 #@! TF.ProjectId,macropad,6d616372-6f70-4616-942e-6b696361645f,rev?*
G04 #@! TF.SameCoordinates,Original*
G04 #@! TF.FileFunction,Legend,Top*
G04 #@! TF.FilePolarity,Positive*
%FSLAX46Y46*%
G04 Gerber Fmt 4.6, Leading zero omitted, Abs format (unit mm)*
G04 Created by KiCad (PCBNEW 10.0.0) date 2026-07-01 03:19:09*
%MOMM*%
%LPD*%
G01*
G04 APERTURE LIST*
G04 Aperture macros list*
%AMRoundRect*
0 Rectangle with rounded corners*
0 $1 Rounding radius*
0 $2 $3 $4 $5 $6 $7 $8 $9 X,Y pos of 4 corners*
0 Add a 4 corners polygon primitive as box body*
4,1,4,$2,$3,$4,$5,$6,$7,$8,$9,$2,$3,0*
0 Add four circle primitives for the rounded corners*
1,1,$1+$1,$2,$3*
1,1,$1+$1,$4,$5*
1,1,$1+$1,$6,$7*
1,1,$1+$1,$8,$9*
0 Add four rect primitives between the rounded corners*
20,1,$1+$1,$2,$3,$4,$5,0*
20,1,$1+$1,$4,$5,$6,$7,0*
20,1,$1+$1,$6,$7,$8,$9,0*
20,1,$1+$1,$8,$9,$2,$3,0*%
G04 Aperture macros list end*
%ADD10C,0.150000*%
%ADD11C,0.101600*%
%ADD12C,0.120000*%
%ADD13C,0.127000*%
%ADD14C,0.254000*%
%ADD15C,0.025400*%
%ADD16C,1.700000*%
%ADD17C,4.000000*%
%ADD18C,2.200000*%
%ADD19C,3.200000*%
%ADD20RoundRect,0.250000X0.550000X-0.550000X0.550000X0.550000X-0.550000X0.550000X-0.550000X-0.550000X0*%
%ADD21C,1.600000*%
%ADD22R,3.500000X1.700000*%
%ADD23O,3.600000X1.700000*%
%ADD24O,3.700000X1.700000*%
%ADD25C,2.000000*%
%ADD26R,3.200000X2.000000*%
%ADD27R,2.000000X2.000000*%
%ADD28R,1.700000X1.700000*%
%ADD29O,1.700000X1.700000*%
G04 #@! TA.AperFunction,Profile*
%ADD30C,0.050000*%
G04 #@! TD*
G04 APERTURE END LIST*
D10*
X75116667Y-53913200D02*
X75259524Y-53960819D01*
X75259524Y-53960819D02*
X75497619Y-53960819D01*
X75497619Y-53960819D02*
X75592857Y-53913200D01*
X75592857Y-53913200D02*
X75640476Y-53865580D01*
X75640476Y-53865580D02*
X75688095Y-53770342D01*
X75688095Y-53770342D02*
X75688095Y-53675104D01*
X75688095Y-53675104D02*
X75640476Y-53579866D01*
X75640476Y-53579866D02*
X75592857Y-53532247D01*
X75592857Y-53532247D02*
X75497619Y-53484628D01*
X75497619Y-53484628D02*
X75307143Y-53437009D01*
X75307143Y-53437009D02*
X75211905Y-53389390D01*
X75211905Y-53389390D02*
X75164286Y-53341771D01*
X75164286Y-53341771D02*
X75116667Y-53246533D01*
X75116667Y-53246533D02*
X75116667Y-53151295D01*
X75116667Y-53151295D02*
X75164286Y-53056057D01*
X75164286Y-53056057D02*
X75211905Y-53008438D01*
X75211905Y-53008438D02*
X75307143Y-52960819D01*
X75307143Y-52960819D02*
X75545238Y-52960819D01*
X75545238Y-52960819D02*
X75688095Y-53008438D01*
X76021429Y-52960819D02*
X76259524Y-53960819D01*
X76259524Y-53960819D02*
X76450000Y-53246533D01*
X76450000Y-53246533D02*
X76640476Y-53960819D01*
X76640476Y-53960819D02*
X76878572Y-52960819D01*
X77307143Y-53960819D02*
X77497619Y-53960819D01*
X77497619Y-53960819D02*
X77592857Y-53913200D01*
X77592857Y-53913200D02*
X77640476Y-53865580D01*
X77640476Y-53865580D02*
X77735714Y-53722723D01*
X77735714Y-53722723D02*
X77783333Y-53532247D01*
X77783333Y-53532247D02*
X77783333Y-53151295D01*
X77783333Y-53151295D02*
X77735714Y-53056057D01*
X77735714Y-53056057D02*
X77688095Y-53008438D01*
X77688095Y-53008438D02*
X77592857Y-52960819D01*
X77592857Y-52960819D02*
X77402381Y-52960819D01*
X77402381Y-52960819D02*
X77307143Y-53008438D01*
X77307143Y-53008438D02*
X77259524Y-53056057D01*
X77259524Y-53056057D02*
X77211905Y-53151295D01*
X77211905Y-53151295D02*
X77211905Y-53389390D01*
X77211905Y-53389390D02*
X77259524Y-53484628D01*
X77259524Y-53484628D02*
X77307143Y-53532247D01*
X77307143Y-53532247D02*
X77402381Y-53579866D01*
X77402381Y-53579866D02*
X77592857Y-53579866D01*
X77592857Y-53579866D02*
X77688095Y-53532247D01*
X77688095Y-53532247D02*
X77735714Y-53484628D01*
X77735714Y-53484628D02*
X77783333Y-53389390D01*
X74640476Y-73093200D02*
X74783333Y-73140819D01*
X74783333Y-73140819D02*
X75021428Y-73140819D01*
X75021428Y-73140819D02*
X75116666Y-73093200D01*
X75116666Y-73093200D02*
X75164285Y-73045580D01*
X75164285Y-73045580D02*
X75211904Y-72950342D01*
X75211904Y-72950342D02*
X75211904Y-72855104D01*
X75211904Y-72855104D02*
X75164285Y-72759866D01*
X75164285Y-72759866D02*
X75116666Y-72712247D01*
X75116666Y-72712247D02*
X75021428Y-72664628D01*
X75021428Y-72664628D02*
X74830952Y-72617009D01*
X74830952Y-72617009D02*
X74735714Y-72569390D01*
X74735714Y-72569390D02*
X74688095Y-72521771D01*
X74688095Y-72521771D02*
X74640476Y-72426533D01*
X74640476Y-72426533D02*
X74640476Y-72331295D01*
X74640476Y-72331295D02*
X74688095Y-72236057D01*
X74688095Y-72236057D02*
X74735714Y-72188438D01*
X74735714Y-72188438D02*
X74830952Y-72140819D01*
X74830952Y-72140819D02*
X75069047Y-72140819D01*
X75069047Y-72140819D02*
X75211904Y-72188438D01*
X75545238Y-72140819D02*
X75783333Y-73140819D01*
X75783333Y-73140819D02*
X75973809Y-72426533D01*
X75973809Y-72426533D02*
X76164285Y-73140819D01*
X76164285Y-73140819D02*
X76402381Y-72140819D01*
X77307142Y-73140819D02*
X76735714Y-73140819D01*
X77021428Y-73140819D02*
X77021428Y-72140819D01*
X77021428Y-72140819D02*
X76926190Y-72283676D01*
X76926190Y-72283676D02*
X76830952Y-72378914D01*
X76830952Y-72378914D02*
X76735714Y-72426533D01*
X78211904Y-72140819D02*
X77735714Y-72140819D01*
X77735714Y-72140819D02*
X77688095Y-72617009D01*
X77688095Y-72617009D02*
X77735714Y-72569390D01*
X77735714Y-72569390D02*
X77830952Y-72521771D01*
X77830952Y-72521771D02*
X78069047Y-72521771D01*
X78069047Y-72521771D02*
X78164285Y-72569390D01*
X78164285Y-72569390D02*
X78211904Y-72617009D01*
X78211904Y-72617009D02*
X78259523Y-72712247D01*
X78259523Y-72712247D02*
X78259523Y-72950342D01*
X78259523Y-72950342D02*
X78211904Y-73045580D01*
X78211904Y-73045580D02*
X78164285Y-73093200D01*
X78164285Y-73093200D02*
X78069047Y-73140819D01*
X78069047Y-73140819D02*
X77830952Y-73140819D01*
X77830952Y-73140819D02*
X77735714Y-73093200D01*
X77735714Y-73093200D02*
X77688095Y-73045580D01*
X36620476Y-92193200D02*
X36763333Y-92240819D01*
X36763333Y-92240819D02*
X37001428Y-92240819D01*
X37001428Y-92240819D02*
X37096666Y-92193200D01*
X37096666Y-92193200D02*
X37144285Y-92145580D01*
X37144285Y-92145580D02*
X37191904Y-92050342D01*
X37191904Y-92050342D02*
X37191904Y-91955104D01*
X37191904Y-91955104D02*
X37144285Y-91859866D01*
X37144285Y-91859866D02*
X37096666Y-91812247D01*
X37096666Y-91812247D02*
X37001428Y-91764628D01*
X37001428Y-91764628D02*
X36810952Y-91717009D01*
X36810952Y-91717009D02*
X36715714Y-91669390D01*
X36715714Y-91669390D02*
X36668095Y-91621771D01*
X36668095Y-91621771D02*
X36620476Y-91526533D01*
X36620476Y-91526533D02*
X36620476Y-91431295D01*
X36620476Y-91431295D02*
X36668095Y-91336057D01*
X36668095Y-91336057D02*
X36715714Y-91288438D01*
X36715714Y-91288438D02*
X36810952Y-91240819D01*
X36810952Y-91240819D02*
X37049047Y-91240819D01*
X37049047Y-91240819D02*
X37191904Y-91288438D01*
X37525238Y-91240819D02*
X37763333Y-92240819D01*
X37763333Y-92240819D02*
X37953809Y-91526533D01*
X37953809Y-91526533D02*
X38144285Y-92240819D01*
X38144285Y-92240819D02*
X38382381Y-91240819D01*
X39287142Y-92240819D02*
X38715714Y-92240819D01*
X39001428Y-92240819D02*
X39001428Y-91240819D01*
X39001428Y-91240819D02*
X38906190Y-91383676D01*
X38906190Y-91383676D02*
X38810952Y-91478914D01*
X38810952Y-91478914D02*
X38715714Y-91526533D01*
X40144285Y-91240819D02*
X39953809Y-91240819D01*
X39953809Y-91240819D02*
X39858571Y-91288438D01*
X39858571Y-91288438D02*
X39810952Y-91336057D01*
X39810952Y-91336057D02*
X39715714Y-91478914D01*
X39715714Y-91478914D02*
X39668095Y-91669390D01*
X39668095Y-91669390D02*
X39668095Y-92050342D01*
X39668095Y-92050342D02*
X39715714Y-92145580D01*
X39715714Y-92145580D02*
X39763333Y-92193200D01*
X39763333Y-92193200D02*
X39858571Y-92240819D01*
X39858571Y-92240819D02*
X40049047Y-92240819D01*
X40049047Y-92240819D02*
X40144285Y-92193200D01*
X40144285Y-92193200D02*
X40191904Y-92145580D01*
X40191904Y-92145580D02*
X40239523Y-92050342D01*
X40239523Y-92050342D02*
X40239523Y-91812247D01*
X40239523Y-91812247D02*
X40191904Y-91717009D01*
X40191904Y-91717009D02*
X40144285Y-91669390D01*
X40144285Y-91669390D02*
X40049047Y-91621771D01*
X40049047Y-91621771D02*
X39858571Y-91621771D01*
X39858571Y-91621771D02*
X39763333Y-91669390D01*
X39763333Y-91669390D02*
X39715714Y-91717009D01*
X39715714Y-91717009D02*
X39668095Y-91812247D01*
X55655476Y-73053200D02*
X55798333Y-73100819D01*
X55798333Y-73100819D02*
X56036428Y-73100819D01*
X56036428Y-73100819D02*
X56131666Y-73053200D01*
X56131666Y-73053200D02*
X56179285Y-73005580D01*
X56179285Y-73005580D02*
X56226904Y-72910342D01*
X56226904Y-72910342D02*
X56226904Y-72815104D01*
X56226904Y-72815104D02*
X56179285Y-72719866D01*
X56179285Y-72719866D02*
X56131666Y-72672247D01*
X56131666Y-72672247D02*
X56036428Y-72624628D01*
X56036428Y-72624628D02*
X55845952Y-72577009D01*
X55845952Y-72577009D02*
X55750714Y-72529390D01*
X55750714Y-72529390D02*
X55703095Y-72481771D01*
X55703095Y-72481771D02*
X55655476Y-72386533D01*
X55655476Y-72386533D02*
X55655476Y-72291295D01*
X55655476Y-72291295D02*
X55703095Y-72196057D01*
X55703095Y-72196057D02*
X55750714Y-72148438D01*
X55750714Y-72148438D02*
X55845952Y-72100819D01*
X55845952Y-72100819D02*
X56084047Y-72100819D01*
X56084047Y-72100819D02*
X56226904Y-72148438D01*
X56560238Y-72100819D02*
X56798333Y-73100819D01*
X56798333Y-73100819D02*
X56988809Y-72386533D01*
X56988809Y-72386533D02*
X57179285Y-73100819D01*
X57179285Y-73100819D02*
X57417381Y-72100819D01*
X58322142Y-73100819D02*
X57750714Y-73100819D01*
X58036428Y-73100819D02*
X58036428Y-72100819D01*
X58036428Y-72100819D02*
X57941190Y-72243676D01*
X57941190Y-72243676D02*
X57845952Y-72338914D01*
X57845952Y-72338914D02*
X57750714Y-72386533D01*
X59179285Y-72434152D02*
X59179285Y-73100819D01*
X58941190Y-72053200D02*
X58703095Y-72767485D01*
X58703095Y-72767485D02*
X59322142Y-72767485D01*
X37096667Y-53978200D02*
X37239524Y-54025819D01*
X37239524Y-54025819D02*
X37477619Y-54025819D01*
X37477619Y-54025819D02*
X37572857Y-53978200D01*
X37572857Y-53978200D02*
X37620476Y-53930580D01*
X37620476Y-53930580D02*
X37668095Y-53835342D01*
X37668095Y-53835342D02*
X37668095Y-53740104D01*
X37668095Y-53740104D02*
X37620476Y-53644866D01*
X37620476Y-53644866D02*
X37572857Y-53597247D01*
X37572857Y-53597247D02*
X37477619Y-53549628D01*
X37477619Y-53549628D02*
X37287143Y-53502009D01*
X37287143Y-53502009D02*
X37191905Y-53454390D01*
X37191905Y-53454390D02*
X37144286Y-53406771D01*
X37144286Y-53406771D02*
X37096667Y-53311533D01*
X37096667Y-53311533D02*
X37096667Y-53216295D01*
X37096667Y-53216295D02*
X37144286Y-53121057D01*
X37144286Y-53121057D02*
X37191905Y-53073438D01*
X37191905Y-53073438D02*
X37287143Y-53025819D01*
X37287143Y-53025819D02*
X37525238Y-53025819D01*
X37525238Y-53025819D02*
X37668095Y-53073438D01*
X38001429Y-53025819D02*
X38239524Y-54025819D01*
X38239524Y-54025819D02*
X38430000Y-53311533D01*
X38430000Y-53311533D02*
X38620476Y-54025819D01*
X38620476Y-54025819D02*
X38858572Y-53025819D01*
X39763333Y-54025819D02*
X39191905Y-54025819D01*
X39477619Y-54025819D02*
X39477619Y-53025819D01*
X39477619Y-53025819D02*
X39382381Y-53168676D01*
X39382381Y-53168676D02*
X39287143Y-53263914D01*
X39287143Y-53263914D02*
X39191905Y-53311533D01*
X56131667Y-53993200D02*
X56274524Y-54040819D01*
X56274524Y-54040819D02*
X56512619Y-54040819D01*
X56512619Y-54040819D02*
X56607857Y-53993200D01*
X56607857Y-53993200D02*
X56655476Y-53945580D01*
X56655476Y-53945580D02*
X56703095Y-53850342D01*
X56703095Y-53850342D02*
X56703095Y-53755104D01*
X56703095Y-53755104D02*
X56655476Y-53659866D01*
X56655476Y-53659866D02*
X56607857Y-53612247D01*
X56607857Y-53612247D02*
X56512619Y-53564628D01*
X56512619Y-53564628D02*
X56322143Y-53517009D01*
X56322143Y-53517009D02*
X56226905Y-53469390D01*
X56226905Y-53469390D02*
X56179286Y-53421771D01*
X56179286Y-53421771D02*
X56131667Y-53326533D01*
X56131667Y-53326533D02*
X56131667Y-53231295D01*
X56131667Y-53231295D02*
X56179286Y-53136057D01*
X56179286Y-53136057D02*
X56226905Y-53088438D01*
X56226905Y-53088438D02*
X56322143Y-53040819D01*
X56322143Y-53040819D02*
X56560238Y-53040819D01*
X56560238Y-53040819D02*
X56703095Y-53088438D01*
X57036429Y-53040819D02*
X57274524Y-54040819D01*
X57274524Y-54040819D02*
X57465000Y-53326533D01*
X57465000Y-53326533D02*
X57655476Y-54040819D01*
X57655476Y-54040819D02*
X57893572Y-53040819D01*
X58750714Y-53040819D02*
X58274524Y-53040819D01*
X58274524Y-53040819D02*
X58226905Y-53517009D01*
X58226905Y-53517009D02*
X58274524Y-53469390D01*
X58274524Y-53469390D02*
X58369762Y-53421771D01*
X58369762Y-53421771D02*
X58607857Y-53421771D01*
X58607857Y-53421771D02*
X58703095Y-53469390D01*
X58703095Y-53469390D02*
X58750714Y-53517009D01*
X58750714Y-53517009D02*
X58798333Y-53612247D01*
X58798333Y-53612247D02*
X58798333Y-53850342D01*
X58798333Y-53850342D02*
X58750714Y-53945580D01*
X58750714Y-53945580D02*
X58703095Y-53993200D01*
X58703095Y-53993200D02*
X58607857Y-54040819D01*
X58607857Y-54040819D02*
X58369762Y-54040819D01*
X58369762Y-54040819D02*
X58274524Y-53993200D01*
X58274524Y-53993200D02*
X58226905Y-53945580D01*
X24571666Y-102209819D02*
X24238333Y-101733628D01*
X24000238Y-102209819D02*
X24000238Y-101209819D01*
X24000238Y-101209819D02*
X24381190Y-101209819D01*
X24381190Y-101209819D02*
X24476428Y-101257438D01*
X24476428Y-101257438D02*
X24524047Y-101305057D01*
X24524047Y-101305057D02*
X24571666Y-101400295D01*
X24571666Y-101400295D02*
X24571666Y-101543152D01*
X24571666Y-101543152D02*
X24524047Y-101638390D01*
X24524047Y-101638390D02*
X24476428Y-101686009D01*
X24476428Y-101686009D02*
X24381190Y-101733628D01*
X24381190Y-101733628D02*
X24000238Y-101733628D01*
X25000238Y-101686009D02*
X25333571Y-101686009D01*
X25476428Y-102209819D02*
X25000238Y-102209819D01*
X25000238Y-102209819D02*
X25000238Y-101209819D01*
X25000238Y-101209819D02*
X25476428Y-101209819D01*
X26238333Y-101686009D02*
X25905000Y-101686009D01*
X25905000Y-102209819D02*
X25905000Y-101209819D01*
X25905000Y-101209819D02*
X26381190Y-101209819D01*
X26905000Y-101209819D02*
X26905000Y-101447914D01*
X26666905Y-101352676D02*
X26905000Y-101447914D01*
X26905000Y-101447914D02*
X27143095Y-101352676D01*
X26762143Y-101638390D02*
X26905000Y-101447914D01*
X26905000Y-101447914D02*
X27047857Y-101638390D01*
X27666905Y-101209819D02*
X27666905Y-101447914D01*
X27428810Y-101352676D02*
X27666905Y-101447914D01*
X27666905Y-101447914D02*
X27905000Y-101352676D01*
X27524048Y-101638390D02*
X27666905Y-101447914D01*
X27666905Y-101447914D02*
X27809762Y-101638390D01*
X64539819Y-101224285D02*
X63539819Y-101224285D01*
X63539819Y-101224285D02*
X63539819Y-100986190D01*
X63539819Y-100986190D02*
X63587438Y-100843333D01*
X63587438Y-100843333D02*
X63682676Y-100748095D01*
X63682676Y-100748095D02*
X63777914Y-100700476D01*
X63777914Y-100700476D02*
X63968390Y-100652857D01*
X63968390Y-100652857D02*
X64111247Y-100652857D01*
X64111247Y-100652857D02*
X64301723Y-100700476D01*
X64301723Y-100700476D02*
X64396961Y-100748095D01*
X64396961Y-100748095D02*
X64492200Y-100843333D01*
X64492200Y-100843333D02*
X64539819Y-100986190D01*
X64539819Y-100986190D02*
X64539819Y-101224285D01*
X63539819Y-100319523D02*
X63539819Y-99700476D01*
X63539819Y-99700476D02*
X63920771Y-100033809D01*
X63920771Y-100033809D02*
X63920771Y-99890952D01*
X63920771Y-99890952D02*
X63968390Y-99795714D01*
X63968390Y-99795714D02*
X64016009Y-99748095D01*
X64016009Y-99748095D02*
X64111247Y-99700476D01*
X64111247Y-99700476D02*
X64349342Y-99700476D01*
X64349342Y-99700476D02*
X64444580Y-99748095D01*
X64444580Y-99748095D02*
X64492200Y-99795714D01*
X64492200Y-99795714D02*
X64539819Y-99890952D01*
X64539819Y-99890952D02*
X64539819Y-100176666D01*
X64539819Y-100176666D02*
X64492200Y-100271904D01*
X64492200Y-100271904D02*
X64444580Y-100319523D01*
X63873152Y-98843333D02*
X64539819Y-98843333D01*
X63492200Y-99081428D02*
X64206485Y-99319523D01*
X64206485Y-99319523D02*
X64206485Y-98700476D01*
X64859819Y-104081904D02*
X63859819Y-104081904D01*
X64859819Y-103510476D02*
X64288390Y-103939047D01*
X63859819Y-103510476D02*
X64431247Y-104081904D01*
X24571666Y-36209819D02*
X24238333Y-35733628D01*
X24000238Y-36209819D02*
X24000238Y-35209819D01*
X24000238Y-35209819D02*
X24381190Y-35209819D01*
X24381190Y-35209819D02*
X24476428Y-35257438D01*
X24476428Y-35257438D02*
X24524047Y-35305057D01*
X24524047Y-35305057D02*
X24571666Y-35400295D01*
X24571666Y-35400295D02*
X24571666Y-35543152D01*
X24571666Y-35543152D02*
X24524047Y-35638390D01*
X24524047Y-35638390D02*
X24476428Y-35686009D01*
X24476428Y-35686009D02*
X24381190Y-35733628D01*
X24381190Y-35733628D02*
X24000238Y-35733628D01*
X25000238Y-35686009D02*
X25333571Y-35686009D01*
X25476428Y-36209819D02*
X25000238Y-36209819D01*
X25000238Y-36209819D02*
X25000238Y-35209819D01*
X25000238Y-35209819D02*
X25476428Y-35209819D01*
X26238333Y-35686009D02*
X25905000Y-35686009D01*
X25905000Y-36209819D02*
X25905000Y-35209819D01*
X25905000Y-35209819D02*
X26381190Y-35209819D01*
X26905000Y-35209819D02*
X26905000Y-35447914D01*
X26666905Y-35352676D02*
X26905000Y-35447914D01*
X26905000Y-35447914D02*
X27143095Y-35352676D01*
X26762143Y-35638390D02*
X26905000Y-35447914D01*
X26905000Y-35447914D02*
X27047857Y-35638390D01*
X27666905Y-35209819D02*
X27666905Y-35447914D01*
X27428810Y-35352676D02*
X27666905Y-35447914D01*
X27666905Y-35447914D02*
X27905000Y-35352676D01*
X27524048Y-35638390D02*
X27666905Y-35447914D01*
X27666905Y-35447914D02*
X27809762Y-35638390D01*
X45139819Y-63224285D02*
X44139819Y-63224285D01*
X44139819Y-63224285D02*
X44139819Y-62986190D01*
X44139819Y-62986190D02*
X44187438Y-62843333D01*
X44187438Y-62843333D02*
X44282676Y-62748095D01*
X44282676Y-62748095D02*
X44377914Y-62700476D01*
X44377914Y-62700476D02*
X44568390Y-62652857D01*
X44568390Y-62652857D02*
X44711247Y-62652857D01*
X44711247Y-62652857D02*
X44901723Y-62700476D01*
X44901723Y-62700476D02*
X44996961Y-62748095D01*
X44996961Y-62748095D02*
X45092200Y-62843333D01*
X45092200Y-62843333D02*
X45139819Y-62986190D01*
X45139819Y-62986190D02*
X45139819Y-63224285D01*
X44235057Y-62271904D02*
X44187438Y-62224285D01*
X44187438Y-62224285D02*
X44139819Y-62129047D01*
X44139819Y-62129047D02*
X44139819Y-61890952D01*
X44139819Y-61890952D02*
X44187438Y-61795714D01*
X44187438Y-61795714D02*
X44235057Y-61748095D01*
X44235057Y-61748095D02*
X44330295Y-61700476D01*
X44330295Y-61700476D02*
X44425533Y-61700476D01*
X44425533Y-61700476D02*
X44568390Y-61748095D01*
X44568390Y-61748095D02*
X45139819Y-62319523D01*
X45139819Y-62319523D02*
X45139819Y-61700476D01*
X44139819Y-61367142D02*
X44139819Y-60700476D01*
X44139819Y-60700476D02*
X45139819Y-61129047D01*
X45459819Y-66081904D02*
X44459819Y-66081904D01*
X45459819Y-65510476D02*
X44888390Y-65939047D01*
X44459819Y-65510476D02*
X45031247Y-66081904D01*
D11*
X99002666Y-46176985D02*
X99002666Y-46896652D01*
X99002666Y-46896652D02*
X99045000Y-46981318D01*
X99045000Y-46981318D02*
X99087333Y-47023652D01*
X99087333Y-47023652D02*
X99172000Y-47065985D01*
X99172000Y-47065985D02*
X99341333Y-47065985D01*
X99341333Y-47065985D02*
X99426000Y-47023652D01*
X99426000Y-47023652D02*
X99468333Y-46981318D01*
X99468333Y-46981318D02*
X99510666Y-46896652D01*
X99510666Y-46896652D02*
X99510666Y-46176985D01*
X100399666Y-47065985D02*
X99891666Y-47065985D01*
X100145666Y-47065985D02*
X100145666Y-46176985D01*
X100145666Y-46176985D02*
X100060999Y-46303985D01*
X100060999Y-46303985D02*
X99976333Y-46388652D01*
X99976333Y-46388652D02*
X99891666Y-46430985D01*
D10*
X98156191Y-44074819D02*
X98822857Y-45074819D01*
X98822857Y-44074819D02*
X98156191Y-45074819D01*
X99203810Y-45074819D02*
X99203810Y-44074819D01*
X99632381Y-44789104D02*
X100108571Y-44789104D01*
X99537143Y-45074819D02*
X99870476Y-44074819D01*
X99870476Y-44074819D02*
X100203809Y-45074819D01*
X100727619Y-44074819D02*
X100918095Y-44074819D01*
X100918095Y-44074819D02*
X101013333Y-44122438D01*
X101013333Y-44122438D02*
X101108571Y-44217676D01*
X101108571Y-44217676D02*
X101156190Y-44408152D01*
X101156190Y-44408152D02*
X101156190Y-44741485D01*
X101156190Y-44741485D02*
X101108571Y-44931961D01*
X101108571Y-44931961D02*
X101013333Y-45027200D01*
X101013333Y-45027200D02*
X100918095Y-45074819D01*
X100918095Y-45074819D02*
X100727619Y-45074819D01*
X100727619Y-45074819D02*
X100632381Y-45027200D01*
X100632381Y-45027200D02*
X100537143Y-44931961D01*
X100537143Y-44931961D02*
X100489524Y-44741485D01*
X100489524Y-44741485D02*
X100489524Y-44408152D01*
X100489524Y-44408152D02*
X100537143Y-44217676D01*
X100537143Y-44217676D02*
X100632381Y-44122438D01*
X100632381Y-44122438D02*
X100727619Y-44074819D01*
X94918095Y-43027200D02*
X95060952Y-43074819D01*
X95060952Y-43074819D02*
X95299047Y-43074819D01*
X95299047Y-43074819D02*
X95394285Y-43027200D01*
X95394285Y-43027200D02*
X95441904Y-42979580D01*
X95441904Y-42979580D02*
X95489523Y-42884342D01*
X95489523Y-42884342D02*
X95489523Y-42789104D01*
X95489523Y-42789104D02*
X95441904Y-42693866D01*
X95441904Y-42693866D02*
X95394285Y-42646247D01*
X95394285Y-42646247D02*
X95299047Y-42598628D01*
X95299047Y-42598628D02*
X95108571Y-42551009D01*
X95108571Y-42551009D02*
X95013333Y-42503390D01*
X95013333Y-42503390D02*
X94965714Y-42455771D01*
X94965714Y-42455771D02*
X94918095Y-42360533D01*
X94918095Y-42360533D02*
X94918095Y-42265295D01*
X94918095Y-42265295D02*
X94965714Y-42170057D01*
X94965714Y-42170057D02*
X95013333Y-42122438D01*
X95013333Y-42122438D02*
X95108571Y-42074819D01*
X95108571Y-42074819D02*
X95346666Y-42074819D01*
X95346666Y-42074819D02*
X95489523Y-42122438D01*
X96299047Y-43027200D02*
X96203809Y-43074819D01*
X96203809Y-43074819D02*
X96013333Y-43074819D01*
X96013333Y-43074819D02*
X95918095Y-43027200D01*
X95918095Y-43027200D02*
X95870476Y-42931961D01*
X95870476Y-42931961D02*
X95870476Y-42551009D01*
X95870476Y-42551009D02*
X95918095Y-42455771D01*
X95918095Y-42455771D02*
X96013333Y-42408152D01*
X96013333Y-42408152D02*
X96203809Y-42408152D01*
X96203809Y-42408152D02*
X96299047Y-42455771D01*
X96299047Y-42455771D02*
X96346666Y-42551009D01*
X96346666Y-42551009D02*
X96346666Y-42646247D01*
X96346666Y-42646247D02*
X95870476Y-42741485D01*
X97156190Y-43027200D02*
X97060952Y-43074819D01*
X97060952Y-43074819D02*
X96870476Y-43074819D01*
X96870476Y-43074819D02*
X96775238Y-43027200D01*
X96775238Y-43027200D02*
X96727619Y-42931961D01*
X96727619Y-42931961D02*
X96727619Y-42551009D01*
X96727619Y-42551009D02*
X96775238Y-42455771D01*
X96775238Y-42455771D02*
X96870476Y-42408152D01*
X96870476Y-42408152D02*
X97060952Y-42408152D01*
X97060952Y-42408152D02*
X97156190Y-42455771D01*
X97156190Y-42455771D02*
X97203809Y-42551009D01*
X97203809Y-42551009D02*
X97203809Y-42646247D01*
X97203809Y-42646247D02*
X96727619Y-42741485D01*
X98013333Y-43027200D02*
X97918095Y-43074819D01*
X97918095Y-43074819D02*
X97727619Y-43074819D01*
X97727619Y-43074819D02*
X97632381Y-43027200D01*
X97632381Y-43027200D02*
X97584762Y-42931961D01*
X97584762Y-42931961D02*
X97584762Y-42551009D01*
X97584762Y-42551009D02*
X97632381Y-42455771D01*
X97632381Y-42455771D02*
X97727619Y-42408152D01*
X97727619Y-42408152D02*
X97918095Y-42408152D01*
X97918095Y-42408152D02*
X98013333Y-42455771D01*
X98013333Y-42455771D02*
X98060952Y-42551009D01*
X98060952Y-42551009D02*
X98060952Y-42646247D01*
X98060952Y-42646247D02*
X97584762Y-42741485D01*
X98918095Y-43074819D02*
X98918095Y-42074819D01*
X98918095Y-43027200D02*
X98822857Y-43074819D01*
X98822857Y-43074819D02*
X98632381Y-43074819D01*
X98632381Y-43074819D02*
X98537143Y-43027200D01*
X98537143Y-43027200D02*
X98489524Y-42979580D01*
X98489524Y-42979580D02*
X98441905Y-42884342D01*
X98441905Y-42884342D02*
X98441905Y-42598628D01*
X98441905Y-42598628D02*
X98489524Y-42503390D01*
X98489524Y-42503390D02*
X98537143Y-42455771D01*
X98537143Y-42455771D02*
X98632381Y-42408152D01*
X98632381Y-42408152D02*
X98822857Y-42408152D01*
X98822857Y-42408152D02*
X98918095Y-42455771D01*
X100108572Y-43027200D02*
X100251429Y-43074819D01*
X100251429Y-43074819D02*
X100489524Y-43074819D01*
X100489524Y-43074819D02*
X100584762Y-43027200D01*
X100584762Y-43027200D02*
X100632381Y-42979580D01*
X100632381Y-42979580D02*
X100680000Y-42884342D01*
X100680000Y-42884342D02*
X100680000Y-42789104D01*
X100680000Y-42789104D02*
X100632381Y-42693866D01*
X100632381Y-42693866D02*
X100584762Y-42646247D01*
X100584762Y-42646247D02*
X100489524Y-42598628D01*
X100489524Y-42598628D02*
X100299048Y-42551009D01*
X100299048Y-42551009D02*
X100203810Y-42503390D01*
X100203810Y-42503390D02*
X100156191Y-42455771D01*
X100156191Y-42455771D02*
X100108572Y-42360533D01*
X100108572Y-42360533D02*
X100108572Y-42265295D01*
X100108572Y-42265295D02*
X100156191Y-42170057D01*
X100156191Y-42170057D02*
X100203810Y-42122438D01*
X100203810Y-42122438D02*
X100299048Y-42074819D01*
X100299048Y-42074819D02*
X100537143Y-42074819D01*
X100537143Y-42074819D02*
X100680000Y-42122438D01*
X100965715Y-42408152D02*
X101346667Y-42408152D01*
X101108572Y-42074819D02*
X101108572Y-42931961D01*
X101108572Y-42931961D02*
X101156191Y-43027200D01*
X101156191Y-43027200D02*
X101251429Y-43074819D01*
X101251429Y-43074819D02*
X101346667Y-43074819D01*
X102108572Y-42408152D02*
X102108572Y-43074819D01*
X101680001Y-42408152D02*
X101680001Y-42931961D01*
X101680001Y-42931961D02*
X101727620Y-43027200D01*
X101727620Y-43027200D02*
X101822858Y-43074819D01*
X101822858Y-43074819D02*
X101965715Y-43074819D01*
X101965715Y-43074819D02*
X102060953Y-43027200D01*
X102060953Y-43027200D02*
X102108572Y-42979580D01*
X103013334Y-43074819D02*
X103013334Y-42074819D01*
X103013334Y-43027200D02*
X102918096Y-43074819D01*
X102918096Y-43074819D02*
X102727620Y-43074819D01*
X102727620Y-43074819D02*
X102632382Y-43027200D01*
X102632382Y-43027200D02*
X102584763Y-42979580D01*
X102584763Y-42979580D02*
X102537144Y-42884342D01*
X102537144Y-42884342D02*
X102537144Y-42598628D01*
X102537144Y-42598628D02*
X102584763Y-42503390D01*
X102584763Y-42503390D02*
X102632382Y-42455771D01*
X102632382Y-42455771D02*
X102727620Y-42408152D01*
X102727620Y-42408152D02*
X102918096Y-42408152D01*
X102918096Y-42408152D02*
X103013334Y-42455771D01*
X103489525Y-43074819D02*
X103489525Y-42408152D01*
X103489525Y-42074819D02*
X103441906Y-42122438D01*
X103441906Y-42122438D02*
X103489525Y-42170057D01*
X103489525Y-42170057D02*
X103537144Y-42122438D01*
X103537144Y-42122438D02*
X103489525Y-42074819D01*
X103489525Y-42074819D02*
X103489525Y-42170057D01*
X104108572Y-43074819D02*
X104013334Y-43027200D01*
X104013334Y-43027200D02*
X103965715Y-42979580D01*
X103965715Y-42979580D02*
X103918096Y-42884342D01*
X103918096Y-42884342D02*
X103918096Y-42598628D01*
X103918096Y-42598628D02*
X103965715Y-42503390D01*
X103965715Y-42503390D02*
X104013334Y-42455771D01*
X104013334Y-42455771D02*
X104108572Y-42408152D01*
X104108572Y-42408152D02*
X104251429Y-42408152D01*
X104251429Y-42408152D02*
X104346667Y-42455771D01*
X104346667Y-42455771D02*
X104394286Y-42503390D01*
X104394286Y-42503390D02*
X104441905Y-42598628D01*
X104441905Y-42598628D02*
X104441905Y-42884342D01*
X104441905Y-42884342D02*
X104394286Y-42979580D01*
X104394286Y-42979580D02*
X104346667Y-43027200D01*
X104346667Y-43027200D02*
X104251429Y-43074819D01*
X104251429Y-43074819D02*
X104108572Y-43074819D01*
X83439819Y-101224285D02*
X82439819Y-101224285D01*
X82439819Y-101224285D02*
X82439819Y-100986190D01*
X82439819Y-100986190D02*
X82487438Y-100843333D01*
X82487438Y-100843333D02*
X82582676Y-100748095D01*
X82582676Y-100748095D02*
X82677914Y-100700476D01*
X82677914Y-100700476D02*
X82868390Y-100652857D01*
X82868390Y-100652857D02*
X83011247Y-100652857D01*
X83011247Y-100652857D02*
X83201723Y-100700476D01*
X83201723Y-100700476D02*
X83296961Y-100748095D01*
X83296961Y-100748095D02*
X83392200Y-100843333D01*
X83392200Y-100843333D02*
X83439819Y-100986190D01*
X83439819Y-100986190D02*
X83439819Y-101224285D01*
X82439819Y-100319523D02*
X82439819Y-99700476D01*
X82439819Y-99700476D02*
X82820771Y-100033809D01*
X82820771Y-100033809D02*
X82820771Y-99890952D01*
X82820771Y-99890952D02*
X82868390Y-99795714D01*
X82868390Y-99795714D02*
X82916009Y-99748095D01*
X82916009Y-99748095D02*
X83011247Y-99700476D01*
X83011247Y-99700476D02*
X83249342Y-99700476D01*
X83249342Y-99700476D02*
X83344580Y-99748095D01*
X83344580Y-99748095D02*
X83392200Y-99795714D01*
X83392200Y-99795714D02*
X83439819Y-99890952D01*
X83439819Y-99890952D02*
X83439819Y-100176666D01*
X83439819Y-100176666D02*
X83392200Y-100271904D01*
X83392200Y-100271904D02*
X83344580Y-100319523D01*
X82439819Y-98795714D02*
X82439819Y-99271904D01*
X82439819Y-99271904D02*
X82916009Y-99319523D01*
X82916009Y-99319523D02*
X82868390Y-99271904D01*
X82868390Y-99271904D02*
X82820771Y-99176666D01*
X82820771Y-99176666D02*
X82820771Y-98938571D01*
X82820771Y-98938571D02*
X82868390Y-98843333D01*
X82868390Y-98843333D02*
X82916009Y-98795714D01*
X82916009Y-98795714D02*
X83011247Y-98748095D01*
X83011247Y-98748095D02*
X83249342Y-98748095D01*
X83249342Y-98748095D02*
X83344580Y-98795714D01*
X83344580Y-98795714D02*
X83392200Y-98843333D01*
X83392200Y-98843333D02*
X83439819Y-98938571D01*
X83439819Y-98938571D02*
X83439819Y-99176666D01*
X83439819Y-99176666D02*
X83392200Y-99271904D01*
X83392200Y-99271904D02*
X83344580Y-99319523D01*
X83759819Y-104081904D02*
X82759819Y-104081904D01*
X83759819Y-103510476D02*
X83188390Y-103939047D01*
X82759819Y-103510476D02*
X83331247Y-104081904D01*
X55655476Y-92193200D02*
X55798333Y-92240819D01*
X55798333Y-92240819D02*
X56036428Y-92240819D01*
X56036428Y-92240819D02*
X56131666Y-92193200D01*
X56131666Y-92193200D02*
X56179285Y-92145580D01*
X56179285Y-92145580D02*
X56226904Y-92050342D01*
X56226904Y-92050342D02*
X56226904Y-91955104D01*
X56226904Y-91955104D02*
X56179285Y-91859866D01*
X56179285Y-91859866D02*
X56131666Y-91812247D01*
X56131666Y-91812247D02*
X56036428Y-91764628D01*
X56036428Y-91764628D02*
X55845952Y-91717009D01*
X55845952Y-91717009D02*
X55750714Y-91669390D01*
X55750714Y-91669390D02*
X55703095Y-91621771D01*
X55703095Y-91621771D02*
X55655476Y-91526533D01*
X55655476Y-91526533D02*
X55655476Y-91431295D01*
X55655476Y-91431295D02*
X55703095Y-91336057D01*
X55703095Y-91336057D02*
X55750714Y-91288438D01*
X55750714Y-91288438D02*
X55845952Y-91240819D01*
X55845952Y-91240819D02*
X56084047Y-91240819D01*
X56084047Y-91240819D02*
X56226904Y-91288438D01*
X56560238Y-91240819D02*
X56798333Y-92240819D01*
X56798333Y-92240819D02*
X56988809Y-91526533D01*
X56988809Y-91526533D02*
X57179285Y-92240819D01*
X57179285Y-92240819D02*
X57417381Y-91240819D01*
X58322142Y-92240819D02*
X57750714Y-92240819D01*
X58036428Y-92240819D02*
X58036428Y-91240819D01*
X58036428Y-91240819D02*
X57941190Y-91383676D01*
X57941190Y-91383676D02*
X57845952Y-91478914D01*
X57845952Y-91478914D02*
X57750714Y-91526533D01*
X58893571Y-91669390D02*
X58798333Y-91621771D01*
X58798333Y-91621771D02*
X58750714Y-91574152D01*
X58750714Y-91574152D02*
X58703095Y-91478914D01*
X58703095Y-91478914D02*
X58703095Y-91431295D01*
X58703095Y-91431295D02*
X58750714Y-91336057D01*
X58750714Y-91336057D02*
X58798333Y-91288438D01*
X58798333Y-91288438D02*
X58893571Y-91240819D01*
X58893571Y-91240819D02*
X59084047Y-91240819D01*
X59084047Y-91240819D02*
X59179285Y-91288438D01*
X59179285Y-91288438D02*
X59226904Y-91336057D01*
X59226904Y-91336057D02*
X59274523Y-91431295D01*
X59274523Y-91431295D02*
X59274523Y-91478914D01*
X59274523Y-91478914D02*
X59226904Y-91574152D01*
X59226904Y-91574152D02*
X59179285Y-91621771D01*
X59179285Y-91621771D02*
X59084047Y-91669390D01*
X59084047Y-91669390D02*
X58893571Y-91669390D01*
X58893571Y-91669390D02*
X58798333Y-91717009D01*
X58798333Y-91717009D02*
X58750714Y-91764628D01*
X58750714Y-91764628D02*
X58703095Y-91859866D01*
X58703095Y-91859866D02*
X58703095Y-92050342D01*
X58703095Y-92050342D02*
X58750714Y-92145580D01*
X58750714Y-92145580D02*
X58798333Y-92193200D01*
X58798333Y-92193200D02*
X58893571Y-92240819D01*
X58893571Y-92240819D02*
X59084047Y-92240819D01*
X59084047Y-92240819D02*
X59179285Y-92193200D01*
X59179285Y-92193200D02*
X59226904Y-92145580D01*
X59226904Y-92145580D02*
X59274523Y-92050342D01*
X59274523Y-92050342D02*
X59274523Y-91859866D01*
X59274523Y-91859866D02*
X59226904Y-91764628D01*
X59226904Y-91764628D02*
X59179285Y-91717009D01*
X59179285Y-91717009D02*
X59084047Y-91669390D01*
X64039819Y-63224285D02*
X63039819Y-63224285D01*
X63039819Y-63224285D02*
X63039819Y-62986190D01*
X63039819Y-62986190D02*
X63087438Y-62843333D01*
X63087438Y-62843333D02*
X63182676Y-62748095D01*
X63182676Y-62748095D02*
X63277914Y-62700476D01*
X63277914Y-62700476D02*
X63468390Y-62652857D01*
X63468390Y-62652857D02*
X63611247Y-62652857D01*
X63611247Y-62652857D02*
X63801723Y-62700476D01*
X63801723Y-62700476D02*
X63896961Y-62748095D01*
X63896961Y-62748095D02*
X63992200Y-62843333D01*
X63992200Y-62843333D02*
X64039819Y-62986190D01*
X64039819Y-62986190D02*
X64039819Y-63224285D01*
X63135057Y-62271904D02*
X63087438Y-62224285D01*
X63087438Y-62224285D02*
X63039819Y-62129047D01*
X63039819Y-62129047D02*
X63039819Y-61890952D01*
X63039819Y-61890952D02*
X63087438Y-61795714D01*
X63087438Y-61795714D02*
X63135057Y-61748095D01*
X63135057Y-61748095D02*
X63230295Y-61700476D01*
X63230295Y-61700476D02*
X63325533Y-61700476D01*
X63325533Y-61700476D02*
X63468390Y-61748095D01*
X63468390Y-61748095D02*
X64039819Y-62319523D01*
X64039819Y-62319523D02*
X64039819Y-61700476D01*
X63468390Y-61129047D02*
X63420771Y-61224285D01*
X63420771Y-61224285D02*
X63373152Y-61271904D01*
X63373152Y-61271904D02*
X63277914Y-61319523D01*
X63277914Y-61319523D02*
X63230295Y-61319523D01*
X63230295Y-61319523D02*
X63135057Y-61271904D01*
X63135057Y-61271904D02*
X63087438Y-61224285D01*
X63087438Y-61224285D02*
X63039819Y-61129047D01*
X63039819Y-61129047D02*
X63039819Y-60938571D01*
X63039819Y-60938571D02*
X63087438Y-60843333D01*
X63087438Y-60843333D02*
X63135057Y-60795714D01*
X63135057Y-60795714D02*
X63230295Y-60748095D01*
X63230295Y-60748095D02*
X63277914Y-60748095D01*
X63277914Y-60748095D02*
X63373152Y-60795714D01*
X63373152Y-60795714D02*
X63420771Y-60843333D01*
X63420771Y-60843333D02*
X63468390Y-60938571D01*
X63468390Y-60938571D02*
X63468390Y-61129047D01*
X63468390Y-61129047D02*
X63516009Y-61224285D01*
X63516009Y-61224285D02*
X63563628Y-61271904D01*
X63563628Y-61271904D02*
X63658866Y-61319523D01*
X63658866Y-61319523D02*
X63849342Y-61319523D01*
X63849342Y-61319523D02*
X63944580Y-61271904D01*
X63944580Y-61271904D02*
X63992200Y-61224285D01*
X63992200Y-61224285D02*
X64039819Y-61129047D01*
X64039819Y-61129047D02*
X64039819Y-60938571D01*
X64039819Y-60938571D02*
X63992200Y-60843333D01*
X63992200Y-60843333D02*
X63944580Y-60795714D01*
X63944580Y-60795714D02*
X63849342Y-60748095D01*
X63849342Y-60748095D02*
X63658866Y-60748095D01*
X63658866Y-60748095D02*
X63563628Y-60795714D01*
X63563628Y-60795714D02*
X63516009Y-60843333D01*
X63516009Y-60843333D02*
X63468390Y-60938571D01*
X64359819Y-66081904D02*
X63359819Y-66081904D01*
X64359819Y-65510476D02*
X63788390Y-65939047D01*
X63359819Y-65510476D02*
X63931247Y-66081904D01*
X45139819Y-82324285D02*
X44139819Y-82324285D01*
X44139819Y-82324285D02*
X44139819Y-82086190D01*
X44139819Y-82086190D02*
X44187438Y-81943333D01*
X44187438Y-81943333D02*
X44282676Y-81848095D01*
X44282676Y-81848095D02*
X44377914Y-81800476D01*
X44377914Y-81800476D02*
X44568390Y-81752857D01*
X44568390Y-81752857D02*
X44711247Y-81752857D01*
X44711247Y-81752857D02*
X44901723Y-81800476D01*
X44901723Y-81800476D02*
X44996961Y-81848095D01*
X44996961Y-81848095D02*
X45092200Y-81943333D01*
X45092200Y-81943333D02*
X45139819Y-82086190D01*
X45139819Y-82086190D02*
X45139819Y-82324285D01*
X44139819Y-81419523D02*
X44139819Y-80800476D01*
X44139819Y-80800476D02*
X44520771Y-81133809D01*
X44520771Y-81133809D02*
X44520771Y-80990952D01*
X44520771Y-80990952D02*
X44568390Y-80895714D01*
X44568390Y-80895714D02*
X44616009Y-80848095D01*
X44616009Y-80848095D02*
X44711247Y-80800476D01*
X44711247Y-80800476D02*
X44949342Y-80800476D01*
X44949342Y-80800476D02*
X45044580Y-80848095D01*
X45044580Y-80848095D02*
X45092200Y-80895714D01*
X45092200Y-80895714D02*
X45139819Y-80990952D01*
X45139819Y-80990952D02*
X45139819Y-81276666D01*
X45139819Y-81276666D02*
X45092200Y-81371904D01*
X45092200Y-81371904D02*
X45044580Y-81419523D01*
X44139819Y-80181428D02*
X44139819Y-80086190D01*
X44139819Y-80086190D02*
X44187438Y-79990952D01*
X44187438Y-79990952D02*
X44235057Y-79943333D01*
X44235057Y-79943333D02*
X44330295Y-79895714D01*
X44330295Y-79895714D02*
X44520771Y-79848095D01*
X44520771Y-79848095D02*
X44758866Y-79848095D01*
X44758866Y-79848095D02*
X44949342Y-79895714D01*
X44949342Y-79895714D02*
X45044580Y-79943333D01*
X45044580Y-79943333D02*
X45092200Y-79990952D01*
X45092200Y-79990952D02*
X45139819Y-80086190D01*
X45139819Y-80086190D02*
X45139819Y-80181428D01*
X45139819Y-80181428D02*
X45092200Y-80276666D01*
X45092200Y-80276666D02*
X45044580Y-80324285D01*
X45044580Y-80324285D02*
X44949342Y-80371904D01*
X44949342Y-80371904D02*
X44758866Y-80419523D01*
X44758866Y-80419523D02*
X44520771Y-80419523D01*
X44520771Y-80419523D02*
X44330295Y-80371904D01*
X44330295Y-80371904D02*
X44235057Y-80324285D01*
X44235057Y-80324285D02*
X44187438Y-80276666D01*
X44187438Y-80276666D02*
X44139819Y-80181428D01*
X45459819Y-85181904D02*
X44459819Y-85181904D01*
X45459819Y-84610476D02*
X44888390Y-85039047D01*
X44459819Y-84610476D02*
X45031247Y-85181904D01*
X31895476Y-35165200D02*
X32038333Y-35212819D01*
X32038333Y-35212819D02*
X32276428Y-35212819D01*
X32276428Y-35212819D02*
X32371666Y-35165200D01*
X32371666Y-35165200D02*
X32419285Y-35117580D01*
X32419285Y-35117580D02*
X32466904Y-35022342D01*
X32466904Y-35022342D02*
X32466904Y-34927104D01*
X32466904Y-34927104D02*
X32419285Y-34831866D01*
X32419285Y-34831866D02*
X32371666Y-34784247D01*
X32371666Y-34784247D02*
X32276428Y-34736628D01*
X32276428Y-34736628D02*
X32085952Y-34689009D01*
X32085952Y-34689009D02*
X31990714Y-34641390D01*
X31990714Y-34641390D02*
X31943095Y-34593771D01*
X31943095Y-34593771D02*
X31895476Y-34498533D01*
X31895476Y-34498533D02*
X31895476Y-34403295D01*
X31895476Y-34403295D02*
X31943095Y-34308057D01*
X31943095Y-34308057D02*
X31990714Y-34260438D01*
X31990714Y-34260438D02*
X32085952Y-34212819D01*
X32085952Y-34212819D02*
X32324047Y-34212819D01*
X32324047Y-34212819D02*
X32466904Y-34260438D01*
X32800238Y-34212819D02*
X33038333Y-35212819D01*
X33038333Y-35212819D02*
X33228809Y-34498533D01*
X33228809Y-34498533D02*
X33419285Y-35212819D01*
X33419285Y-35212819D02*
X33657381Y-34212819D01*
X34562142Y-35212819D02*
X33990714Y-35212819D01*
X34276428Y-35212819D02*
X34276428Y-34212819D01*
X34276428Y-34212819D02*
X34181190Y-34355676D01*
X34181190Y-34355676D02*
X34085952Y-34450914D01*
X34085952Y-34450914D02*
X33990714Y-34498533D01*
X34895476Y-34212819D02*
X35562142Y-34212819D01*
X35562142Y-34212819D02*
X35133571Y-35212819D01*
X83239819Y-82324285D02*
X82239819Y-82324285D01*
X82239819Y-82324285D02*
X82239819Y-82086190D01*
X82239819Y-82086190D02*
X82287438Y-81943333D01*
X82287438Y-81943333D02*
X82382676Y-81848095D01*
X82382676Y-81848095D02*
X82477914Y-81800476D01*
X82477914Y-81800476D02*
X82668390Y-81752857D01*
X82668390Y-81752857D02*
X82811247Y-81752857D01*
X82811247Y-81752857D02*
X83001723Y-81800476D01*
X83001723Y-81800476D02*
X83096961Y-81848095D01*
X83096961Y-81848095D02*
X83192200Y-81943333D01*
X83192200Y-81943333D02*
X83239819Y-82086190D01*
X83239819Y-82086190D02*
X83239819Y-82324285D01*
X82239819Y-81419523D02*
X82239819Y-80800476D01*
X82239819Y-80800476D02*
X82620771Y-81133809D01*
X82620771Y-81133809D02*
X82620771Y-80990952D01*
X82620771Y-80990952D02*
X82668390Y-80895714D01*
X82668390Y-80895714D02*
X82716009Y-80848095D01*
X82716009Y-80848095D02*
X82811247Y-80800476D01*
X82811247Y-80800476D02*
X83049342Y-80800476D01*
X83049342Y-80800476D02*
X83144580Y-80848095D01*
X83144580Y-80848095D02*
X83192200Y-80895714D01*
X83192200Y-80895714D02*
X83239819Y-80990952D01*
X83239819Y-80990952D02*
X83239819Y-81276666D01*
X83239819Y-81276666D02*
X83192200Y-81371904D01*
X83192200Y-81371904D02*
X83144580Y-81419523D01*
X82335057Y-80419523D02*
X82287438Y-80371904D01*
X82287438Y-80371904D02*
X82239819Y-80276666D01*
X82239819Y-80276666D02*
X82239819Y-80038571D01*
X82239819Y-80038571D02*
X82287438Y-79943333D01*
X82287438Y-79943333D02*
X82335057Y-79895714D01*
X82335057Y-79895714D02*
X82430295Y-79848095D01*
X82430295Y-79848095D02*
X82525533Y-79848095D01*
X82525533Y-79848095D02*
X82668390Y-79895714D01*
X82668390Y-79895714D02*
X83239819Y-80467142D01*
X83239819Y-80467142D02*
X83239819Y-79848095D01*
X83559819Y-85181904D02*
X82559819Y-85181904D01*
X83559819Y-84610476D02*
X82988390Y-85039047D01*
X82559819Y-84610476D02*
X83131247Y-85181904D01*
X64139819Y-82324285D02*
X63139819Y-82324285D01*
X63139819Y-82324285D02*
X63139819Y-82086190D01*
X63139819Y-82086190D02*
X63187438Y-81943333D01*
X63187438Y-81943333D02*
X63282676Y-81848095D01*
X63282676Y-81848095D02*
X63377914Y-81800476D01*
X63377914Y-81800476D02*
X63568390Y-81752857D01*
X63568390Y-81752857D02*
X63711247Y-81752857D01*
X63711247Y-81752857D02*
X63901723Y-81800476D01*
X63901723Y-81800476D02*
X63996961Y-81848095D01*
X63996961Y-81848095D02*
X64092200Y-81943333D01*
X64092200Y-81943333D02*
X64139819Y-82086190D01*
X64139819Y-82086190D02*
X64139819Y-82324285D01*
X63139819Y-81419523D02*
X63139819Y-80800476D01*
X63139819Y-80800476D02*
X63520771Y-81133809D01*
X63520771Y-81133809D02*
X63520771Y-80990952D01*
X63520771Y-80990952D02*
X63568390Y-80895714D01*
X63568390Y-80895714D02*
X63616009Y-80848095D01*
X63616009Y-80848095D02*
X63711247Y-80800476D01*
X63711247Y-80800476D02*
X63949342Y-80800476D01*
X63949342Y-80800476D02*
X64044580Y-80848095D01*
X64044580Y-80848095D02*
X64092200Y-80895714D01*
X64092200Y-80895714D02*
X64139819Y-80990952D01*
X64139819Y-80990952D02*
X64139819Y-81276666D01*
X64139819Y-81276666D02*
X64092200Y-81371904D01*
X64092200Y-81371904D02*
X64044580Y-81419523D01*
X64139819Y-79848095D02*
X64139819Y-80419523D01*
X64139819Y-80133809D02*
X63139819Y-80133809D01*
X63139819Y-80133809D02*
X63282676Y-80229047D01*
X63282676Y-80229047D02*
X63377914Y-80324285D01*
X63377914Y-80324285D02*
X63425533Y-80419523D01*
X64459819Y-85181904D02*
X63459819Y-85181904D01*
X64459819Y-84610476D02*
X63888390Y-85039047D01*
X63459819Y-84610476D02*
X64031247Y-85181904D01*
X45239819Y-101224285D02*
X44239819Y-101224285D01*
X44239819Y-101224285D02*
X44239819Y-100986190D01*
X44239819Y-100986190D02*
X44287438Y-100843333D01*
X44287438Y-100843333D02*
X44382676Y-100748095D01*
X44382676Y-100748095D02*
X44477914Y-100700476D01*
X44477914Y-100700476D02*
X44668390Y-100652857D01*
X44668390Y-100652857D02*
X44811247Y-100652857D01*
X44811247Y-100652857D02*
X45001723Y-100700476D01*
X45001723Y-100700476D02*
X45096961Y-100748095D01*
X45096961Y-100748095D02*
X45192200Y-100843333D01*
X45192200Y-100843333D02*
X45239819Y-100986190D01*
X45239819Y-100986190D02*
X45239819Y-101224285D01*
X44239819Y-100319523D02*
X44239819Y-99700476D01*
X44239819Y-99700476D02*
X44620771Y-100033809D01*
X44620771Y-100033809D02*
X44620771Y-99890952D01*
X44620771Y-99890952D02*
X44668390Y-99795714D01*
X44668390Y-99795714D02*
X44716009Y-99748095D01*
X44716009Y-99748095D02*
X44811247Y-99700476D01*
X44811247Y-99700476D02*
X45049342Y-99700476D01*
X45049342Y-99700476D02*
X45144580Y-99748095D01*
X45144580Y-99748095D02*
X45192200Y-99795714D01*
X45192200Y-99795714D02*
X45239819Y-99890952D01*
X45239819Y-99890952D02*
X45239819Y-100176666D01*
X45239819Y-100176666D02*
X45192200Y-100271904D01*
X45192200Y-100271904D02*
X45144580Y-100319523D01*
X44239819Y-99367142D02*
X44239819Y-98748095D01*
X44239819Y-98748095D02*
X44620771Y-99081428D01*
X44620771Y-99081428D02*
X44620771Y-98938571D01*
X44620771Y-98938571D02*
X44668390Y-98843333D01*
X44668390Y-98843333D02*
X44716009Y-98795714D01*
X44716009Y-98795714D02*
X44811247Y-98748095D01*
X44811247Y-98748095D02*
X45049342Y-98748095D01*
X45049342Y-98748095D02*
X45144580Y-98795714D01*
X45144580Y-98795714D02*
X45192200Y-98843333D01*
X45192200Y-98843333D02*
X45239819Y-98938571D01*
X45239819Y-98938571D02*
X45239819Y-99224285D01*
X45239819Y-99224285D02*
X45192200Y-99319523D01*
X45192200Y-99319523D02*
X45144580Y-99367142D01*
X45559819Y-104081904D02*
X44559819Y-104081904D01*
X45559819Y-103510476D02*
X44988390Y-103939047D01*
X44559819Y-103510476D02*
X45131247Y-104081904D01*
X106571666Y-102209819D02*
X106238333Y-101733628D01*
X106000238Y-102209819D02*
X106000238Y-101209819D01*
X106000238Y-101209819D02*
X106381190Y-101209819D01*
X106381190Y-101209819D02*
X106476428Y-101257438D01*
X106476428Y-101257438D02*
X106524047Y-101305057D01*
X106524047Y-101305057D02*
X106571666Y-101400295D01*
X106571666Y-101400295D02*
X106571666Y-101543152D01*
X106571666Y-101543152D02*
X106524047Y-101638390D01*
X106524047Y-101638390D02*
X106476428Y-101686009D01*
X106476428Y-101686009D02*
X106381190Y-101733628D01*
X106381190Y-101733628D02*
X106000238Y-101733628D01*
X107000238Y-101686009D02*
X107333571Y-101686009D01*
X107476428Y-102209819D02*
X107000238Y-102209819D01*
X107000238Y-102209819D02*
X107000238Y-101209819D01*
X107000238Y-101209819D02*
X107476428Y-101209819D01*
X108238333Y-101686009D02*
X107905000Y-101686009D01*
X107905000Y-102209819D02*
X107905000Y-101209819D01*
X107905000Y-101209819D02*
X108381190Y-101209819D01*
X108905000Y-101209819D02*
X108905000Y-101447914D01*
X108666905Y-101352676D02*
X108905000Y-101447914D01*
X108905000Y-101447914D02*
X109143095Y-101352676D01*
X108762143Y-101638390D02*
X108905000Y-101447914D01*
X108905000Y-101447914D02*
X109047857Y-101638390D01*
X109666905Y-101209819D02*
X109666905Y-101447914D01*
X109428810Y-101352676D02*
X109666905Y-101447914D01*
X109666905Y-101447914D02*
X109905000Y-101352676D01*
X109524048Y-101638390D02*
X109666905Y-101447914D01*
X109666905Y-101447914D02*
X109809762Y-101638390D01*
X52121666Y-34212819D02*
X52121666Y-34927104D01*
X52121666Y-34927104D02*
X52074047Y-35069961D01*
X52074047Y-35069961D02*
X51978809Y-35165200D01*
X51978809Y-35165200D02*
X51835952Y-35212819D01*
X51835952Y-35212819D02*
X51740714Y-35212819D01*
X53121666Y-35212819D02*
X52550238Y-35212819D01*
X52835952Y-35212819D02*
X52835952Y-34212819D01*
X52835952Y-34212819D02*
X52740714Y-34355676D01*
X52740714Y-34355676D02*
X52645476Y-34450914D01*
X52645476Y-34450914D02*
X52550238Y-34498533D01*
X106571666Y-65209819D02*
X106238333Y-64733628D01*
X106000238Y-65209819D02*
X106000238Y-64209819D01*
X106000238Y-64209819D02*
X106381190Y-64209819D01*
X106381190Y-64209819D02*
X106476428Y-64257438D01*
X106476428Y-64257438D02*
X106524047Y-64305057D01*
X106524047Y-64305057D02*
X106571666Y-64400295D01*
X106571666Y-64400295D02*
X106571666Y-64543152D01*
X106571666Y-64543152D02*
X106524047Y-64638390D01*
X106524047Y-64638390D02*
X106476428Y-64686009D01*
X106476428Y-64686009D02*
X106381190Y-64733628D01*
X106381190Y-64733628D02*
X106000238Y-64733628D01*
X107000238Y-64686009D02*
X107333571Y-64686009D01*
X107476428Y-65209819D02*
X107000238Y-65209819D01*
X107000238Y-65209819D02*
X107000238Y-64209819D01*
X107000238Y-64209819D02*
X107476428Y-64209819D01*
X108238333Y-64686009D02*
X107905000Y-64686009D01*
X107905000Y-65209819D02*
X107905000Y-64209819D01*
X107905000Y-64209819D02*
X108381190Y-64209819D01*
X108905000Y-64209819D02*
X108905000Y-64447914D01*
X108666905Y-64352676D02*
X108905000Y-64447914D01*
X108905000Y-64447914D02*
X109143095Y-64352676D01*
X108762143Y-64638390D02*
X108905000Y-64447914D01*
X108905000Y-64447914D02*
X109047857Y-64638390D01*
X109666905Y-64209819D02*
X109666905Y-64447914D01*
X109428810Y-64352676D02*
X109666905Y-64447914D01*
X109666905Y-64447914D02*
X109905000Y-64352676D01*
X109524048Y-64638390D02*
X109666905Y-64447914D01*
X109666905Y-64447914D02*
X109809762Y-64638390D01*
X74640476Y-92193200D02*
X74783333Y-92240819D01*
X74783333Y-92240819D02*
X75021428Y-92240819D01*
X75021428Y-92240819D02*
X75116666Y-92193200D01*
X75116666Y-92193200D02*
X75164285Y-92145580D01*
X75164285Y-92145580D02*
X75211904Y-92050342D01*
X75211904Y-92050342D02*
X75211904Y-91955104D01*
X75211904Y-91955104D02*
X75164285Y-91859866D01*
X75164285Y-91859866D02*
X75116666Y-91812247D01*
X75116666Y-91812247D02*
X75021428Y-91764628D01*
X75021428Y-91764628D02*
X74830952Y-91717009D01*
X74830952Y-91717009D02*
X74735714Y-91669390D01*
X74735714Y-91669390D02*
X74688095Y-91621771D01*
X74688095Y-91621771D02*
X74640476Y-91526533D01*
X74640476Y-91526533D02*
X74640476Y-91431295D01*
X74640476Y-91431295D02*
X74688095Y-91336057D01*
X74688095Y-91336057D02*
X74735714Y-91288438D01*
X74735714Y-91288438D02*
X74830952Y-91240819D01*
X74830952Y-91240819D02*
X75069047Y-91240819D01*
X75069047Y-91240819D02*
X75211904Y-91288438D01*
X75545238Y-91240819D02*
X75783333Y-92240819D01*
X75783333Y-92240819D02*
X75973809Y-91526533D01*
X75973809Y-91526533D02*
X76164285Y-92240819D01*
X76164285Y-92240819D02*
X76402381Y-91240819D01*
X77307142Y-92240819D02*
X76735714Y-92240819D01*
X77021428Y-92240819D02*
X77021428Y-91240819D01*
X77021428Y-91240819D02*
X76926190Y-91383676D01*
X76926190Y-91383676D02*
X76830952Y-91478914D01*
X76830952Y-91478914D02*
X76735714Y-91526533D01*
X77783333Y-92240819D02*
X77973809Y-92240819D01*
X77973809Y-92240819D02*
X78069047Y-92193200D01*
X78069047Y-92193200D02*
X78116666Y-92145580D01*
X78116666Y-92145580D02*
X78211904Y-92002723D01*
X78211904Y-92002723D02*
X78259523Y-91812247D01*
X78259523Y-91812247D02*
X78259523Y-91431295D01*
X78259523Y-91431295D02*
X78211904Y-91336057D01*
X78211904Y-91336057D02*
X78164285Y-91288438D01*
X78164285Y-91288438D02*
X78069047Y-91240819D01*
X78069047Y-91240819D02*
X77878571Y-91240819D01*
X77878571Y-91240819D02*
X77783333Y-91288438D01*
X77783333Y-91288438D02*
X77735714Y-91336057D01*
X77735714Y-91336057D02*
X77688095Y-91431295D01*
X77688095Y-91431295D02*
X77688095Y-91669390D01*
X77688095Y-91669390D02*
X77735714Y-91764628D01*
X77735714Y-91764628D02*
X77783333Y-91812247D01*
X77783333Y-91812247D02*
X77878571Y-91859866D01*
X77878571Y-91859866D02*
X78069047Y-91859866D01*
X78069047Y-91859866D02*
X78164285Y-91812247D01*
X78164285Y-91812247D02*
X78211904Y-91764628D01*
X78211904Y-91764628D02*
X78259523Y-91669390D01*
X83139819Y-63224285D02*
X82139819Y-63224285D01*
X82139819Y-63224285D02*
X82139819Y-62986190D01*
X82139819Y-62986190D02*
X82187438Y-62843333D01*
X82187438Y-62843333D02*
X82282676Y-62748095D01*
X82282676Y-62748095D02*
X82377914Y-62700476D01*
X82377914Y-62700476D02*
X82568390Y-62652857D01*
X82568390Y-62652857D02*
X82711247Y-62652857D01*
X82711247Y-62652857D02*
X82901723Y-62700476D01*
X82901723Y-62700476D02*
X82996961Y-62748095D01*
X82996961Y-62748095D02*
X83092200Y-62843333D01*
X83092200Y-62843333D02*
X83139819Y-62986190D01*
X83139819Y-62986190D02*
X83139819Y-63224285D01*
X82235057Y-62271904D02*
X82187438Y-62224285D01*
X82187438Y-62224285D02*
X82139819Y-62129047D01*
X82139819Y-62129047D02*
X82139819Y-61890952D01*
X82139819Y-61890952D02*
X82187438Y-61795714D01*
X82187438Y-61795714D02*
X82235057Y-61748095D01*
X82235057Y-61748095D02*
X82330295Y-61700476D01*
X82330295Y-61700476D02*
X82425533Y-61700476D01*
X82425533Y-61700476D02*
X82568390Y-61748095D01*
X82568390Y-61748095D02*
X83139819Y-62319523D01*
X83139819Y-62319523D02*
X83139819Y-61700476D01*
X83139819Y-61224285D02*
X83139819Y-61033809D01*
X83139819Y-61033809D02*
X83092200Y-60938571D01*
X83092200Y-60938571D02*
X83044580Y-60890952D01*
X83044580Y-60890952D02*
X82901723Y-60795714D01*
X82901723Y-60795714D02*
X82711247Y-60748095D01*
X82711247Y-60748095D02*
X82330295Y-60748095D01*
X82330295Y-60748095D02*
X82235057Y-60795714D01*
X82235057Y-60795714D02*
X82187438Y-60843333D01*
X82187438Y-60843333D02*
X82139819Y-60938571D01*
X82139819Y-60938571D02*
X82139819Y-61129047D01*
X82139819Y-61129047D02*
X82187438Y-61224285D01*
X82187438Y-61224285D02*
X82235057Y-61271904D01*
X82235057Y-61271904D02*
X82330295Y-61319523D01*
X82330295Y-61319523D02*
X82568390Y-61319523D01*
X82568390Y-61319523D02*
X82663628Y-61271904D01*
X82663628Y-61271904D02*
X82711247Y-61224285D01*
X82711247Y-61224285D02*
X82758866Y-61129047D01*
X82758866Y-61129047D02*
X82758866Y-60938571D01*
X82758866Y-60938571D02*
X82711247Y-60843333D01*
X82711247Y-60843333D02*
X82663628Y-60795714D01*
X82663628Y-60795714D02*
X82568390Y-60748095D01*
X83459819Y-66081904D02*
X82459819Y-66081904D01*
X83459819Y-65510476D02*
X82888390Y-65939047D01*
X82459819Y-65510476D02*
X83031247Y-66081904D01*
X36620476Y-73093200D02*
X36763333Y-73140819D01*
X36763333Y-73140819D02*
X37001428Y-73140819D01*
X37001428Y-73140819D02*
X37096666Y-73093200D01*
X37096666Y-73093200D02*
X37144285Y-73045580D01*
X37144285Y-73045580D02*
X37191904Y-72950342D01*
X37191904Y-72950342D02*
X37191904Y-72855104D01*
X37191904Y-72855104D02*
X37144285Y-72759866D01*
X37144285Y-72759866D02*
X37096666Y-72712247D01*
X37096666Y-72712247D02*
X37001428Y-72664628D01*
X37001428Y-72664628D02*
X36810952Y-72617009D01*
X36810952Y-72617009D02*
X36715714Y-72569390D01*
X36715714Y-72569390D02*
X36668095Y-72521771D01*
X36668095Y-72521771D02*
X36620476Y-72426533D01*
X36620476Y-72426533D02*
X36620476Y-72331295D01*
X36620476Y-72331295D02*
X36668095Y-72236057D01*
X36668095Y-72236057D02*
X36715714Y-72188438D01*
X36715714Y-72188438D02*
X36810952Y-72140819D01*
X36810952Y-72140819D02*
X37049047Y-72140819D01*
X37049047Y-72140819D02*
X37191904Y-72188438D01*
X37525238Y-72140819D02*
X37763333Y-73140819D01*
X37763333Y-73140819D02*
X37953809Y-72426533D01*
X37953809Y-72426533D02*
X38144285Y-73140819D01*
X38144285Y-73140819D02*
X38382381Y-72140819D01*
X39287142Y-73140819D02*
X38715714Y-73140819D01*
X39001428Y-73140819D02*
X39001428Y-72140819D01*
X39001428Y-72140819D02*
X38906190Y-72283676D01*
X38906190Y-72283676D02*
X38810952Y-72378914D01*
X38810952Y-72378914D02*
X38715714Y-72426533D01*
X39620476Y-72140819D02*
X40239523Y-72140819D01*
X40239523Y-72140819D02*
X39906190Y-72521771D01*
X39906190Y-72521771D02*
X40049047Y-72521771D01*
X40049047Y-72521771D02*
X40144285Y-72569390D01*
X40144285Y-72569390D02*
X40191904Y-72617009D01*
X40191904Y-72617009D02*
X40239523Y-72712247D01*
X40239523Y-72712247D02*
X40239523Y-72950342D01*
X40239523Y-72950342D02*
X40191904Y-73045580D01*
X40191904Y-73045580D02*
X40144285Y-73093200D01*
X40144285Y-73093200D02*
X40049047Y-73140819D01*
X40049047Y-73140819D02*
X39763333Y-73140819D01*
X39763333Y-73140819D02*
X39668095Y-73093200D01*
X39668095Y-73093200D02*
X39620476Y-73045580D01*
D12*
X69465000Y-54395000D02*
X83435000Y-54395000D01*
X69465000Y-68365000D02*
X69465000Y-54395000D01*
X83435000Y-54395000D02*
X83435000Y-68365000D01*
X83435000Y-68365000D02*
X69465000Y-68365000D01*
X69465000Y-73575000D02*
X83435000Y-73575000D01*
X69465000Y-87545000D02*
X69465000Y-73575000D01*
X83435000Y-73575000D02*
X83435000Y-87545000D01*
X83435000Y-87545000D02*
X69465000Y-87545000D01*
X31445000Y-92675000D02*
X45415000Y-92675000D01*
X31445000Y-106645000D02*
X31445000Y-92675000D01*
X45415000Y-92675000D02*
X45415000Y-106645000D01*
X45415000Y-106645000D02*
X31445000Y-106645000D01*
X50480000Y-73535000D02*
X64450000Y-73535000D01*
X50480000Y-87505000D02*
X50480000Y-73535000D01*
X64450000Y-73535000D02*
X64450000Y-87505000D01*
X64450000Y-87505000D02*
X50480000Y-87505000D01*
X31445000Y-54460000D02*
X45415000Y-54460000D01*
X31445000Y-68430000D02*
X31445000Y-54460000D01*
X45415000Y-54460000D02*
X45415000Y-68430000D01*
X45415000Y-68430000D02*
X31445000Y-68430000D01*
X50480000Y-54475000D02*
X64450000Y-54475000D01*
X50480000Y-68445000D02*
X50480000Y-54475000D01*
X64450000Y-54475000D02*
X64450000Y-68445000D01*
X64450000Y-68445000D02*
X50480000Y-68445000D01*
X66205000Y-102780000D02*
X66205000Y-102130000D01*
X65085000Y-101530000D02*
X67325000Y-101530000D01*
X65085000Y-101410000D02*
X67325000Y-101410000D01*
X65085000Y-101290000D02*
X67325000Y-101290000D01*
X66205000Y-97240000D02*
X66205000Y-97890000D01*
X65085000Y-97890000D02*
X67325000Y-97890000D01*
X67325000Y-102130000D01*
X65085000Y-102130000D01*
X65085000Y-97890000D01*
X46805000Y-64780000D02*
X46805000Y-64130000D01*
X45685000Y-63530000D02*
X47925000Y-63530000D01*
X45685000Y-63410000D02*
X47925000Y-63410000D01*
X45685000Y-63290000D02*
X47925000Y-63290000D01*
X46805000Y-59240000D02*
X46805000Y-59890000D01*
X45685000Y-59890000D02*
X47925000Y-59890000D01*
X47925000Y-64130000D01*
X45685000Y-64130000D01*
X45685000Y-59890000D01*
D13*
X108580000Y-52620000D02*
X108580000Y-35620000D01*
X104180000Y-39549270D02*
X95180000Y-39549270D01*
X104180000Y-32195970D02*
X104180000Y-39549270D01*
X90780000Y-35620000D02*
X90780000Y-52620000D01*
X95180000Y-32195970D02*
X104180000Y-32195970D01*
X106580000Y-33620910D02*
X92780000Y-33620910D01*
X95180000Y-39549270D02*
X95180000Y-32195970D01*
X92780000Y-54620000D02*
X106580000Y-54620000D01*
D12*
X108580000Y-52620000D02*
G75*
G02*
X106580000Y-54620000I-2000000J0D01*
G01*
X106580000Y-33620000D02*
G75*
G02*
X108580000Y-35620000I-44610J-2044610D01*
G01*
X92780000Y-54620000D02*
G75*
G02*
X90780000Y-52620000I44857J2044857D01*
G01*
X90780000Y-35620000D02*
G75*
G02*
X92780000Y-33620000I2044612J-44612D01*
G01*
D14*
X88807000Y-35320000D02*
G75*
G02*
X88553000Y-35320000I-127000J0D01*
G01*
X88553000Y-35320000D02*
G75*
G02*
X88807000Y-35320000I127000J0D01*
G01*
D15*
X108567713Y-52690850D02*
X108564665Y-52739618D01*
X108560601Y-52788639D01*
X108555268Y-52837407D01*
X108548664Y-52886175D01*
X108541044Y-52934690D01*
X108532153Y-52982950D01*
X108522248Y-53030955D01*
X108569492Y-52641574D01*
X108567713Y-52690850D01*
X90792285Y-35558295D02*
X90795333Y-35509527D01*
X90799397Y-35460506D01*
X90792285Y-35558295D01*
D12*
X85105000Y-102780000D02*
X85105000Y-102130000D01*
X83985000Y-101530000D02*
X86225000Y-101530000D01*
X83985000Y-101410000D02*
X86225000Y-101410000D01*
X83985000Y-101290000D02*
X86225000Y-101290000D01*
X85105000Y-97240000D02*
X85105000Y-97890000D01*
X83985000Y-97890000D02*
X86225000Y-97890000D01*
X86225000Y-102130000D01*
X83985000Y-102130000D01*
X83985000Y-97890000D01*
X50480000Y-92675000D02*
X64450000Y-92675000D01*
X50480000Y-106645000D02*
X50480000Y-92675000D01*
X64450000Y-92675000D02*
X64450000Y-106645000D01*
X64450000Y-106645000D02*
X50480000Y-106645000D01*
X65705000Y-64780000D02*
X65705000Y-64130000D01*
X64585000Y-63530000D02*
X66825000Y-63530000D01*
X64585000Y-63410000D02*
X66825000Y-63410000D01*
X64585000Y-63290000D02*
X66825000Y-63290000D01*
X65705000Y-59240000D02*
X65705000Y-59890000D01*
X64585000Y-59890000D02*
X66825000Y-59890000D01*
X66825000Y-64130000D01*
X64585000Y-64130000D01*
X64585000Y-59890000D01*
X46805000Y-83880000D02*
X46805000Y-83230000D01*
X45685000Y-82630000D02*
X47925000Y-82630000D01*
X45685000Y-82510000D02*
X47925000Y-82510000D01*
X45685000Y-82390000D02*
X47925000Y-82390000D01*
X46805000Y-78340000D02*
X46805000Y-78990000D01*
X45685000Y-78990000D02*
X47925000Y-78990000D01*
X47925000Y-83230000D01*
X45685000Y-83230000D01*
X45685000Y-78990000D01*
X37905000Y-41958000D02*
X38905000Y-41958000D01*
X38405000Y-41458000D02*
X38405000Y-42458000D01*
X44505000Y-45458000D02*
X44505000Y-47858000D01*
X44505000Y-40658000D02*
X44505000Y-43258000D01*
X44505000Y-36058000D02*
X44505000Y-38458000D01*
X31205000Y-37858000D02*
X30905000Y-38158000D01*
X30605000Y-37858000D02*
X31205000Y-37858000D01*
X30905000Y-38158000D02*
X30605000Y-37858000D01*
X32305000Y-36058000D02*
X32305000Y-47858000D01*
X36405000Y-36058000D02*
X32305000Y-36058000D01*
X36405000Y-47858000D02*
X32305000Y-47858000D01*
X44505000Y-47858000D02*
X40405000Y-47858000D01*
X40405000Y-36058000D02*
X44505000Y-36058000D01*
X41405000Y-41958000D02*
G75*
G02*
X35405000Y-41958000I-3000000J0D01*
G01*
X35405000Y-41958000D02*
G75*
G02*
X41405000Y-41958000I3000000J0D01*
G01*
X84905000Y-83880000D02*
X84905000Y-83230000D01*
X83785000Y-82630000D02*
X86025000Y-82630000D01*
X83785000Y-82510000D02*
X86025000Y-82510000D01*
X83785000Y-82390000D02*
X86025000Y-82390000D01*
X84905000Y-78340000D02*
X84905000Y-78990000D01*
X83785000Y-78990000D02*
X86025000Y-78990000D01*
X86025000Y-83230000D01*
X83785000Y-83230000D01*
X83785000Y-78990000D01*
X65805000Y-83880000D02*
X65805000Y-83230000D01*
X64685000Y-82630000D02*
X66925000Y-82630000D01*
X64685000Y-82510000D02*
X66925000Y-82510000D01*
X64685000Y-82390000D02*
X66925000Y-82390000D01*
X65805000Y-78340000D02*
X65805000Y-78990000D01*
X64685000Y-78990000D02*
X66925000Y-78990000D01*
X66925000Y-83230000D01*
X64685000Y-83230000D01*
X64685000Y-78990000D01*
X46905000Y-102780000D02*
X46905000Y-102130000D01*
X45785000Y-101530000D02*
X48025000Y-101530000D01*
X45785000Y-101410000D02*
X48025000Y-101410000D01*
X45785000Y-101290000D02*
X48025000Y-101290000D01*
X46905000Y-97240000D02*
X46905000Y-97890000D01*
X45785000Y-97890000D02*
X48025000Y-97890000D01*
X48025000Y-102130000D01*
X45785000Y-102130000D01*
X45785000Y-97890000D01*
X51125000Y-46038000D02*
X53785000Y-46038000D01*
X51125000Y-38358000D02*
X51125000Y-46038000D01*
X53785000Y-38358000D02*
X53785000Y-46038000D01*
X51125000Y-38358000D02*
X53785000Y-38358000D01*
X51125000Y-37088000D02*
X51125000Y-35758000D01*
X51125000Y-35758000D02*
X52455000Y-35758000D01*
X69465000Y-92675000D02*
X83435000Y-92675000D01*
X69465000Y-106645000D02*
X69465000Y-92675000D01*
X83435000Y-92675000D02*
X83435000Y-106645000D01*
X83435000Y-106645000D02*
X69465000Y-106645000D01*
X84805000Y-64780000D02*
X84805000Y-64130000D01*
X83685000Y-63530000D02*
X85925000Y-63530000D01*
X83685000Y-63410000D02*
X85925000Y-63410000D01*
X83685000Y-63290000D02*
X85925000Y-63290000D01*
X84805000Y-59240000D02*
X84805000Y-59890000D01*
X83685000Y-59890000D02*
X85925000Y-59890000D01*
X85925000Y-64130000D01*
X83685000Y-64130000D01*
X83685000Y-59890000D01*
X31445000Y-73575000D02*
X45415000Y-73575000D01*
X31445000Y-87545000D02*
X31445000Y-73575000D01*
X45415000Y-73575000D02*
X45415000Y-87545000D01*
X45415000Y-87545000D02*
X31445000Y-87545000D01*
%LPC*%
D16*
X71370000Y-61380000D03*
D17*
X76450000Y-61380000D03*
D16*
X81530000Y-61380000D03*
D18*
X78990000Y-56300000D03*
X72640000Y-58840000D03*
D16*
X71370000Y-80560000D03*
D17*
X76450000Y-80560000D03*
D16*
X81530000Y-80560000D03*
D18*
X78990000Y-75480000D03*
X72640000Y-78020000D03*
D16*
X33350000Y-99660000D03*
D17*
X38430000Y-99660000D03*
D16*
X43510000Y-99660000D03*
D18*
X40970000Y-94580000D03*
X34620000Y-97120000D03*
D16*
X52385000Y-80520000D03*
D17*
X57465000Y-80520000D03*
D16*
X62545000Y-80520000D03*
D18*
X60005000Y-75440000D03*
X53655000Y-77980000D03*
D16*
X33350000Y-61445000D03*
D17*
X38430000Y-61445000D03*
D16*
X43510000Y-61445000D03*
D18*
X40970000Y-56365000D03*
X34620000Y-58905000D03*
D16*
X52385000Y-61460000D03*
D17*
X57465000Y-61460000D03*
D16*
X62545000Y-61460000D03*
D18*
X60005000Y-56380000D03*
X53655000Y-58920000D03*
D19*
X25905000Y-105905000D03*
D20*
X66205000Y-103820000D03*
D21*
X66205000Y-96200000D03*
D19*
X25905000Y-39905000D03*
D20*
X46805000Y-65820000D03*
D21*
X46805000Y-58200000D03*
D22*
X91055000Y-36500000D03*
D23*
X91055000Y-39040000D03*
X91055000Y-41580000D03*
X91055000Y-44120000D03*
X91055000Y-46660000D03*
X91055000Y-49200000D03*
X91055000Y-51740000D03*
X108305000Y-51740000D03*
X108305000Y-49200000D03*
X108305000Y-46660000D03*
D24*
X108305000Y-44120000D03*
X108305000Y-41580000D03*
X108305000Y-39040000D03*
X108305000Y-36500000D03*
D20*
X85105000Y-103820000D03*
D21*
X85105000Y-96200000D03*
D16*
X52385000Y-99660000D03*
D17*
X57465000Y-99660000D03*
D16*
X62545000Y-99660000D03*
D18*
X60005000Y-94580000D03*
X53655000Y-97120000D03*
D20*
X65705000Y-65820000D03*
D21*
X65705000Y-58200000D03*
D20*
X46805000Y-84920000D03*
D21*
X46805000Y-77300000D03*
D25*
X45405000Y-44458000D03*
X45405000Y-39458000D03*
D26*
X38405000Y-47558000D03*
X38405000Y-36358000D03*
D25*
X30905000Y-44458000D03*
X30905000Y-41958000D03*
D27*
X30905000Y-39458000D03*
D20*
X84905000Y-84920000D03*
D21*
X84905000Y-77300000D03*
D20*
X65805000Y-84920000D03*
D21*
X65805000Y-77300000D03*
D20*
X46905000Y-103820000D03*
D21*
X46905000Y-96200000D03*
D19*
X107905000Y-105905000D03*
D28*
X52455000Y-37088000D03*
D29*
X52455000Y-39628000D03*
X52455000Y-42168000D03*
X52455000Y-44708000D03*
D19*
X107905000Y-68905000D03*
D16*
X71370000Y-99660000D03*
D17*
X76450000Y-99660000D03*
D16*
X81530000Y-99660000D03*
D18*
X78990000Y-94580000D03*
X72640000Y-97120000D03*
D20*
X84805000Y-65820000D03*
D21*
X84805000Y-58200000D03*
D16*
X33350000Y-80560000D03*
D17*
X38430000Y-80560000D03*
D16*
X43510000Y-80560000D03*
D18*
X40970000Y-75480000D03*
X34620000Y-78020000D03*
%LPD*%
D30*
X22905000Y-36905000D02*
X22905000Y-108905000D01*
X22905000Y-36905000D02*
G75*
G02*
X26905000Y-32905000I4000000J0D01*
G01*
X26905000Y-32905000D02*
X108405000Y-32905000D01*
X26905000Y-112905000D02*
G75*
G02*
X22905000Y-108905000I0J4000000D01*
G01*
X26905000Y-112905000D02*
X108405000Y-112905000D01*
X108405000Y-32905000D02*
G75*
G02*
X112405000Y-36905000I0J-4000000D01*
G01*
X112405000Y-36905000D02*
X112405000Y-108905000D01*
X112405000Y-108905000D02*
G75*
G02*
X108405000Y-112905000I-4000000J0D01*
G01*
M02*
